SplineFontDB: 2.0
FontName: THBaijam-BoldItalic
FullName: THBaijam-BoldItalic
FamilyName: TH Baijam
Weight: Bold
Copyright: Copyright (c) 2006 by Department of Intellectual Property (DIP), Ministry of Commerce and Software Industry Promotion Agency (Public Organization) (SIPA). All rights reserved.
Version: 1.1
ItalicAngle: -12
UnderlinePosition: -35
UnderlineWidth: 30
Ascent: 800
Descent: 200
Order2: 1
XUID: [1021 375 425136265 3687687]
FSType: 0
OS2Version: 3
OS2_WeightWidthSlopeOnly: 0
OS2_UseTypoMetrics: 1
CreationTime: 1154329018
ModificationTime: 1196256689
PfmFamily: 17
TTFWeight: 700
TTFWidth: 5
LineGap: 30
VLineGap: 0
Panose: 2 0 5 6 0 0 0 2 0 4
OS2TypoAscent: 0
OS2TypoAOffset: 1
OS2TypoDescent: 0
OS2TypoDOffset: 1
OS2TypoLinegap: 0
OS2WinAscent: 0
OS2WinAOffset: 1
OS2WinDescent: -104
OS2WinDOffset: 1
HheadAscent: 0
HheadAOffset: 1
HheadDescent: 104
HheadDOffset: 1
OS2SubXSize: 700
OS2SubYSize: 650
OS2SubXOff: 0
OS2SubYOff: 140
OS2SupXSize: 700
OS2SupYSize: 650
OS2SupXOff: 0
OS2SupYOff: 477
OS2StrikeYSize: 30
OS2StrikeYPos: 250
OS2FamilyClass: 773
OS2Vendor: 'IPTH'
Lookup: 4 0 0 "'frac' Diagonal Fractions in Latin lookup 0"  {"'frac' Diagonal Fractions in Latin lookup 0 subtable"  } ['frac' ('latn' <'dflt' > ) ]
Lookup: 6 0 0 "'liga' Standard Ligatures in Latin lookup 1"  {"'liga' Standard Ligatures in Latin lookup 1 subtable"  } ['liga' ('latn' <'dflt' > ) ]
Lookup: 6 0 0 "'liga' Standard Ligatures in Latin lookup 2"  {"'liga' Standard Ligatures in Latin lookup 2 subtable"  } ['liga' ('latn' <'dflt' > ) ]
Lookup: 6 0 0 "'liga' Standard Ligatures in Latin lookup 3"  {"'liga' Standard Ligatures in Latin lookup 3 subtable"  } ['liga' ('latn' <'dflt' > ) ]
Lookup: 6 0 0 "'liga' Standard Ligatures in Latin lookup 4"  {"'liga' Standard Ligatures in Latin lookup 4 subtable"  } ['liga' ('latn' <'dflt' > ) ]
Lookup: 6 0 0 "'liga' Standard Ligatures in Latin lookup 5"  {"'liga' Standard Ligatures in Latin lookup 5 subtable"  } ['liga' ('latn' <'dflt' > ) ]

StartChar: .notdef
Encoding: 65536 -1 0
Width: 813
VWidth: 1507
Flags: W
HStem: 0 103<229 615> 971 98<413 799>
Fore
615 103 m 1,0,-1
 799 971 l 1,1,-1
 413 971 l 1,2,-1
 229 103 l 1,3,-1
 615 103 l 1,0,-1
713 0 m 1,4,-1
 90 0 l 1,5,-1
 317 1069 l 1,6,-1
 939 1069 l 1,7,-1
 713 0 l 1,4,-1
EndSplineSet
EndChar
StartChar: numbersign
Encoding: 35 35 4
Width: 713
VWidth: 1507
Flags: W
HStem: 0 21G<173 284.162 437 547.061> 197 85<110 214 339 478 601 695> 464 86<167 271 396 535 659 752>
Fore
478 197 m 1,0,-1
 321 197 l 1,1,-1
 280 0 l 1,2,-1
 173 0 l 1,3,-1
 214 197 l 1,4,-1
 92 197 l 1,5,-1
 110 282 l 1,6,-1
 232 282 l 1,7,-1
 271 464 l 1,8,-1
 149 464 l 1,9,-1
 167 550 l 1,10,-1
 289 550 l 1,11,-1
 327 730 l 1,12,-1
 434 730 l 1,13,-1
 396 550 l 1,14,-1
 553 550 l 1,15,-1
 591 730 l 1,16,-1
 696 730 l 1,17,-1
 659 550 l 1,18,-1
 770 550 l 1,19,-1
 752 464 l 1,20,-1
 641 464 l 1,21,-1
 601 282 l 1,22,-1
 713 282 l 1,23,-1
 695 197 l 1,24,-1
 583 197 l 1,25,-1
 543 0 l 1,26,-1
 437 0 l 1,27,-1
 478 197 l 1,0,-1
339 282 m 1,28,-1
 496 282 l 1,29,-1
 535 464 l 1,30,-1
 378 464 l 1,31,-1
 339 282 l 1,28,-1
EndSplineSet
EndChar
StartChar: dollar
Encoding: 36 36 5
Width: 595
VWidth: 1507
Flags: W
HStem: 0 90<177.628 250 375 392.377> 641 89<363.515 386 511 544.763>
Fore
250 0 m 1,0,-1
 213 0 l 2,1,2
 172 0 172 0 139.5 12 c 128,-1,3
 107 24 107 24 85 46.5 c 128,-1,4
 63 69 63 69 55 101.5 c 128,-1,5
 47 134 47 134 56 173 c 1,6,-1
 166 173 l 1,7,8
 157 133 157 133 177 111.5 c 128,-1,9
 197 90 197 90 231 90 c 2,10,-1
 268 90 l 1,11,-1
 323 345 l 1,12,-1
 256 374 l 2,13,14
 185 409 185 409 167 455.5 c 128,-1,15
 149 502 149 502 160 550 c 0,16,17
 169 591 169 591 193 623.5 c 128,-1,18
 217 656 217 656 251 680 c 128,-1,19
 285 704 285 704 325 717 c 128,-1,20
 365 730 365 730 404 730 c 1,21,-1
 421 805 l 1,22,-1
 528 805 l 1,23,-1
 511 730 l 1,24,25
 592 730 592 730 638 684 c 128,-1,26
 684 638 684 638 668 556 c 1,27,-1
 556 556 l 1,28,29
 565 597 565 597 546.5 619 c 128,-1,30
 528 641 528 641 493 641 c 1,31,-1
 440 393 l 1,32,33
 456.5 385.5 l 0,34,-1
 506 363 l 0,35,36
 544 345 544 345 566 327 c 128,-1,37
 588 309 588 309 598.5 287 c 128,-1,38
 609 265 609 265 609 241 c 128,-1,39
 609 217 609 217 603 188 c 0,40,41
 595 154 595 154 572 120.5 c 128,-1,42
 549 87 549 87 515.5 60 c 128,-1,43
 482 33 482 33 440.5 16.5 c 128,-1,44
 399 0 399 0 357 0 c 1,45,-1
 339 -78 l 1,46,-1
 232 -78 l 1,47,-1
 250 0 l 1,0,-1
421 301 m 1,48,-1
 375 90 l 1,49,50
 386 90 386 90 405 98.5 c 128,-1,51
 424 107 424 107 442 120.5 c 128,-1,52
 460 134 460 134 474 151.5 c 128,-1,53
 488 169 488 169 493 187 c 0,54,55
 500 226 500 226 492.5 247 c 128,-1,56
 485 268 485 268 455 283 c 1,57,-1
 457 283 l 1,58,-1
 421 301 l 1,48,-1
271 552 m 0,59,60
 265 523 265 523 268 496.5 c 128,-1,61
 271 470 271 470 304 454 c 0,62,63
 314 449 314 449 323 446 c 128,-1,64
 332 443 332 443 342 437 c 1,65,-1
 386 641 l 1,66,67
 368 641 368 641 350 634 c 128,-1,68
 332 627 332 627 315 615 c 128,-1,69
 298 603 298 603 287 586.5 c 128,-1,70
 276 570 276 570 271 552 c 0,59,60
EndSplineSet
EndChar
StartChar: percent
Encoding: 37 37 6
Width: 943
VWidth: 1507
Flags: W
HStem: 6 84<648.497 677 683 710.309> 324 86<262.497 291 297 325.121> 601 91<308.079 347 383 386.812> 734 20G<752.193 876>
Fore
191 -24 m 1,0,-1
 767 754 l 1,1,-1
 876 754 l 1,2,-1
 303 -24 l 1,3,-1
 191 -24 l 1,0,-1
347 692 m 2,4,5
 320 692 320 692 292.5 680.5 c 128,-1,6
 265 669 265 669 242.5 651 c 128,-1,7
 220 633 220 633 204 609 c 128,-1,8
 188 585 188 585 184 561 c 2,9,-1
 157 436 l 2,10,11
 145 383 145 383 172 353.5 c 128,-1,12
 199 324 199 324 259 324 c 2,13,-1
 294 324 l 2,14,15
 323 324 323 324 350 334.5 c 128,-1,16
 377 345 377 345 399.5 363 c 128,-1,17
 422 381 422 381 438.5 404.5 c 128,-1,18
 455 428 455 428 460 454 c 2,19,-1
 488 583 l 2,20,21
 499 635 499 635 472.5 663.5 c 128,-1,22
 446 692 446 692 383 692 c 2,23,-1
 347 692 l 2,4,5
285 549 m 2,24,25
 289 571 289 571 307.5 589 c 128,-1,26
 326 607 326 607 348 607 c 1,27,-1
 359 601 l 1,28,29
 395 601 395 601 387 562 c 2,30,-1
 360 464 l 2,31,32
 356 443 356 443 337 426.5 c 128,-1,33
 318 410 318 410 297 410 c 2,34,-1
 291 410 l 2,35,36
 255 410 255 410 264 451 c 2,37,-1
 285 549 l 2,24,25
733 372 m 2,38,39
 705 372 705 372 678 361 c 128,-1,40
 651 350 651 350 629 331 c 128,-1,41
 607 312 607 312 591.5 288.5 c 128,-1,42
 576 265 576 265 571 241 c 2,43,-1
 544 115 l 2,44,45
 532 65 532 65 558.5 35.5 c 128,-1,46
 585 6 585 6 645 6 c 2,47,-1
 678 6 l 2,48,49
 707 6 707 6 735 16.5 c 128,-1,50
 763 27 763 27 785.5 44.5 c 128,-1,51
 808 62 808 62 824.5 85.5 c 128,-1,52
 841 109 841 109 846 134 c 2,53,-1
 874 264 l 2,54,55
 885 315 885 315 858.5 343.5 c 128,-1,56
 832 372 832 372 769 372 c 2,57,-1
 733 372 l 2,38,39
671 229 m 2,58,59
 675 252 675 252 693 270 c 128,-1,60
 711 288 711 288 733 288 c 2,61,-1
 739 288 l 2,62,63
 776 288 776 288 769 250 c 2,64,-1
 746 146 l 2,65,66
 742 124 742 124 723 107 c 128,-1,67
 704 90 704 90 683 90 c 2,68,-1
 677 90 l 2,69,70
 641 90 641 90 650 131 c 2,71,-1
 671 229 l 2,58,59
EndSplineSet
EndChar
StartChar: ampersand
Encoding: 38 38 7
Width: 711
VWidth: 1507
Flags: W
HStem: -9 90<257.023 392.36> 644 86<401.703 536.076>
Fore
687 338 m 1,0,1
 677 288 677 288 651.5 237.5 c 128,-1,2
 626 187 626 187 589 143 c 1,3,4
 606 116 606 116 623.5 91 c 128,-1,5
 641 66 641 66 654 45 c 2,6,-1
 684 0 l 1,7,-1
 558 2 l 1,8,9
 552 8 552 8 544 17 c 0,10,11
 537 24 537 24 528.5 36 c 128,-1,12
 520 48 520 48 510 66 c 1,13,14
 464 32 464 32 411.5 11.5 c 128,-1,15
 359 -9 359 -9 303 -9 c 2,16,-1
 258 -9 l 2,17,18
 219 -9 219 -9 184 8.5 c 128,-1,19
 149 26 149 26 125 53.5 c 128,-1,20
 101 81 101 81 90.5 116.5 c 128,-1,21
 80 152 80 152 87 188 c 2,22,-1
 95 222 l 2,23,24
 101 250 101 250 119 276.5 c 128,-1,25
 137 303 137 303 163.5 325.5 c 128,-1,26
 190 348 190 348 222.5 367 c 128,-1,27
 255 386 255 386 289 402 c 1,28,-1
 274 425 l 2,29,30
 258 448 258 448 247.5 476.5 c 128,-1,31
 237 505 237 505 244 540 c 2,32,-1
 246 550 l 2,33,34
 253 588 253 588 275.5 620.5 c 128,-1,35
 298 653 298 653 330 677 c 128,-1,36
 362 701 362 701 400.5 715.5 c 128,-1,37
 439 730 439 730 479 730 c 2,38,-1
 520 730 l 2,39,40
 589 730 589 730 627.5 687.5 c 128,-1,41
 666 645 666 645 654 582 c 2,42,-1
 650 567 l 2,43,44
 635 496 635 496 574 452.5 c 128,-1,45
 513 409 513 409 434 378 c 1,46,-1
 449 356 l 2,47,48
 470 321 470 321 487.5 294 c 128,-1,49
 505 267 505 267 531 229 c 1,50,51
 546 255 546 255 558 283.5 c 128,-1,52
 570 312 570 312 576 338 c 1,53,-1
 687 338 l 1,0,1
333 336 m 1,54,55
 289 314 289 314 251.5 285 c 128,-1,56
 214 256 214 256 207 222 c 2,57,-1
 199 188 l 2,58,59
 194 170 194 170 199.5 151.5 c 128,-1,60
 205 133 205 133 216.5 117 c 128,-1,61
 228 101 228 101 243.5 91 c 128,-1,62
 259 81 259 81 277 81 c 2,63,-1
 323 81 l 2,64,65
 357 81 357 81 393.5 99.5 c 128,-1,66
 430 118 430 118 460 146 c 1,67,-1
 333 336 l 1,54,55
410 457 m 2,68,69
 458 476 458 476 496 502 c 128,-1,70
 534 528 534 528 541 567 c 2,71,-1
 544 580 l 2,72,73
 550 606 550 606 536.5 625 c 128,-1,74
 523 644 523 644 499 644 c 2,75,-1
 461 644 l 2,76,77
 425 644 425 644 395 616.5 c 128,-1,78
 365 589 365 589 356 550 c 2,79,-1
 354 541 l 2,80,81
 351 528 351 528 355 515.5 c 128,-1,82
 359 503 359 503 363 494 c 2,83,-1
 372 473 l 1,84,85
 372 472 372 472 389 448 c 1,86,-1
 390 448 l 1,87,-1
 410 457 l 2,68,69
EndSplineSet
EndChar
StartChar: quotesingle
Encoding: 39 39 8
Width: 214
VWidth: 1507
Flags: W
HStem: 535 241<208 271 208 271 208 208>
Fore
208 776 m 1,0,-1
 323 776 l 1,1,-1
 271 535 l 1,2,-1
 157 535 l 1,3,-1
 208 776 l 1,0,-1
EndSplineSet
EndChar
StartChar: parenleft
Encoding: 40 40 9
Width: 361
VWidth: 1507
Flags: W
VStem: 106.5 377.5<22 730 22 22>
Fore
167 -205 m 1,0,1
 121 -96 121 -96 106.5 22 c 128,-1,2
 92 140 92 140 118 262 c 0,3,4
 146 390 146 390 206.5 505 c 128,-1,5
 267 620 267 620 365 730 c 1,6,-1
 484 730 l 1,7,8
 381 617 381 617 318 502 c 128,-1,9
 255 387 255 387 228 262 c 0,10,11
 202 142 202 142 219.5 23 c 128,-1,12
 237 -96 237 -96 285 -205 c 1,13,-1
 167 -205 l 1,0,1
EndSplineSet
EndChar
StartChar: parenright
Encoding: 41 41 10
Width: 361
VWidth: 1507
Flags: W
VStem: 11 379<-205 505 -205 -205>
Fore
11 -205 m 1,0,1
 104 -95 104 -95 172 23.5 c 128,-1,2
 240 142 240 142 265 262 c 0,3,4
 292 389 292 389 276.5 503 c 128,-1,5
 261 617 261 617 207 730 c 1,6,-1
 326 730 l 1,7,8
 378 620 378 620 390 505 c 128,-1,9
 402 390 402 390 374 262 c 0,10,11
 348 140 348 140 284 22 c 128,-1,12
 220 -96 220 -96 128 -205 c 1,13,-1
 11 -205 l 1,0,1
EndSplineSet
EndChar
StartChar: asterisk
Encoding: 42 42 11
Width: 515
VWidth: 1507
Flags: W
HStem: 448 401<381 392>
VStem: 164 446<580 719 466.403 580>
Fore
354 718 m 1,0,-1
 381 849 l 1,1,-1
 476 849 l 1,2,-1
 449 719 l 1,3,-1
 580 785 l 1,4,5
 585 773 585 773 591 763 c 0,6,7
 597.5 747 l 0,8,9
 604 731 604 731 610 719 c 1,10,-1
 470 648 l 1,11,-1
 580 579 l 1,12,-1
 523 510 l 1,13,-1
 418 574 l 1,14,-1
 392 448 l 1,15,-1
 297 448 l 1,16,-1
 324 576 l 1,17,-1
 193 511 l 1,18,-1
 164 580 l 1,19,-1
 301 648 l 1,20,-1
 193 716 l 1,21,22
 203 727 203 727 213 739 c 0,23,24
 220 749 220 749 230 760.5 c 128,-1,25
 240 772 240 772 250 784 c 1,26,-1
 354 718 l 1,0,-1
EndSplineSet
EndChar
StartChar: plus
Encoding: 43 43 12
Width: 624
VWidth: 1507
Flags: W
HStem: 98 482<377 381> 297 86<128 317 442 629>
Fore
424 297 m 1,0,-1
 381 98 l 1,1,-1
 274 98 l 1,2,-1
 317 297 l 1,3,-1
 110 297 l 1,4,-1
 128 383 l 1,5,-1
 335 383 l 1,6,-1
 377 580 l 1,7,-1
 484 580 l 1,8,-1
 442 383 l 1,9,-1
 647 383 l 1,10,-1
 629 297 l 1,11,-1
 424 297 l 1,0,-1
EndSplineSet
EndChar
StartChar: comma
Encoding: 44 44 13
Width: 260
VWidth: 1507
Flags: W
HStem: -130 246<33 116 116 167.903>
VStem: -2 222<-59 116 -59 -7.09737>
Fore
116 116 m 1,0,-1
 220 116 l 1,1,-1
 210 65 l 2,2,3
 200 26 200 26 184.5 -1.5 c 128,-1,4
 169 -29 169 -29 150 -49 c 128,-1,5
 131 -69 131 -69 110 -82.5 c 128,-1,6
 89 -96 89 -96 71 -107 c 2,7,-1
 33 -130 l 1,8,-1
 -2 -59 l 1,9,-1
 32 -35 l 2,10,11
 53 -21 53 -21 74 0 c 128,-1,12
 95 21 95 21 106 65 c 2,13,-1
 116 116 l 1,0,-1
EndSplineSet
EndChar
StartChar: hyphen
Encoding: 45 45 14
Width: 393
VWidth: 1507
Flags: W
HStem: 279 92<112 412 92 431 112 112>
Fore
92 279 m 1,0,-1
 112 371 l 1,1,-1
 431 371 l 1,2,-1
 412 279 l 1,3,-1
 92 279 l 1,0,-1
EndSplineSet
EndChar
StartChar: period
Encoding: 46 46 15
Width: 304
VWidth: 1507
Flags: W
HStem: -8 127<123.237 209.217>
VStem: 93 150<37.7234 106.145>
Fore
93 57 m 0,0,1
 99 84 99 84 122.5 101.5 c 128,-1,2
 146 119 146 119 179 119 c 256,3,4
 213 119 213 119 231 101.5 c 128,-1,5
 249 84 249 84 243 57 c 0,6,7
 235 29 235 29 210 10.5 c 128,-1,8
 185 -8 185 -8 152 -8 c 256,9,10
 119 -8 119 -8 102.5 10.5 c 128,-1,11
 86 29 86 29 93 57 c 0,0,1
EndSplineSet
EndChar
StartChar: slash
Encoding: 47 47 16
Width: 495
VWidth: 1507
Flags: W
HStem: 734 20G<537.27 662>
Fore
-21 -24 m 1,0,-1
 552 754 l 1,1,-1
 662 754 l 1,2,-1
 90 -24 l 1,3,-1
 -21 -24 l 1,0,-1
EndSplineSet
EndChar
StartChar: zero
Encoding: 48 48 17
Width: 624
VWidth: 1507
Flags: W
HStem: -8 83<224.629 380.454> 656 83<387.516 547.312>
Fore
494 739 m 2,0,1
 609 739 609 739 657 678.5 c 128,-1,2
 705 618 705 618 684 520 c 2,3,-1
 627 255 l 2,4,5
 617 205 617 205 586 157.5 c 128,-1,6
 555 110 555 110 511 73 c 128,-1,7
 467 36 467 36 414.5 14 c 128,-1,8
 362 -8 362 -8 309 -8 c 2,9,-1
 274 -8 l 2,10,11
 161 -8 161 -8 113.5 53.5 c 128,-1,12
 66 115 66 115 87 214 c 2,13,-1
 142 470 l 2,14,15
 152 520 152 520 182.5 567.5 c 128,-1,16
 213 615 213 615 255.5 653.5 c 128,-1,17
 298 692 298 692 349.5 715.5 c 128,-1,18
 401 739 401 739 452 739 c 2,19,-1
 494 739 l 2,0,1
197 214 m 2,20,21
 185 155 185 155 208 115 c 128,-1,22
 231 75 231 75 291 75 c 2,23,-1
 317 75 l 2,24,25
 348 75 348 75 381.5 91 c 128,-1,26
 415 107 415 107 442.5 133.5 c 128,-1,27
 470 160 470 160 490.5 191.5 c 128,-1,28
 511 223 511 223 517 255 c 2,29,-1
 574 520 l 2,30,31
 586 579 586 579 562 617.5 c 128,-1,32
 538 656 538 656 478 656 c 2,33,-1
 452 656 l 2,34,35
 419 656 419 656 386.5 639.5 c 128,-1,36
 354 623 354 623 326 596.5 c 128,-1,37
 298 570 298 570 278 536.5 c 128,-1,38
 258 503 258 503 252 470 c 2,39,-1
 197 214 l 2,20,21
EndSplineSet
EndChar
StartChar: one
Encoding: 49 49 18
Width: 428
VWidth: 1507
Flags: W
HStem: 0 21G<208 322.219>
VStem: 143 329<487 730 474.342 487>
Fore
208 0 m 1,0,-1
 318 523 l 1,1,2
 283 505 283 505 238 496.5 c 128,-1,3
 193 488 193 488 143 487 c 1,4,-1
 161 570 l 1,5,6
 193 570 193 570 226 583.5 c 128,-1,7
 259 597 259 597 287 619 c 128,-1,8
 315 641 315 641 334.5 669.5 c 128,-1,9
 354 698 354 698 362 730 c 1,10,-1
 472 730 l 1,11,-1
 318 0 l 1,12,-1
 208 0 l 1,0,-1
EndSplineSet
EndChar
StartChar: two
Encoding: 50 50 19
Width: 634
VWidth: 1507
Flags: W
HStem: 0 83<175 583> 668 83<366.688 553.512>
Fore
491 751 m 2,0,1
 607 751 607 751 657 695 c 128,-1,2
 707 639 707 639 686 540 c 0,3,4
 680 514 680 514 671 493 c 128,-1,5
 662 472 662 472 647 452.5 c 128,-1,6
 632 433 632 433 607.5 413 c 128,-1,7
 583 393 583 393 549 371 c 2,8,-1
 252 187 l 2,9,10
 217 166 217 166 199.5 137.5 c 128,-1,11
 182 109 182 109 175 83 c 1,12,-1
 600 83 l 1,13,-1
 583 0 l 1,14,-1
 42 0 l 1,15,-1
 59 78 l 2,16,17
 71 131 71 131 104 175.5 c 128,-1,18
 137 220 137 220 185 250 c 2,19,-1
 522 460 l 2,20,21
 538 469 538 469 554 493 c 128,-1,22
 570 517 570 517 576 540 c 0,23,24
 601 668 601 668 478 668 c 2,25,-1
 452 668 l 2,26,27
 405 668 405 668 354 640 c 128,-1,28
 303 612 303 612 261 573 c 1,29,-1
 193 633 l 1,30,31
 250 687 250 687 321 719 c 128,-1,32
 392 751 392 751 469 751 c 2,33,-1
 491 751 l 2,0,1
EndSplineSet
EndChar
StartChar: three
Encoding: 51 51 20
Width: 642
VWidth: 1507
Flags: W
HStem: -6 83<229.965 391.891> 380 83<301 468.418> 668 83<348.465 533.619>
Fore
301 463 m 1,0,-1
 467 463 l 2,1,2
 499 466 499 466 524 485.5 c 128,-1,3
 549 505 549 505 556 540 c 0,4,5
 582 668 582 668 460 668 c 2,6,-1
 433 668 l 2,7,8
 386 668 386 668 335.5 640 c 128,-1,9
 285 612 285 612 241 573 c 1,10,-1
 175 633 l 1,11,12
 231 687 231 687 301.5 719 c 128,-1,13
 372 751 372 751 449 751 c 2,14,-1
 475 751 l 2,15,16
 588 751 588 751 638.5 695 c 128,-1,17
 689 639 689 639 668 540 c 0,18,19
 651 469 651 469 594 425 c 1,20,21
 629 393 629 393 641.5 347 c 128,-1,22
 654 301 654 301 645 256 c 0,23,24
 633 197 633 197 600 149 c 128,-1,25
 567 101 567 101 520 66.5 c 128,-1,26
 473 32 473 32 415 13 c 128,-1,27
 357 -6 357 -6 294 -6 c 0,28,29
 202 -6 202 -6 145.5 27 c 128,-1,30
 89 60 89 60 50 128 c 1,31,-1
 142 193 l 1,32,33
 173 143 173 143 214 110 c 128,-1,34
 255 77 255 77 312 77 c 0,35,36
 348 77 348 77 384.5 91.5 c 128,-1,37
 421 106 421 106 451.5 130 c 128,-1,38
 482 154 482 154 504 187 c 128,-1,39
 526 220 526 220 534 256 c 0,40,41
 538 280 538 280 534.5 302 c 128,-1,42
 531 324 531 324 518 341.5 c 128,-1,43
 505 359 505 359 486 369.5 c 128,-1,44
 467 380 467 380 443 380 c 2,45,-1
 283 380 l 1,46,-1
 301 463 l 1,0,-1
EndSplineSet
EndChar
StartChar: four
Encoding: 52 52 21
Width: 639
VWidth: 1507
Flags: W
HStem: 0 21G<395 509.11> 146 83<226 425 553 630>
Fore
395 0 m 1,0,-1
 425 146 l 1,1,-1
 163 146 l 2,2,3
 74 146 74 146 89 222 c 1,4,-1
 556 730 l 1,5,-1
 659 730 l 1,6,-1
 553 229 l 1,7,-1
 648 229 l 1,8,-1
 630 146 l 1,9,-1
 535 146 l 1,10,-1
 505 0 l 1,11,-1
 395 0 l 1,0,-1
510 541 m 1,12,13
 472 500 472 500 437 462 c 128,-1,14
 402 424 402 424 368.5 386 c 128,-1,15
 335 348 335 348 299.5 309.5 c 128,-1,16
 264 271 264 271 226 229 c 1,17,-1
 443 229 l 1,18,-1
 510 541 l 1,12,13
EndSplineSet
EndChar
StartChar: five
Encoding: 53 53 22
Width: 657
VWidth: 1507
Flags: W
HStem: -6 83<246.952 408.576> 380 83<317 483.418> 648 82<356 704>
Fore
704 648 m 1,0,-1
 356 648 l 1,1,-1
 317 463 l 1,2,-1
 496 463 l 2,3,4
 541 463 541 463 575.5 445 c 128,-1,5
 610 427 610 427 631.5 398 c 128,-1,6
 653 369 653 369 660.5 331.5 c 128,-1,7
 668 294 668 294 660 256 c 0,8,9
 648 197 648 197 615 149 c 128,-1,10
 582 101 582 101 535 66.5 c 128,-1,11
 488 32 488 32 430 13 c 128,-1,12
 372 -6 372 -6 311 -6 c 0,13,14
 220 -6 220 -6 163.5 27 c 128,-1,15
 107 60 107 60 68 128 c 1,16,-1
 158 193 l 1,17,18
 190 143 190 143 230.5 110 c 128,-1,19
 271 77 271 77 329 77 c 0,20,21
 365 77 365 77 401 91.5 c 128,-1,22
 437 106 437 106 467 130 c 128,-1,23
 497 154 497 154 519 187 c 128,-1,24
 541 220 541 220 549 256 c 0,25,26
 553 280 553 280 549.5 302 c 128,-1,27
 546 324 546 324 533 341.5 c 128,-1,28
 520 359 520 359 501 369.5 c 128,-1,29
 482 380 482 380 458 380 c 2,30,-1
 187 380 l 1,31,-1
 261 730 l 1,32,-1
 721 730 l 1,33,-1
 704 648 l 1,0,-1
EndSplineSet
EndChar
StartChar: six
Encoding: 54 54 23
Width: 649
VWidth: 1507
Flags: W
HStem: -6 83<242.186 404.454> 384 83<353.485 518.029> 614 21G<601.5 633.231> 668 83<415.039 563.742>
Fore
458 467 m 2,0,1
 574 467 574 467 624 413 c 128,-1,2
 674 359 674 359 653 259 c 2,3,-1
 651 249 l 2,4,5
 641 199 641 199 610 152.5 c 128,-1,6
 579 106 579 106 534.5 71 c 128,-1,7
 490 36 490 36 438 15 c 128,-1,8
 386 -6 386 -6 332 -6 c 2,9,-1
 298 -6 l 2,10,11
 213 -6 213 -6 167 27 c 128,-1,12
 121 60 121 60 106 116 c 0,13,14
 95 154 95 154 99 204.5 c 128,-1,15
 103 255 103 255 110 297 c 2,16,-1
 145 455 l 2,17,18
 158 517 158 517 193.5 570.5 c 128,-1,19
 229 624 229 624 280.5 664 c 128,-1,20
 332 704 332 704 393 727.5 c 128,-1,21
 454 751 454 751 519 751 c 0,22,23
 621 751 621 751 689 692 c 1,24,-1
 614 614 l 1,25,26
 589 635 589 635 560.5 651.5 c 128,-1,27
 532 668 532 668 502 668 c 0,28,29
 461 668 461 668 420.5 651.5 c 128,-1,30
 380 635 380 635 346 606 c 128,-1,31
 312 577 312 577 288 538.5 c 128,-1,32
 264 500 264 500 255 457 c 2,33,-1
 244 407 l 1,34,35
 283 439 283 439 324.5 453 c 128,-1,36
 366 467 366 467 418 467 c 2,37,-1
 458 467 l 2,0,1
220 211 m 0,38,39
 208 148 208 148 230.5 112.5 c 128,-1,40
 253 77 253 77 314 77 c 2,41,-1
 341 77 l 2,42,43
 372 77 372 77 405.5 92 c 128,-1,44
 439 107 439 107 466 131 c 128,-1,45
 493 155 493 155 512.5 186 c 128,-1,46
 532 217 532 217 540 249 c 2,47,-1
 541 259 l 2,48,49
 553 318 553 318 529 351 c 128,-1,50
 505 384 505 384 445 384 c 2,51,-1
 418 384 l 2,52,53
 384 384 384 384 352.5 370 c 128,-1,54
 321 356 321 356 294 332 c 128,-1,55
 267 308 267 308 247.5 276 c 128,-1,56
 228 244 228 244 220 211 c 0,38,39
EndSplineSet
EndChar
StartChar: seven
Encoding: 55 55 24
Width: 602
VWidth: 1507
Flags: W
HStem: 0 21G<181 300> 650 83<185 565>
VStem: 181 113<23.2792 87.4054>
Fore
185 733 m 1,0,-1
 721 733 l 1,1,-1
 708 674 l 1,2,-1
 384 217 l 2,3,4
 353 169 353 169 329.5 113 c 128,-1,5
 306 57 306 57 294 0 c 1,6,-1
 181 0 l 1,7,8
 196 54 196 54 216.5 113 c 128,-1,9
 237 172 237 172 271 225 c 0,10,11
 286 247 286 247 304.5 275 c 128,-1,12
 323 303 323 303 354.5 349.5 c 128,-1,13
 386 396 386 396 435.5 467 c 128,-1,14
 485 538 485 538 565 650 c 1,15,-1
 167 650 l 1,16,-1
 185 733 l 1,0,-1
EndSplineSet
EndChar
StartChar: eight
Encoding: 56 56 25
Width: 643
VWidth: 1507
Flags: W
HStem: -8 83<221.723 411.733> 353 83<344.467 446.25> 657 83<429.658 547.978>
Fore
680 544 m 0,0,1
 672 506 672 506 639 466.5 c 128,-1,2
 606 427 606 427 570 401 c 1,3,4
 612 375 612 375 631.5 327.5 c 128,-1,5
 651 280 651 280 641 228 c 0,6,7
 627 169 627 169 595.5 124.5 c 128,-1,8
 564 80 564 80 517 50.5 c 128,-1,9
 470 21 470 21 413.5 6.5 c 128,-1,10
 357 -8 357 -8 294 -8 c 2,11,-1
 274 -8 l 2,12,13
 225 -8 225 -8 185 6.5 c 128,-1,14
 145 21 145 21 118.5 47.5 c 128,-1,15
 92 74 92 74 82 111.5 c 128,-1,16
 72 149 72 149 83 197 c 0,17,18
 93 244 93 244 133 296 c 128,-1,19
 173 348 173 348 226 384 c 1,20,21
 196 409 196 409 184 442 c 128,-1,22
 172 475 172 475 182 520 c 0,23,24
 191 565 191 565 219 605 c 128,-1,25
 247 645 247 645 285.5 675 c 128,-1,26
 324 705 324 705 370 722.5 c 128,-1,27
 416 740 416 740 463 740 c 2,28,-1
 502 740 l 2,29,30
 607 740 607 740 653 688 c 128,-1,31
 699 636 699 636 680 544 c 0,0,1
387 353 m 2,32,33
 354 353 354 353 321.5 337 c 128,-1,34
 289 321 289 321 262 297.5 c 128,-1,35
 235 274 235 274 216 247 c 128,-1,36
 197 220 197 220 193 197 c 0,37,38
 181 140 181 140 209.5 107.5 c 128,-1,39
 238 75 238 75 291 75 c 2,40,-1
 311 75 l 2,41,42
 386 75 386 75 449.5 114.5 c 128,-1,43
 513 154 513 154 529 228 c 0,44,45
 534 252 534 252 528.5 274.5 c 128,-1,46
 523 297 523 297 509.5 314.5 c 128,-1,47
 496 332 496 332 477 342.5 c 128,-1,48
 458 353 458 353 439 353 c 2,49,-1
 387 353 l 2,32,33
422 436 m 2,50,51
 446 437 446 437 471 447.5 c 128,-1,52
 496 458 496 458 516.5 474 c 128,-1,53
 537 490 537 490 550.5 509 c 128,-1,54
 564 528 564 528 567 544 c 0,55,56
 579 595 579 595 558 626 c 128,-1,57
 537 657 537 657 484 657 c 2,58,-1
 461 657 l 2,59,60
 433 657 433 657 405.5 646.5 c 128,-1,61
 378 636 378 636 355.5 618 c 128,-1,62
 333 600 333 600 316.5 575 c 128,-1,63
 300 550 300 550 294 522 c 128,-1,64
 288 494 288 494 295.5 477.5 c 128,-1,65
 303 461 303 461 316 452 c 128,-1,66
 329 443 329 443 344 439.5 c 128,-1,67
 359 436 359 436 368 436 c 2,68,-1
 422 436 l 2,50,51
EndSplineSet
EndChar
StartChar: nine
Encoding: 57 57 26
Width: 643
VWidth: 1507
Flags: W
HStem: -6 83<232.383 380.369> 279 83<275.492 443.515> 668 83<393.031 553.131>
Fore
338 279 m 2,0,1
 223 279 223 279 173.5 332.5 c 128,-1,2
 124 386 124 386 145 485 c 2,3,-1
 146 494 l 2,4,5
 157 546 157 546 188 592 c 128,-1,6
 219 638 219 638 262.5 673 c 128,-1,7
 306 708 306 708 358 729.5 c 128,-1,8
 410 751 410 751 463 751 c 2,9,-1
 497 751 l 2,10,11
 583 751 583 751 629 717.5 c 128,-1,12
 675 684 675 684 690 627 c 1,13,-1
 690 629 l 1,14,15
 701 592 701 592 698 540 c 128,-1,16
 695 488 695 488 687 448 c 2,17,-1
 653 288 l 2,18,19
 639 226 639 226 603.5 172.5 c 128,-1,20
 568 119 568 119 517 79 c 128,-1,21
 466 39 466 39 404 16.5 c 128,-1,22
 342 -6 342 -6 277 -6 c 0,23,24
 225 -6 225 -6 182.5 10 c 128,-1,25
 140 26 140 26 107 53 c 1,26,-1
 184 130 l 1,27,28
 208 110 208 110 236.5 93.5 c 128,-1,29
 265 77 265 77 294 77 c 0,30,31
 335 77 335 77 375.5 93.5 c 128,-1,32
 416 110 416 110 450 138.5 c 128,-1,33
 484 167 484 167 508 205.5 c 128,-1,34
 532 244 532 244 541 288 c 2,35,-1
 552 336 l 1,36,37
 476 279 476 279 380 279 c 2,38,-1
 338 279 l 2,0,1
577 535 m 0,39,40
 589 595 589 595 566 631.5 c 128,-1,41
 543 668 543 668 482 668 c 2,42,-1
 457 668 l 2,43,44
 425 668 425 668 392 653 c 128,-1,45
 359 638 359 638 331 613.5 c 128,-1,46
 303 589 303 589 282.5 557.5 c 128,-1,47
 262 526 262 526 256 494 c 2,48,-1
 255 485 l 2,49,50
 229 362 229 362 354 362 c 2,51,-1
 380 362 l 2,52,53
 413 362 413 362 444.5 376 c 128,-1,54
 476 390 476 390 503.5 414.5 c 128,-1,55
 531 439 531 439 550.5 470.5 c 128,-1,56
 570 502 570 502 577 535 c 0,39,40
EndSplineSet
EndChar
StartChar: colon
Encoding: 58 58 27
Width: 334
VWidth: 1507
Flags: W
HStem: 26 129<149.267 235.217> 392 128<227.783 313.217>
VStem: 118 227<90 455 452.91 514.229>
Fore
118 90 m 256,0,1
 124 116 124 116 148.5 135.5 c 128,-1,2
 173 155 173 155 205 155 c 0,3,4
 238 155 238 155 255.5 135.5 c 128,-1,5
 273 116 273 116 267 90 c 256,6,7
 261 65 261 65 236 45.5 c 128,-1,8
 211 26 211 26 178 26 c 0,9,10
 146 26 146 26 129 45.5 c 128,-1,11
 112 65 112 65 118 90 c 256,0,1
196 455 m 0,12,13
 202 482 202 482 227 501 c 128,-1,14
 252 520 252 520 283 520 c 0,15,16
 317 520 317 520 334 501 c 128,-1,17
 351 482 351 482 345 455 c 0,18,19
 339 430 339 430 314 411 c 128,-1,20
 289 392 289 392 256 392 c 0,21,22
 225 392 225 392 207.5 411 c 128,-1,23
 190 430 190 430 196 455 c 0,12,13
EndSplineSet
EndChar
StartChar: semicolon
Encoding: 59 59 28
Width: 334
VWidth: 1507
Flags: W
HStem: 392 128<227.783 312.732>
VStem: 196 148<438.283 505.879>
Fore
196 455 m 0,0,1
 202 482 202 482 227 501 c 128,-1,2
 252 520 252 520 283 520 c 0,3,4
 317 520 317 520 333.5 501 c 128,-1,5
 350 482 350 482 344 455 c 0,6,7
 338 430 338 430 313.5 411 c 128,-1,8
 289 392 289 392 256 392 c 0,9,10
 225 392 225 392 207.5 411 c 128,-1,11
 190 430 190 430 196 455 c 0,0,1
167 164 m 1,12,-1
 271 164 l 1,13,-1
 259 112 l 2,14,15
 250 66 250 66 231.5 37 c 128,-1,16
 213 8 213 8 189.5 -12.5 c 128,-1,17
 166 -33 166 -33 139.5 -48 c 128,-1,18
 113 -63 113 -63 89 -78 c 2,19,-1
 84 -81 l 1,20,-1
 47 -11 l 1,21,22
 63 3 63 3 79 12 c 128,-1,23
 95 21 95 21 110 33 c 128,-1,24
 125 45 125 45 136.5 63 c 128,-1,25
 148 81 148 81 155 112 c 2,26,-1
 167 164 l 1,12,-1
EndSplineSet
EndChar
StartChar: less
Encoding: 60 60 29
Width: 673
VWidth: 1507
Flags: W
Fore
758 647 m 1,0,-1
 737 547 l 1,1,-1
 276 309 l 1,2,-1
 636 72 l 1,3,-1
 615 -26 l 1,4,-1
 99 309 l 1,5,-1
 758 647 l 1,0,-1
EndSplineSet
EndChar
StartChar: equal
Encoding: 61 61 30
Width: 574
VWidth: 1507
Flags: W
HStem: 182 92<92 546> 374 92<133 586>
Fore
72 182 m 1,0,-1
 92 274 l 1,1,-1
 565 274 l 1,2,-1
 546 182 l 1,3,-1
 72 182 l 1,0,-1
113 374 m 1,4,-1
 133 466 l 1,5,-1
 606 466 l 1,6,-1
 586 374 l 1,7,-1
 113 374 l 1,4,-1
EndSplineSet
EndChar
StartChar: greater
Encoding: 62 62 31
Width: 675
VWidth: 1507
Flags: W
Fore
693 309 m 1,0,-1
 36 -26 l 1,1,-1
 57 72 l 1,2,-1
 516 309 l 1,3,-1
 158 547 l 1,4,-1
 179 647 l 1,5,-1
 693 309 l 1,0,-1
EndSplineSet
EndChar
StartChar: question
Encoding: 63 63 32
Width: 586
VWidth: 1507
Flags: W
HStem: -8 127<218.783 303.217> 644 89<258.343 459.465>
VStem: 187 149<37.7233 106.461>
Fore
187 57 m 0,0,1
 193 84 193 84 218 101.5 c 128,-1,2
 243 119 243 119 274 119 c 256,3,4
 306 119 306 119 324 101.5 c 128,-1,5
 342 84 342 84 336 57 c 0,6,7
 329 29 329 29 304 10.5 c 128,-1,8
 279 -8 279 -8 247 -8 c 256,9,10
 216 -8 216 -8 197.5 10.5 c 128,-1,11
 179 29 179 29 187 57 c 0,0,1
155 668 m 1,12,13
 187 695 187 695 241 714 c 128,-1,14
 295 733 295 733 360 733 c 2,15,-1
 446 733 l 2,16,17
 494 733 494 733 535.5 720 c 128,-1,18
 577 707 577 707 604.5 681.5 c 128,-1,19
 632 656 632 656 644 619 c 128,-1,20
 656 582 656 582 645 532 c 0,21,22
 633 475 633 475 581 425 c 128,-1,23
 529 375 529 375 421 333 c 0,24,25
 402 326 402 326 389.5 313 c 128,-1,26
 377 300 377 300 368.5 285 c 128,-1,27
 360 270 360 270 355 255.5 c 128,-1,28
 350 241 350 241 348 232 c 2,29,-1
 333 163 l 1,30,-1
 223 163 l 1,31,-1
 238 232 l 2,32,33
 243 250 243 250 253.5 275 c 128,-1,34
 264 300 264 300 284 325.5 c 128,-1,35
 304 351 304 351 336.5 376 c 128,-1,36
 369 401 369 401 418 419 c 1,37,-1
 416 419 l 1,38,39
 476 445 476 445 502 472.5 c 128,-1,40
 528 500 528 500 535 532 c 0,41,42
 541 559 541 559 534.5 580 c 128,-1,43
 528 601 528 601 512.5 615 c 128,-1,44
 497 629 497 629 474.5 636.5 c 128,-1,45
 452 644 452 644 427 644 c 2,46,-1
 341 644 l 2,47,48
 300 644 300 644 257 623.5 c 128,-1,49
 214 603 214 603 182 577 c 1,50,-1
 155 668 l 1,12,13
EndSplineSet
EndChar
StartChar: at
Encoding: 64 64 33
Width: 975
VWidth: 1507
Flags: W
HStem: -26 83<283.877 653.658> 137 82<406.956 522.439 727.688 803.609> 508 81<480.734 633.498> 674 84<445.438 826.608>
Fore
647 443 m 2,0,1
 650 470 650 470 634 489 c 128,-1,2
 618 508 618 508 592 508 c 2,3,-1
 541 508 l 2,4,5
 500 508 500 508 466.5 478.5 c 128,-1,6
 433 449 433 449 424 405 c 2,7,-1
 398 289 l 2,8,9
 392 259 392 259 406.5 239 c 128,-1,10
 421 219 421 219 448 219 c 2,11,-1
 500 219 l 2,12,13
 541 219 541 219 575 246 c 128,-1,14
 609 273 609 273 620 315 c 2,15,-1
 647 443 l 2,0,1
779 44 m 1,16,17
 727 11 727 11 669.5 -7.5 c 128,-1,18
 612 -26 612 -26 555 -26 c 2,19,-1
 335 -26 l 2,20,21
 276 -26 276 -26 228.5 -5.5 c 128,-1,22
 181 15 181 15 151 49.5 c 128,-1,23
 121 84 121 84 109.5 132.5 c 128,-1,24
 98 181 98 181 110 235 c 2,25,-1
 154 443 l 2,26,27
 167 510 167 510 206.5 567 c 128,-1,28
 246 624 246 624 300 667 c 128,-1,29
 354 710 354 710 420.5 734 c 128,-1,30
 487 758 487 758 556 758 c 2,31,-1
 775 758 l 2,32,33
 834 758 834 758 881.5 738 c 128,-1,34
 929 718 929 718 959 681.5 c 128,-1,35
 989 645 989 645 1000 597 c 128,-1,36
 1011 549 1011 549 999 494 c 2,37,-1
 978 392 l 2,38,39
 963 323 963 323 940.5 275.5 c 128,-1,40
 918 228 918 228 888 198.5 c 128,-1,41
 858 169 858 169 821 155.5 c 128,-1,42
 784 142 784 142 742 142 c 0,43,44
 704 142 704 142 678.5 156 c 128,-1,45
 653 170 653 170 639 188 c 1,46,47
 603 160 603 160 559.5 148.5 c 128,-1,48
 516 137 516 137 484 137 c 2,49,-1
 431 137 l 2,50,51
 360 137 360 137 321 181 c 128,-1,52
 282 225 282 225 295 289 c 2,53,-1
 321 405 l 2,54,55
 330 445 330 445 352.5 479 c 128,-1,56
 375 513 375 513 407.5 537.5 c 128,-1,57
 440 562 440 562 479.5 575.5 c 128,-1,58
 519 589 519 589 559 589 c 2,59,-1
 610 589 l 2,60,61
 650 589 650 589 675 579 c 1,62,-1
 678 589 l 1,63,-1
 778 589 l 1,64,-1
 719 317 l 2,65,66
 711 279 711 279 721 252.5 c 128,-1,67
 731 226 731 226 760 226 c 0,68,69
 805 226 805 226 832 275 c 128,-1,70
 859 324 859 324 874 393 c 2,71,-1
 897 500 l 2,72,73
 904 537 904 537 898 568.5 c 128,-1,74
 892 600 892 600 874 623.5 c 128,-1,75
 856 647 856 647 827.5 660.5 c 128,-1,76
 799 674 799 674 763 674 c 2,77,-1
 537 674 l 2,78,79
 490 674 490 674 444 656.5 c 128,-1,80
 398 639 398 639 360.5 608 c 128,-1,81
 323 577 323 577 295.5 535.5 c 128,-1,82
 268 494 268 494 258 446 c 2,83,-1
 213 231 l 2,84,85
 205 194 205 194 212 162.5 c 128,-1,86
 219 131 219 131 237 107.5 c 128,-1,87
 255 84 255 84 283 70.5 c 128,-1,88
 311 57 311 57 347 57 c 2,89,-1
 576 57 l 2,90,91
 612 57 612 57 655 73 c 128,-1,92
 698 89 698 89 742 118 c 1,93,-1
 779 44 l 1,16,17
EndSplineSet
EndChar
StartChar: A
Encoding: 65 65 34
Width: 850
VWidth: 1507
Flags: W
HStem: 0 21G<24 160.5 691.1 817> 200 83<332 624> 720 20G<508.541 546>
Fore
522 740 m 1,0,1
 570 740 570 740 604 724 c 128,-1,2
 638 708 638 708 647 678 c 2,3,-1
 817 0 l 1,4,-1
 696 0 l 1,5,-1
 647 200 l 1,6,-1
 279 200 l 1,7,8
 246 152 246 152 211 100 c 128,-1,9
 176 48 176 48 145 0 c 1,10,-1
 24 0 l 1,11,-1
 522 740 l 1,0,1
332 283 m 1,12,-1
 624 283 l 1,13,14
 614 326 614 326 604.5 364 c 128,-1,15
 595 402 595 402 585.5 439 c 128,-1,16
 576 476 576 476 567 515.5 c 128,-1,17
 558 555 558 555 547 598 c 1,18,-1
 332 283 l 1,12,-1
EndSplineSet
EndChar
StartChar: B
Encoding: 66 66 35
Width: 771
VWidth: 1507
Flags: W
HStem: 0 84<187 550.993> 344 83<261 554.091> 654 83<309 599.426>
Fore
531 84 m 2,0,1
 550 84 550 84 570.5 96.5 c 128,-1,2
 591 109 591 109 609 128.5 c 128,-1,3
 627 148 627 148 640 171 c 128,-1,4
 653 194 653 194 657 216 c 256,5,6
 662 237 662 237 659 259.5 c 128,-1,7
 656 282 656 282 646 301 c 128,-1,8
 636 320 636 320 621 332 c 128,-1,9
 606 344 606 344 586 344 c 2,10,-1
 243 344 l 1,11,-1
 187 84 l 1,12,-1
 531 84 l 2,0,1
309 654 m 1,13,-1
 261 427 l 1,14,-1
 531 427 l 2,15,16
 550 427 550 427 570.5 436.5 c 128,-1,17
 591 446 591 446 607.5 462 c 128,-1,18
 624 478 624 478 635.5 497.5 c 128,-1,19
 647 517 647 517 651 538 c 256,20,21
 656 559 656 559 653 579.5 c 128,-1,22
 650 600 650 600 640 616.5 c 128,-1,23
 630 633 630 633 614 643.5 c 128,-1,24
 598 654 598 654 579 654 c 2,25,-1
 309 654 l 1,13,-1
216 737 m 1,26,-1
 595 737 l 2,27,28
 641 737 641 737 676 720.5 c 128,-1,29
 711 704 711 704 734 677 c 128,-1,30
 757 650 757 650 766 613.5 c 128,-1,31
 775 577 775 577 766 538 c 0,32,33
 758 503 758 503 737 471.5 c 128,-1,34
 716 440 716 440 686 412 c 1,35,36
 734 384 734 384 759 329 c 128,-1,37
 784 274 784 274 772 216 c 0,38,39
 763 175 763 175 738 136.5 c 128,-1,40
 713 98 713 98 678.5 68 c 128,-1,41
 644 38 644 38 601 19 c 128,-1,42
 558 0 558 0 514 0 c 2,43,-1
 146 0 l 2,44,45
 112 0 112 0 90.5 23.5 c 128,-1,46
 69 47 69 47 75 77 c 2,47,-1
 216 737 l 1,26,-1
EndSplineSet
EndChar
StartChar: C
Encoding: 67 67 36
Width: 762
VWidth: 1507
Flags: W
HStem: -15 84<265.752 488.719> 669 85<419.797 642.217>
VStem: 657 112<192.075 277> 701 111<500 532.304 532.304 550.638 550.638 564.5 601 617.764>
Fore
701 500 m 1,0,1
 708 534 708 534 703 564.5 c 128,-1,2
 698 595 698 595 683 618.5 c 128,-1,3
 668 642 668 642 643 655.5 c 128,-1,4
 618 669 618 669 586 669 c 2,5,-1
 500 669 l 2,6,7
 460 669 460 669 418.5 649.5 c 128,-1,8
 377 630 377 630 343 598.5 c 128,-1,9
 309 567 309 567 284 526 c 128,-1,10
 259 485 259 485 250 442 c 2,11,-1
 208 244 l 2,12,13
 200 213 200 213 205.5 181 c 128,-1,14
 211 149 211 149 226 124 c 128,-1,15
 241 99 241 99 265 84 c 128,-1,16
 289 69 289 69 320 69 c 2,17,-1
 409 69 l 2,18,19
 449 69 449 69 490 85 c 128,-1,20
 531 101 531 101 564.5 129.5 c 128,-1,21
 598 158 598 158 623 196 c 128,-1,22
 648 234 648 234 657 277 c 1,23,-1
 769 277 l 1,24,25
 755 213 755 213 718 158.5 c 128,-1,26
 681 104 681 104 630 65.5 c 128,-1,27
 579 27 579 27 517 6 c 128,-1,28
 455 -15 455 -15 390 -15 c 2,29,-1
 301 -15 l 2,30,31
 247 -15 247 -15 204 6 c 128,-1,32
 161 27 161 27 133.5 63 c 128,-1,33
 106 99 106 99 95 146 c 128,-1,34
 84 193 84 193 95 244 c 2,35,-1
 137 442 l 2,36,37
 151 503 151 503 187 560 c 128,-1,38
 223 617 223 617 275 659.5 c 128,-1,39
 327 702 327 702 390.5 728 c 128,-1,40
 454 754 454 754 519 754 c 2,41,-1
 604 754 l 2,42,43
 660 754 660 754 704 734.5 c 128,-1,44
 748 715 748 715 775.5 681 c 128,-1,45
 803 647 803 647 813 601 c 128,-1,46
 823 555 823 555 812 500 c 1,47,-1
 701 500 l 1,0,1
EndSplineSet
EndChar
StartChar: D
Encoding: 68 68 37
Width: 794
VWidth: 1507
Flags: W
HStem: 0 84<187 507.203> 654 83<309 656.702>
Fore
146 0 m 2,0,1
 112 0 112 0 90.5 23.5 c 128,-1,2
 69 47 69 47 75 77 c 2,3,-1
 216 737 l 1,4,-1
 617 737 l 2,5,6
 672 737 672 737 716.5 717.5 c 128,-1,7
 761 698 761 698 790 665 c 128,-1,8
 819 632 819 632 830 587.5 c 128,-1,9
 841 543 841 543 831 491 c 2,10,-1
 788 297 l 2,11,12
 775 235 775 235 738.5 181 c 128,-1,13
 702 127 702 127 650 87 c 128,-1,14
 598 47 598 47 536.5 23.5 c 128,-1,15
 475 0 475 0 410 0 c 2,16,-1
 146 0 l 2,0,1
187 84 m 1,17,-1
 427 84 l 2,18,19
 467 84 467 84 508.5 101 c 128,-1,20
 550 118 550 118 584 146.5 c 128,-1,21
 618 175 618 175 643 214 c 128,-1,22
 668 253 668 253 677 297 c 2,23,-1
 719 491 l 2,24,25
 725 525 725 525 720 554 c 128,-1,26
 715 583 715 583 699 606 c 128,-1,27
 683 629 683 629 657.5 641.5 c 128,-1,28
 632 654 632 654 600 654 c 2,29,-1
 309 654 l 1,30,-1
 187 84 l 1,17,-1
EndSplineSet
EndChar
StartChar: E
Encoding: 69 69 38
Width: 762
VWidth: 1507
Flags: W
HStem: 0 84<187 693> 344 83<261 690> 654 83<309 832>
Fore
146 0 m 2,0,1
 112 0 112 0 90.5 23.5 c 128,-1,2
 69 47 69 47 75 77 c 2,3,-1
 216 737 l 1,4,-1
 849 737 l 1,5,-1
 832 654 l 1,6,-1
 309 654 l 1,7,-1
 261 427 l 1,8,-1
 708 427 l 1,9,-1
 690 344 l 1,10,-1
 243 344 l 1,11,-1
 187 84 l 1,12,-1
 710 84 l 1,13,-1
 693 0 l 1,14,-1
 146 0 l 2,0,1
EndSplineSet
EndChar
StartChar: F
Encoding: 70 70 39
Width: 762
VWidth: 1507
Flags: W
HStem: 0 21G<60 174.244> 344 83<261 690> 654 83<309 832>
Fore
243 344 m 1,0,-1
 170 0 l 1,1,-1
 60 0 l 1,2,-1
 216 737 l 1,3,-1
 849 737 l 1,4,-1
 832 654 l 1,5,-1
 309 654 l 1,6,-1
 261 427 l 1,7,-1
 708 427 l 1,8,-1
 690 344 l 1,9,-1
 243 344 l 1,0,-1
EndSplineSet
EndChar
StartChar: G
Encoding: 71 71 40
Width: 762
VWidth: 1507
Flags: W
HStem: -15 84<265.752 485.781> 253 85<448 651> 669 85<419.797 642.217>
VStem: 701 111<500 532.304 532.304 550.638 550.638 564.5 601 617.764>
Fore
766 265 m 2,0,1
 752 203 752 203 716 151 c 128,-1,2
 680 99 680 99 629.5 62.5 c 128,-1,3
 579 26 579 26 517 5.5 c 128,-1,4
 455 -15 455 -15 390 -15 c 2,5,-1
 301 -15 l 2,6,7
 247 -15 247 -15 204 6 c 128,-1,8
 161 27 161 27 133.5 63 c 128,-1,9
 106 99 106 99 95 146 c 128,-1,10
 84 193 84 193 95 244 c 2,11,-1
 137 442 l 2,12,13
 151 503 151 503 187 560 c 128,-1,14
 223 617 223 617 275 659.5 c 128,-1,15
 327 702 327 702 390.5 728 c 128,-1,16
 454 754 454 754 519 754 c 2,17,-1
 604 754 l 2,18,19
 660 754 660 754 704 734.5 c 128,-1,20
 748 715 748 715 775.5 681 c 128,-1,21
 803 647 803 647 813 601 c 128,-1,22
 823 555 823 555 812 500 c 1,23,-1
 701 500 l 1,24,25
 708 534 708 534 703 564.5 c 128,-1,26
 698 595 698 595 683 618.5 c 128,-1,27
 668 642 668 642 643 655.5 c 128,-1,28
 618 669 618 669 586 669 c 2,29,-1
 500 669 l 2,30,31
 460 669 460 669 418.5 649.5 c 128,-1,32
 377 630 377 630 343 598.5 c 128,-1,33
 309 567 309 567 284 526 c 128,-1,34
 259 485 259 485 250 442 c 2,35,-1
 208 244 l 2,36,37
 200 213 200 213 205.5 181 c 128,-1,38
 211 149 211 149 226 124 c 128,-1,39
 241 99 241 99 265 84 c 128,-1,40
 289 69 289 69 320 69 c 2,41,-1
 409 69 l 2,42,43
 448 69 448 69 487 82.5 c 128,-1,44
 526 96 526 96 558.5 121 c 128,-1,45
 591 146 591 146 616 180 c 128,-1,46
 641 214 641 214 651 253 c 1,47,-1
 430 253 l 1,48,-1
 448 338 l 1,49,-1
 781 338 l 1,50,-1
 766 265 l 2,0,1
EndSplineSet
EndChar
StartChar: H
Encoding: 72 72 41
Width: 762
VWidth: 1507
Flags: W
HStem: 0 21G<60 174.244 583 697.233> 344 83<261 656> 717 20G<211.767 326 734.806 849>
Fore
656 344 m 1,0,-1
 243 344 l 1,1,-1
 170 0 l 1,2,-1
 60 0 l 1,3,-1
 216 737 l 1,4,-1
 326 737 l 1,5,-1
 261 427 l 1,6,-1
 674 427 l 1,7,-1
 739 737 l 1,8,-1
 849 737 l 1,9,-1
 693 0 l 1,10,-1
 583 0 l 1,11,-1
 656 344 l 1,0,-1
EndSplineSet
EndChar
StartChar: I
Encoding: 73 73 42
Width: 227
VWidth: 1507
Flags: W
HStem: 0 21G<57 171.233> 717 20G<208.767 323>
VStem: 57 266<0 737 1.53064e-18 1.53064e-18>
Fore
213 737 m 1,0,-1
 323 737 l 1,1,-1
 167 0 l 1,2,-1
 57 0 l 1,3,-1
 213 737 l 1,0,-1
EndSplineSet
EndChar
StartChar: J
Encoding: 74 74 43
Width: 666
VWidth: 1507
Flags: W
HStem: -15 92<238.804 388.698> 717 20G<639.763 755>
VStem: 73.5 111<132.783 154.5 189.5 205.181 205.181 222.727 222.727 256>
Fore
187 256 m 1,0,1
 179 222 179 222 184.5 189.5 c 128,-1,2
 190 157 190 157 204.5 132 c 128,-1,3
 219 107 219 107 243 92 c 128,-1,4
 267 77 267 77 298 77 c 0,5,6
 339 77 339 77 380 91.5 c 128,-1,7
 421 106 421 106 454.5 130.5 c 128,-1,8
 488 155 488 155 511.5 190 c 128,-1,9
 535 225 535 225 544 265 c 2,10,-1
 644 737 l 1,11,-1
 755 737 l 1,12,-1
 656 265 l 2,13,14
 642 203 642 203 606 151 c 128,-1,15
 570 99 570 99 519.5 62.5 c 128,-1,16
 469 26 469 26 406.5 5.5 c 128,-1,17
 344 -15 344 -15 279 -15 c 0,18,19
 225 -15 225 -15 182 7.5 c 128,-1,20
 139 30 139 30 111.5 68 c 128,-1,21
 84 106 84 106 73.5 154.5 c 128,-1,22
 63 203 63 203 75 256 c 1,23,-1
 187 256 l 1,0,1
EndSplineSet
EndChar
StartChar: K
Encoding: 75 75 44
Width: 731
VWidth: 1507
Flags: W
HStem: 0 21G<60 174.211 545.623 707> 717 20G<211.767 326 659 865>
Fore
562 0 m 1,0,-1
 345 265 l 2,1,2
 320 291 320 291 289.5 305.5 c 128,-1,3
 259 320 259 320 238 323 c 1,4,-1
 170 0 l 1,5,-1
 60 0 l 1,6,-1
 216 737 l 1,7,-1
 326 737 l 1,8,-1
 265 449 l 1,9,10
 375 522 375 522 489 594 c 128,-1,11
 603 666 603 666 715 737 c 1,12,-1
 865 737 l 1,13,-1
 338 392 l 1,14,15
 383 381 383 381 414.5 351 c 128,-1,16
 446 321 446 321 475 291 c 0,17,18
 476 289 476 289 484.5 278 c 128,-1,19
 493 267 493 267 518 235 c 128,-1,20
 543 203 543 203 587.5 147.5 c 128,-1,21
 632 92 632 92 707 0 c 1,22,-1
 562 0 l 1,0,-1
EndSplineSet
EndChar
StartChar: L
Encoding: 76 76 45
Width: 669
VWidth: 1507
Flags: W
HStem: 0 84<187 632> 717 20G<211.727 326>
Fore
146 0 m 2,0,1
 112 0 112 0 90.5 23.5 c 128,-1,2
 69 47 69 47 75 77 c 2,3,-1
 216 737 l 1,4,-1
 326 737 l 1,5,-1
 187 84 l 1,6,-1
 648 84 l 1,7,-1
 632 0 l 1,8,-1
 146 0 l 2,0,1
EndSplineSet
EndChar
StartChar: M
Encoding: 77 77 46
Width: 948
VWidth: 1507
Flags: W
HStem: 0 21G<62 176.2 766 880.243> 720 20G<214.757 330.037 913.593 1033>
Fore
463 -35 m 1,0,-1
 277 500 l 1,1,-1
 172 0 l 1,2,-1
 62 0 l 1,3,-1
 219 740 l 1,4,-1
 323 740 l 1,5,-1
 513 200 l 1,6,-1
 929 740 l 1,7,-1
 1033 740 l 1,8,-1
 876 0 l 1,9,-1
 766 0 l 1,10,-1
 871 497 l 1,11,-1
 463 -35 l 1,0,-1
EndSplineSet
EndChar
StartChar: N
Encoding: 78 78 47
Width: 794
VWidth: 1507
Flags: W
HStem: 0 21G<60 174.242 611.093 731.216> 720 20G<212.757 332.729 764.758 883>
Fore
650 179 m 1,0,-1
 769 740 l 1,1,-1
 883 740 l 1,2,-1
 727 0 l 1,3,-1
 623 0 l 1,4,-1
 289 561 l 1,5,-1
 170 0 l 1,6,-1
 60 0 l 1,7,-1
 217 740 l 1,8,-1
 321 740 l 1,9,-1
 650 179 l 1,0,-1
EndSplineSet
EndChar
StartChar: O
Encoding: 79 79 48
Width: 764
VWidth: 1507
Flags: W
HStem: -15 84<267.752 490.234> 669 85<422.797 644.248>
Fore
773 297 m 2,0,1
 760 235 760 235 723 178.5 c 128,-1,2
 686 122 686 122 634 79 c 128,-1,3
 582 36 582 36 519.5 10.5 c 128,-1,4
 457 -15 457 -15 392 -15 c 2,5,-1
 304 -15 l 2,6,7
 250 -15 250 -15 206.5 6 c 128,-1,8
 163 27 163 27 135 63 c 128,-1,9
 107 99 107 99 96.5 146.5 c 128,-1,10
 86 194 86 194 96 246 c 2,11,-1
 139 440 l 2,12,13
 152 503 152 503 189 560 c 128,-1,14
 226 617 226 617 278 659.5 c 128,-1,15
 330 702 330 702 393.5 728 c 128,-1,16
 457 754 457 754 522 754 c 2,17,-1
 607 754 l 2,18,19
 663 754 663 754 706 732 c 128,-1,20
 749 710 749 710 777 674 c 128,-1,21
 805 638 805 638 815.5 590.5 c 128,-1,22
 826 543 826 543 816 491 c 2,23,-1
 773 297 l 2,0,1
704 491 m 2,24,25
 710 525 710 525 705.5 556.5 c 128,-1,26
 701 588 701 588 685 613 c 128,-1,27
 669 638 669 638 645 653.5 c 128,-1,28
 621 669 621 669 589 669 c 2,29,-1
 503 669 l 2,30,31
 463 669 463 669 421.5 649.5 c 128,-1,32
 380 630 380 630 345.5 598.5 c 128,-1,33
 311 567 311 567 286 525.5 c 128,-1,34
 261 484 261 484 252 440 c 2,35,-1
 210 246 l 2,36,37
 202 214 202 214 207.5 182.5 c 128,-1,38
 213 151 213 151 228 126 c 128,-1,39
 243 101 243 101 267 85 c 128,-1,40
 291 69 291 69 323 69 c 2,41,-1
 410 69 l 2,42,43
 451 69 451 69 491.5 88 c 128,-1,44
 532 107 532 107 567.5 138.5 c 128,-1,45
 603 170 603 170 628 211.5 c 128,-1,46
 653 253 653 253 662 297 c 2,47,-1
 704 491 l 2,24,25
EndSplineSet
EndChar
StartChar: P
Encoding: 80 80 49
Width: 732
VWidth: 1507
Flags: W
HStem: 0 21G<60 174.244> 344 83<261 636.372> 654 83<309 673.627>
Fore
216 737 m 1,0,-1
 635 737 l 2,1,2
 680 737 680 737 715.5 721 c 128,-1,3
 751 705 751 705 774 678 c 128,-1,4
 797 651 797 651 806.5 615 c 128,-1,5
 816 579 816 579 806 538 c 256,6,7
 797 497 797 497 773 461 c 128,-1,8
 749 425 749 425 715 399.5 c 128,-1,9
 681 374 681 374 639 359 c 128,-1,10
 597 344 597 344 552 344 c 2,11,-1
 243 344 l 1,12,-1
 170 0 l 1,13,-1
 60 0 l 1,14,-1
 216 737 l 1,0,-1
309 654 m 1,15,-1
 261 427 l 1,16,-1
 570 427 l 2,17,18
 614 427 614 427 650.5 460 c 128,-1,19
 687 493 687 493 696 538 c 0,20,21
 707 583 707 583 684.5 618.5 c 128,-1,22
 662 654 662 654 618 654 c 2,23,-1
 309 654 l 1,15,-1
EndSplineSet
EndChar
StartChar: Q
Encoding: 81 81 50
Width: 762
VWidth: 1507
Flags: W
HStem: -15 84<265.752 491.921> 669 85<420.797 643.248>
Fore
588 45 m 1,0,1
 544 17 544 17 493.5 1 c 128,-1,2
 443 -15 443 -15 390 -15 c 2,3,-1
 303 -15 l 2,4,5
 249 -15 249 -15 205 6 c 128,-1,6
 161 27 161 27 133.5 63 c 128,-1,7
 106 99 106 99 95 146.5 c 128,-1,8
 84 194 84 194 95 246 c 2,9,-1
 137 440 l 2,10,11
 151 503 151 503 188 560 c 128,-1,12
 225 617 225 617 277 659.5 c 128,-1,13
 329 702 329 702 392 728 c 128,-1,14
 455 754 455 754 522 754 c 2,15,-1
 606 754 l 2,16,17
 662 754 662 754 705 732 c 128,-1,18
 748 710 748 710 775.5 674 c 128,-1,19
 803 638 803 638 814 590.5 c 128,-1,20
 825 543 825 543 814 491 c 2,21,-1
 772 297 l 2,22,23
 751 200 751 200 674 116 c 1,24,25
 686 99 686 99 701 80.5 c 128,-1,26
 716 62 716 62 728 45 c 1,27,-1
 639 -24 l 1,28,-1
 588 45 l 1,0,1
702 491 m 2,29,30
 708 525 708 525 703.5 556.5 c 128,-1,31
 699 588 699 588 683.5 613 c 128,-1,32
 668 638 668 638 644 653.5 c 128,-1,33
 620 669 620 669 588 669 c 2,34,-1
 503 669 l 2,35,36
 461 669 461 669 419.5 649.5 c 128,-1,37
 378 630 378 630 343.5 598.5 c 128,-1,38
 309 567 309 567 284 525.5 c 128,-1,39
 259 484 259 484 250 440 c 2,40,-1
 208 246 l 2,41,42
 200 214 200 214 205.5 182.5 c 128,-1,43
 211 151 211 151 226 126 c 128,-1,44
 241 101 241 101 265 85 c 128,-1,45
 289 69 289 69 321 69 c 2,46,-1
 409 69 l 2,47,48
 467 69 467 69 531 112 c 1,49,-1
 445 222 l 1,50,-1
 535 291 l 1,51,-1
 614 191 l 1,52,53
 648 240 648 240 660 297 c 2,54,-1
 702 491 l 2,29,30
EndSplineSet
EndChar
StartChar: R
Encoding: 82 82 51
Width: 746
VWidth: 1507
Flags: W
HStem: 0 21G<60 176.186 597.68 734> 344 83<262 446.563> 654 83<311 673.627>
Fore
216 737 m 1,0,-1
 635 737 l 2,1,2
 680 737 680 737 715.5 721 c 128,-1,3
 751 705 751 705 775 678 c 128,-1,4
 799 651 799 651 808 615 c 128,-1,5
 817 579 817 579 808 538 c 256,6,7
 799 497 799 497 776.5 463.5 c 128,-1,8
 754 430 754 430 722 404 c 128,-1,9
 690 378 690 378 651 362.5 c 128,-1,10
 612 347 612 347 570 344 c 1,11,12
 574 336 574 336 580 326.5 c 128,-1,13
 586 317 586 317 591 304 c 2,14,-1
 734 0 l 1,15,-1
 607 0 l 1,16,-1
 470 294 l 1,17,-1
 472 292 l 1,18,19
 461 311 461 311 447 327.5 c 128,-1,20
 433 344 433 344 421 344 c 2,21,-1
 244 344 l 1,22,-1
 172 0 l 1,23,-1
 60 0 l 1,24,-1
 216 737 l 1,0,-1
311 654 m 1,25,-1
 262 427 l 1,26,-1
 570 427 l 2,27,28
 614 427 614 427 650.5 460 c 128,-1,29
 687 493 687 493 696 538 c 0,30,31
 707 583 707 583 684.5 618.5 c 128,-1,32
 662 654 662 654 618 654 c 2,33,-1
 311 654 l 1,25,-1
EndSplineSet
EndChar
StartChar: S
Encoding: 83 83 52
Width: 826
VWidth: 1507
Flags: W
HStem: -15 84<272.815 529.811> 672 83<457.287 667.477>
VStem: 95.5 111<143 179.5 179.5 194.877 194.877 213.181 213.181 247>
Fore
208 247 m 1,0,1
 200 211 200 211 206.5 179.5 c 128,-1,2
 213 148 213 148 229.5 123 c 128,-1,3
 246 98 246 98 272 83.5 c 128,-1,4
 298 69 298 69 333 69 c 2,5,-1
 490 69 l 2,6,7
 528 69 528 69 564 81 c 128,-1,8
 600 93 600 93 629.5 114.5 c 128,-1,9
 659 136 659 136 679 163 c 128,-1,10
 699 190 699 190 707 220 c 0,11,12
 710 235 710 235 710 254 c 128,-1,13
 710 273 710 273 702.5 291 c 128,-1,14
 695 309 695 309 679 323.5 c 128,-1,15
 663 338 663 338 635 344 c 2,16,-1
 332 380 l 2,17,18
 268 390 268 390 237.5 412 c 128,-1,19
 207 434 207 434 195.5 459 c 128,-1,20
 184 484 184 484 186 509.5 c 128,-1,21
 188 535 188 535 193 555 c 0,22,23
 203 609 203 609 240 647.5 c 128,-1,24
 277 686 277 686 324 709.5 c 128,-1,25
 371 733 371 733 418.5 744 c 128,-1,26
 466 755 466 755 499 755 c 2,27,-1
 657 755 l 2,28,29
 707 755 707 755 747 738.5 c 128,-1,30
 787 722 787 722 814 692 c 128,-1,31
 841 662 841 662 851 619.5 c 128,-1,32
 861 577 861 577 850 525 c 1,33,-1
 739 525 l 1,34,35
 745 555 745 555 740.5 582 c 128,-1,36
 736 609 736 609 722 629.5 c 128,-1,37
 708 650 708 650 687 661 c 128,-1,38
 666 672 666 672 639 672 c 2,39,-1
 481 672 l 2,40,41
 463 672 463 672 435 664.5 c 128,-1,42
 407 657 407 657 380 642 c 128,-1,43
 353 627 353 627 332 605 c 128,-1,44
 311 583 311 583 304 555 c 0,45,46
 301 546 301 546 301 533 c 128,-1,47
 301 520 301 520 307.5 508 c 128,-1,48
 314 496 314 496 328 486 c 128,-1,49
 342 476 342 476 369 472 c 2,50,-1
 668 433 l 2,51,52
 731 424 731 424 764 399 c 128,-1,53
 797 374 797 374 811 344 c 128,-1,54
 825 314 825 314 824 280.5 c 128,-1,55
 823 247 823 247 817 220 c 0,56,57
 806 170 806 170 774 127 c 128,-1,58
 742 84 742 84 696 52.5 c 128,-1,59
 650 21 650 21 592 3 c 128,-1,60
 534 -15 534 -15 472 -15 c 2,61,-1
 315 -15 l 2,62,63
 258 -15 258 -15 212 5.5 c 128,-1,64
 166 26 166 26 136.5 60.5 c 128,-1,65
 107 95 107 95 95.5 143 c 128,-1,66
 84 191 84 191 96 247 c 1,67,-1
 208 247 l 1,0,1
EndSplineSet
EndChar
StartChar: T
Encoding: 84 84 53
Width: 637
VWidth: 1507
Flags: W
HStem: 0 21G<261 376.251> 654 83<184 399 511 740>
Fore
399 654 m 1,0,-1
 167 654 l 1,1,-1
 184 737 l 1,2,-1
 757 737 l 1,3,-1
 740 654 l 1,4,-1
 511 654 l 1,5,-1
 372 0 l 1,6,-1
 261 0 l 1,7,-1
 399 654 l 1,0,-1
EndSplineSet
EndChar
StartChar: U
Encoding: 85 85 54
Width: 779
VWidth: 1507
Flags: W
HStem: -15 84<274.267 497.203> 717 20G<202.764 320 758.727 873>
Fore
320 737 m 1,0,-1
 216 246 l 2,1,2
 208 214 208 214 213.5 182.5 c 128,-1,3
 219 151 219 151 234 126 c 128,-1,4
 249 101 249 101 273.5 85 c 128,-1,5
 298 69 298 69 330 69 c 2,6,-1
 416 69 l 2,7,8
 457 69 457 69 498.5 88 c 128,-1,9
 540 107 540 107 575 138.5 c 128,-1,10
 610 170 610 170 635 211.5 c 128,-1,11
 660 253 660 253 669 297 c 2,12,-1
 763 737 l 1,13,-1
 873 737 l 1,14,-1
 779 297 l 2,15,16
 766 235 766 235 729 178.5 c 128,-1,17
 692 122 692 122 640 79 c 128,-1,18
 588 36 588 36 525.5 10.5 c 128,-1,19
 463 -15 463 -15 398 -15 c 2,20,-1
 312 -15 l 2,21,22
 256 -15 256 -15 212.5 6 c 128,-1,23
 169 27 169 27 141 63 c 128,-1,24
 113 99 113 99 102.5 146.5 c 128,-1,25
 92 194 92 194 103 246 c 2,26,-1
 207 737 l 1,27,-1
 320 737 l 1,0,-1
EndSplineSet
EndChar
StartChar: V
Encoding: 86 86 55
Width: 768
VWidth: 1507
Flags: W
HStem: -8 21G<400.5 445.295> 717 20G<181 300.618 762.605 891>
Fore
775 737 m 1,0,-1
 891 737 l 1,1,-1
 433 -8 l 1,2,3
 368 -8 368 -8 339.5 13.5 c 128,-1,4
 311 35 311 35 301 75 c 2,5,-1
 181 737 l 1,6,-1
 297 737 l 1,7,-1
 405 140 l 1,8,-1
 775 737 l 1,0,-1
EndSplineSet
EndChar
StartChar: W
Encoding: 87 87 56
Width: 1142
VWidth: 1507
Flags: W
HStem: -8 21G<375.5 418.804 714.859 748.5> 717 20<182 300.715 631.5 676 1100.5 1259>
Fore
409 -8 m 1,0,1
 342 -8 342 -8 312 13.5 c 128,-1,2
 282 35 282 35 271 75 c 2,3,-1
 182 737 l 1,4,-1
 298 737 l 1,5,-1
 377 155 l 1,6,7
 451 309 451 309 522.5 450.5 c 128,-1,8
 594 592 594 592 669 746 c 1,9,10
 683 746 683 746 700.5 744.5 c 128,-1,11
 718 743 718 743 734.5 738 c 128,-1,12
 751 733 751 733 763.5 721.5 c 128,-1,13
 776 710 776 710 779 692 c 2,14,-1
 816 155 l 1,15,16
 898 304 898 304 979 446.5 c 128,-1,17
 1060 589 1060 589 1141 737 c 1,18,-1
 1259 737 l 1,19,-1
 888 75 l 2,20,21
 861 35 861 35 821 13.5 c 128,-1,22
 781 -8 781 -8 716 -8 c 1,23,-1
 684 553 l 1,24,-1
 409 -8 l 1,0,1
EndSplineSet
EndChar
StartChar: X
Encoding: 88 88 57
Width: 753
VWidth: 1507
Flags: W
HStem: 0 21G<20 173.576 580.622 725> 717 20G<175 320.018 728.211 880>
Fore
154 0 m 1,0,-1
 20 0 l 1,1,-1
 381 368 l 1,2,3
 333 457 333 457 278 553.5 c 128,-1,4
 223 650 223 650 175 737 c 1,5,-1
 309 737 l 1,6,-1
 466 452 l 1,7,-1
 748 737 l 1,8,-1
 880 737 l 1,9,-1
 516 368 l 1,10,11
 567 280 567 280 621 183.5 c 128,-1,12
 675 87 675 87 725 0 c 1,13,-1
 592 0 l 1,14,-1
 431 283 l 1,15,-1
 154 0 l 1,0,-1
EndSplineSet
EndChar
StartChar: Y
Encoding: 89 89 58
Width: 734
VWidth: 1507
Flags: W
HStem: 0 21G<306 422.153> 717 20G<175 310.877 717.211 861>
Fore
418 0 m 1,0,-1
 306 0 l 1,1,-1
 383 366 l 1,2,-1
 175 737 l 1,3,-1
 300 737 l 1,4,-1
 455 452 l 1,5,-1
 737 737 l 1,6,-1
 861 737 l 1,7,-1
 494 366 l 1,8,-1
 418 0 l 1,0,-1
EndSplineSet
EndChar
StartChar: Z
Encoding: 90 90 59
Width: 759
VWidth: 1507
Flags: W
HStem: 0 84<241 695> 654 83<210 668>
Fore
193 654 m 1,0,-1
 210 737 l 1,1,-1
 886 737 l 1,2,-1
 241 84 l 1,3,-1
 711 84 l 1,4,-1
 695 0 l 1,5,-1
 20 0 l 1,6,-1
 668 654 l 1,7,-1
 193 654 l 1,0,-1
EndSplineSet
EndChar
StartChar: bracketleft
Encoding: 91 91 60
Width: 325
VWidth: 1507
Flags: W
HStem: -213 80<166.42 235> 736 80<350.158 436>
VStem: 27 425<-92 816 -92 744.109>
Fore
134 -87 m 2,0,1
 128 -113 128 -113 148.5 -123 c 128,-1,2
 169 -133 169 -133 193 -133 c 2,3,-1
 252 -133 l 1,4,-1
 235 -213 l 1,5,-1
 176 -213 l 2,6,7
 142 -213 142 -213 111.5 -206 c 128,-1,8
 81 -199 81 -199 60 -184.5 c 128,-1,9
 39 -170 39 -170 29.5 -147.5 c 128,-1,10
 20 -125 20 -125 27 -92 c 2,11,-1
 193 692 l 2,12,13
 199 725 199 725 218.5 748.5 c 128,-1,14
 238 772 238 772 265 787 c 128,-1,15
 292 802 292 802 325.5 809 c 128,-1,16
 359 816 359 816 393 816 c 2,17,-1
 452 816 l 1,18,-1
 436 736 l 1,19,-1
 377 736 l 2,20,21
 353 736 353 736 329.5 725.5 c 128,-1,22
 306 715 306 715 298 687 c 2,23,-1
 134 -87 l 2,0,1
EndSplineSet
EndChar
StartChar: bracketright
Encoding: 93 93 62
Width: 325
VWidth: 1507
Flags: W
HStem: -213 80<18 104.583> 736 80<219 286.576>
VStem: 2 425<-213 692 -213 -213>
Fore
318 687 m 2,0,1
 324 715 324 715 304.5 725.5 c 128,-1,2
 285 736 285 736 261 736 c 2,3,-1
 202 736 l 1,4,-1
 219 816 l 1,5,-1
 277 816 l 2,6,7
 312 816 312 816 342 809 c 128,-1,8
 372 802 372 802 393.5 787 c 128,-1,9
 415 772 415 772 424 748.5 c 128,-1,10
 433 725 433 725 427 692 c 2,11,-1
 261 -92 l 2,12,13
 253 -125 253 -125 233.5 -147.5 c 128,-1,14
 214 -170 214 -170 187 -184.5 c 128,-1,15
 160 -199 160 -199 127.5 -206 c 128,-1,16
 95 -213 95 -213 60 -213 c 2,17,-1
 2 -213 l 1,18,-1
 18 -133 l 1,19,-1
 77 -133 l 2,20,21
 101 -133 101 -133 124.5 -123 c 128,-1,22
 148 -113 148 -113 154 -87 c 2,23,-1
 318 687 l 2,0,1
EndSplineSet
EndChar
StartChar: asciicircum
Encoding: 94 94 63
Width: 737
VWidth: 1507
Flags: W
HStem: 369 450<262 532 532 532>
Fore
493 636 m 1,0,-1
 262 369 l 1,1,-1
 149 369 l 1,2,-1
 532 819 l 1,3,-1
 730 369 l 1,4,-1
 617 369 l 1,5,-1
 493 636 l 1,0,-1
EndSplineSet
EndChar
StartChar: underscore
Encoding: 95 95 64
Width: 586
VWidth: 1507
Flags: W
HStem: -136 83<-21 559>
Fore
-39 -136 m 1,0,-1
 -21 -53 l 1,1,-1
 577 -53 l 1,2,-1
 559 -136 l 1,3,-1
 -39 -136 l 1,0,-1
EndSplineSet
EndChar
StartChar: grave
Encoding: 96 96 65
Width: 360
VWidth: 1507
Flags: W
HStem: 570 190<291 356 291 291>
VStem: 226 193<618 711 711 711>
Fore
226 711 m 1,0,-1
 291 760 l 1,1,-1
 419 618 l 1,2,3
 395 600 l 0,4,5
 384 592 384 592 373.5 584 c 128,-1,6
 363 576 363 576 356 570 c 1,7,-1
 226 711 l 1,0,-1
EndSplineSet
EndChar
StartChar: a
Encoding: 97 97 66
Width: 577
VWidth: 1507
Flags: W
HStem: -8 83<195.44 310.861> 452 85<337.842 442.926>
Fore
421 38 m 1,0,1
 386 17 386 17 347 4.5 c 128,-1,2
 308 -8 308 -8 276 -8 c 2,3,-1
 214 -8 l 2,4,5
 173 -8 173 -8 144 7.5 c 128,-1,6
 115 23 115 23 97.5 47.5 c 128,-1,7
 80 72 80 72 74.5 106 c 128,-1,8
 69 140 69 140 77 176 c 2,9,-1
 107 315 l 2,10,11
 116 360 116 360 143 400 c 128,-1,12
 170 440 170 440 208 471 c 128,-1,13
 246 502 246 502 291 519.5 c 128,-1,14
 336 537 336 537 383 537 c 2,15,-1
 445 537 l 2,16,17
 475 537 475 537 490.5 524 c 128,-1,18
 506 511 506 511 519 502 c 1,19,-1
 525 529 l 1,20,-1
 636 529 l 1,21,-1
 523 -3 l 1,22,-1
 412 -3 l 1,23,-1
 421 38 l 1,0,1
485 342 m 2,24,25
 487 359 487 359 484 378.5 c 128,-1,26
 481 398 481 398 473.5 414.5 c 128,-1,27
 466 431 466 431 454 441.5 c 128,-1,28
 442 452 442 452 427 452 c 2,29,-1
 365 452 l 2,30,31
 341 452 341 452 316.5 441 c 128,-1,32
 292 430 292 430 272.5 410 c 128,-1,33
 253 390 253 390 239 366 c 128,-1,34
 225 342 225 342 219 315 c 2,35,-1
 188 176 l 2,36,37
 181 140 181 140 190.5 107.5 c 128,-1,38
 200 75 200 75 232 75 c 2,39,-1
 294 75 l 2,40,41
 318 75 318 75 344.5 86.5 c 128,-1,42
 371 98 371 98 393.5 116 c 128,-1,43
 416 134 416 134 432.5 158 c 128,-1,44
 449 182 449 182 457 208 c 2,45,-1
 485 342 l 2,24,25
EndSplineSet
Substitution2: "Single Substitution lookup 22 subtable" uni0E38
Substitution2: "Single Substitution lookup 22 subtable" uni0E38
EndChar
StartChar: b
Encoding: 98 98 67
Width: 578
VWidth: 1507
Flags: W
HStem: -8 83<214.931 345.218> 452 85<348.534 478.462>
Fore
200 730 m 1,0,-1
 312 730 l 1,1,-1
 262 494 l 1,2,3
 288 511 288 511 320.5 524 c 128,-1,4
 353 537 353 537 392 537 c 2,5,-1
 455 537 l 2,6,7
 496 537 496 537 527 521.5 c 128,-1,8
 558 506 558 506 577.5 480.5 c 128,-1,9
 597 455 597 455 603.5 422 c 128,-1,10
 610 389 610 389 603 353 c 2,11,-1
 573 213 l 2,12,13
 564 167 564 167 538.5 127 c 128,-1,14
 513 87 513 87 476 57 c 128,-1,15
 439 27 439 27 393.5 9.5 c 128,-1,16
 348 -8 348 -8 301 -8 c 2,17,-1
 240 -8 l 2,18,19
 211 -8 211 -8 193 0 c 128,-1,20
 175 8 175 8 161 18 c 1,21,-1
 158 0 l 1,22,-1
 47 0 l 1,23,-1
 200 730 l 1,0,-1
493 354 m 2,24,25
 500 389 500 389 485 420.5 c 128,-1,26
 470 452 470 452 437 452 c 2,27,-1
 374 452 l 2,28,29
 353 452 353 452 330.5 442.5 c 128,-1,30
 308 433 308 433 288 417 c 128,-1,31
 268 401 268 401 253 380.5 c 128,-1,32
 238 360 238 360 229 339 c 1,33,-1
 193 164 l 1,34,35
 191 133 191 133 209.5 104 c 128,-1,36
 228 75 228 75 258 75 c 2,37,-1
 320 75 l 2,38,39
 344 75 344 75 367 87 c 128,-1,40
 390 99 390 99 410 119 c 128,-1,41
 430 139 430 139 444 164.5 c 128,-1,42
 458 190 458 190 464 216 c 2,43,-1
 493 354 l 2,24,25
EndSplineSet
Substitution2: "Single Substitution lookup 22 subtable" uni0E39
Substitution2: "Single Substitution lookup 22 subtable" uni0E39
EndChar
StartChar: c
Encoding: 99 99 68
Width: 572
VWidth: 1507
Flags: W
HStem: -8 83<204.338 381.655> 452 85<337.842 471.371>
VStem: 455 112<134.579 203>
Fore
485 354 m 1,0,1
 494 393 494 393 477 422.5 c 128,-1,2
 460 452 460 452 425 452 c 2,3,-1
 365 452 l 2,4,5
 341 452 341 452 316.5 441 c 128,-1,6
 292 430 292 430 272.5 410 c 128,-1,7
 253 390 253 390 239 366 c 128,-1,8
 225 342 225 342 219 315 c 2,9,-1
 188 176 l 2,10,11
 181 140 181 140 197.5 107.5 c 128,-1,12
 214 75 214 75 249 75 c 2,13,-1
 311 75 l 2,14,15
 359 75 359 75 401 110.5 c 128,-1,16
 443 146 443 146 455 203 c 1,17,-1
 567 203 l 1,18,19
 556 155 556 155 529.5 116 c 128,-1,20
 503 77 503 77 466.5 50 c 128,-1,21
 430 23 430 23 384.5 7.5 c 128,-1,22
 339 -8 339 -8 292 -8 c 2,23,-1
 231 -8 l 2,24,25
 190 -8 190 -8 158.5 7.5 c 128,-1,26
 127 23 127 23 106.5 47.5 c 128,-1,27
 86 72 86 72 77.5 106 c 128,-1,28
 69 140 69 140 77 176 c 2,29,-1
 107 315 l 2,30,31
 116 360 116 360 143 400 c 128,-1,32
 170 440 170 440 208 471 c 128,-1,33
 246 502 246 502 291 519.5 c 128,-1,34
 336 537 336 537 383 537 c 2,35,-1
 443 537 l 2,36,37
 484 537 484 537 516.5 523.5 c 128,-1,38
 549 510 549 510 569 485.5 c 128,-1,39
 589 461 589 461 597.5 427 c 128,-1,40
 606 393 606 393 597 354 c 1,41,-1
 485 354 l 1,0,1
EndSplineSet
Substitution2: "Single Substitution lookup 22 subtable" uni0E3A
Substitution2: "Single Substitution lookup 22 subtable" uni0E3A
EndChar
StartChar: d
Encoding: 100 100 69
Width: 580
VWidth: 1507
Flags: W
HStem: -8 83<195.44 320.998> 452 85<337.842 468.177>
Fore
421 38 m 1,0,1
 393 21 393 21 354 6.5 c 128,-1,2
 315 -8 315 -8 276 -8 c 2,3,-1
 214 -8 l 2,4,5
 173 -8 173 -8 144 7.5 c 128,-1,6
 115 23 115 23 97.5 47.5 c 128,-1,7
 80 72 80 72 74.5 106 c 128,-1,8
 69 140 69 140 77 176 c 2,9,-1
 107 315 l 2,10,11
 116 360 116 360 143 400 c 128,-1,12
 170 440 170 440 208 471 c 128,-1,13
 246 502 246 502 291 519.5 c 128,-1,14
 336 537 336 537 383 537 c 2,15,-1
 445 537 l 2,16,17
 475 537 475 537 493 532.5 c 128,-1,18
 511 528 511 528 523 520 c 1,19,-1
 567 730 l 1,20,-1
 678 730 l 1,21,-1
 523 -3 l 1,22,-1
 412 -3 l 1,23,-1
 421 38 l 1,0,1
488 357 m 2,24,25
 491 392 491 392 474 422 c 128,-1,26
 457 452 457 452 427 452 c 2,27,-1
 365 452 l 2,28,29
 341 452 341 452 316.5 441 c 128,-1,30
 292 430 292 430 272.5 410 c 128,-1,31
 253 390 253 390 239 366 c 128,-1,32
 225 342 225 342 219 315 c 2,33,-1
 188 176 l 2,34,35
 181 140 181 140 190.5 107.5 c 128,-1,36
 200 75 200 75 232 75 c 2,37,-1
 294 75 l 2,38,39
 318 75 318 75 344.5 86.5 c 128,-1,40
 371 98 371 98 393.5 116 c 128,-1,41
 416 134 416 134 432.5 158 c 128,-1,42
 449 182 449 182 457 208 c 2,43,-1
 488 357 l 2,24,25
EndSplineSet
EndChar
StartChar: e
Encoding: 101 101 70
Width: 574
VWidth: 1507
Flags: W
HStem: -8 83<204.338 338.416> 264 75<223 484> 452 85<295.223 470.062>
Fore
188 176 m 2,0,1
 181 140 181 140 197.5 107.5 c 128,-1,2
 214 75 214 75 249 75 c 2,3,-1
 311 75 l 2,4,5
 335 75 335 75 358 85 c 128,-1,6
 381 95 381 95 401.5 113 c 128,-1,7
 422 131 422 131 436.5 156 c 128,-1,8
 451 181 451 181 457 210 c 1,9,-1
 568 210 l 1,10,11
 558 161 558 161 531.5 122 c 128,-1,12
 505 83 505 83 467.5 53.5 c 128,-1,13
 430 24 430 24 384.5 8 c 128,-1,14
 339 -8 339 -8 292 -8 c 2,15,-1
 231 -8 l 2,16,17
 190 -8 190 -8 158.5 7.5 c 128,-1,18
 127 23 127 23 106.5 47.5 c 128,-1,19
 86 72 86 72 77.5 106 c 128,-1,20
 69 140 69 140 77 176 c 2,21,-1
 107 315 l 2,22,23
 116 360 116 360 143 400 c 128,-1,24
 170 440 170 440 208 471 c 128,-1,25
 246 502 246 502 291 519.5 c 128,-1,26
 336 537 336 537 383 537 c 2,27,-1
 445 537 l 2,28,29
 485 537 485 537 517.5 521.5 c 128,-1,30
 550 506 550 506 570.5 480.5 c 128,-1,31
 591 455 591 455 598.5 422 c 128,-1,32
 606 389 606 389 598 353 c 2,33,-1
 580 264 l 1,34,-1
 208 264 l 1,35,-1
 188 176 l 2,0,1
365 452 m 2,36,37
 320 452 320 452 280 419 c 128,-1,38
 240 386 240 386 223 339 c 1,39,-1
 484 339 l 1,40,-1
 487 353 l 2,41,42
 494 387 494 387 477 419.5 c 128,-1,43
 460 452 460 452 427 452 c 2,44,-1
 365 452 l 2,36,37
EndSplineSet
EndChar
StartChar: f
Encoding: 102 102 71
Width: 354
VWidth: 1507
Flags: W
HStem: 0 21G<122 236.204> 452 77<133 217 344 424> 639 91<429.469 506>
VStem: 116 409<452 730 562 642>
Fore
217 452 m 1,0,-1
 116 452 l 1,1,-1
 133 529 l 1,2,-1
 234 529 l 1,3,4
 246 571 246 571 274.5 607.5 c 128,-1,5
 303 644 303 644 342 671 c 128,-1,6
 381 698 381 698 428 714 c 128,-1,7
 475 730 475 730 525 730 c 1,8,-1
 506 639 l 1,9,10
 452 639 452 639 406 606.5 c 128,-1,11
 360 574 360 574 344 529 c 1,12,-1
 440 529 l 1,13,-1
 424 452 l 1,14,-1
 327 452 l 1,15,-1
 232 0 l 1,16,-1
 122 0 l 1,17,-1
 217 452 l 1,0,-1
EndSplineSet
EndChar
StartChar: g
Encoding: 103 103 72
Width: 580
VWidth: 1507
Flags: W
HStem: -184 78<177.501 190 190 303.264> 29 84<212.817 340.8> 451 86<338.6 468.5>
Fore
427 66 m 1,0,1
 396 48 396 48 366 38.5 c 128,-1,2
 336 29 336 29 301 29 c 2,3,-1
 240 29 l 2,4,5
 199 29 199 29 166.5 44 c 128,-1,6
 134 59 134 59 113.5 84.5 c 128,-1,7
 93 110 93 110 85.5 144 c 128,-1,8
 78 178 78 178 86 214 c 2,9,-1
 107 315 l 2,10,11
 116 360 116 360 143 400 c 128,-1,12
 170 440 170 440 208 471 c 128,-1,13
 246 502 246 502 291 519.5 c 128,-1,14
 336 537 336 537 383 537 c 2,15,-1
 445 537 l 2,16,17
 470 537 470 537 489 531 c 128,-1,18
 508 525 508 525 522 514 c 1,19,-1
 525 529 l 1,20,-1
 636 529 l 1,21,-1
 525 3 l 2,22,23
 516 -36 516 -36 488 -70 c 128,-1,24
 460 -104 460 -104 420.5 -129 c 128,-1,25
 381 -154 381 -154 337.5 -169 c 128,-1,26
 294 -184 294 -184 253 -184 c 2,27,-1
 190 -184 l 2,28,29
 127 -184 127 -184 83 -146.5 c 128,-1,30
 39 -109 39 -109 30 -51 c 1,31,-1
 152 -51 l 1,32,33
 161 -72 161 -72 177 -89 c 128,-1,34
 193 -106 193 -106 213 -106 c 2,35,-1
 274 -106 l 2,36,37
 297 -106 297 -106 319.5 -97.5 c 128,-1,38
 342 -89 342 -89 361 -74 c 128,-1,39
 380 -59 380 -59 394.5 -39.5 c 128,-1,40
 409 -20 409 -20 413 3 c 2,41,-1
 427 66 l 1,0,1
488 357 m 2,42,43
 491 392 491 392 474 421.5 c 128,-1,44
 457 451 457 451 427 451 c 2,45,-1
 365 451 l 2,46,47
 341 451 341 451 316.5 439.5 c 128,-1,48
 292 428 292 428 272.5 409 c 128,-1,49
 253 390 253 390 239 366 c 128,-1,50
 225 342 225 342 219 315 c 2,51,-1
 197 214 l 2,52,53
 190 178 190 178 206 145.5 c 128,-1,54
 222 113 222 113 256 113 c 2,55,-1
 318 113 l 2,56,57
 342 113 342 113 365.5 124.5 c 128,-1,58
 389 136 389 136 408.5 154 c 128,-1,59
 428 172 428 172 442.5 195.5 c 128,-1,60
 457 219 457 219 464 244 c 2,61,-1
 488 357 l 2,42,43
EndSplineSet
EndChar
StartChar: h
Encoding: 104 104 73
Width: 584
VWidth: 1507
Flags: W
HStem: 0 21G<47 162.189 419 533.193> 452 85<354.466 478.462>
Fore
493 354 m 2,0,1
 500 389 500 389 485 420.5 c 128,-1,2
 470 452 470 452 437 452 c 2,3,-1
 374 452 l 2,4,5
 353 452 353 452 330.5 442.5 c 128,-1,6
 308 433 308 433 288 417 c 128,-1,7
 268 401 268 401 253 380.5 c 128,-1,8
 238 360 238 360 229 339 c 1,9,-1
 158 0 l 1,10,-1
 47 0 l 1,11,-1
 200 730 l 1,12,-1
 312 730 l 1,13,-1
 264 497 l 1,14,15
 292 514 292 514 324.5 525.5 c 128,-1,16
 357 537 357 537 392 537 c 2,17,-1
 455 537 l 2,18,19
 496 537 496 537 527 521.5 c 128,-1,20
 558 506 558 506 577.5 480.5 c 128,-1,21
 597 455 597 455 603.5 422 c 128,-1,22
 610 389 610 389 603 353 c 2,23,-1
 529 0 l 1,24,-1
 419 0 l 1,25,-1
 493 354 l 2,0,1
EndSplineSet
EndChar
StartChar: i
Encoding: 105 105 74
Width: 278
VWidth: 1507
Flags: W
HStem: 0 21G<83 195.234> 509 20G<189.803 303> 592 127<234.752 321.217>
VStem: 203 150<637.196 706.314>
Fore
194 529 m 1,0,-1
 303 529 l 1,1,-1
 191 0 l 1,2,-1
 83 0 l 1,3,-1
 194 529 l 1,0,-1
203 657 m 0,4,5
 210 684 210 684 234 701.5 c 128,-1,6
 258 719 258 719 291 719 c 256,7,8
 324 719 324 719 341.5 701.5 c 128,-1,9
 359 684 359 684 353 657 c 0,10,11
 347 629 347 629 322 610.5 c 128,-1,12
 297 592 297 592 264 592 c 256,13,14
 231 592 231 592 214 610.5 c 128,-1,15
 197 629 197 629 203 657 c 0,4,5
EndSplineSet
EndChar
StartChar: j
Encoding: 106 106 75
Width: 278
VWidth: 1507
Flags: W
HStem: -202 90<-143 10.5933> 509 20G<188.745 303> 592 127<234.752 321.217>
VStem: 203 150<637.196 706.314>
Fore
193 529 m 1,0,-1
 303 529 l 1,1,-1
 193 12 l 2,2,3
 184 -32 184 -32 157.5 -71 c 128,-1,4
 131 -110 131 -110 94 -139.5 c 128,-1,5
 57 -169 57 -169 12 -185.5 c 128,-1,6
 -33 -202 -33 -202 -80 -202 c 2,7,-1
 -163 -202 l 1,8,-1
 -143 -112 l 1,9,-1
 -60 -112 l 2,10,11
 -12 -112 -12 -112 29.5 -76.5 c 128,-1,12
 71 -41 71 -41 83 12 c 2,13,-1
 193 529 l 1,0,-1
203 657 m 0,14,15
 210 684 210 684 234 701.5 c 128,-1,16
 258 719 258 719 291 719 c 256,17,18
 324 719 324 719 341.5 701.5 c 128,-1,19
 359 684 359 684 353 657 c 0,20,21
 347 629 347 629 322 610.5 c 128,-1,22
 297 592 297 592 264 592 c 256,23,24
 231 592 231 592 214 610.5 c 128,-1,25
 197 629 197 629 203 657 c 0,14,15
EndSplineSet
EndChar
StartChar: k
Encoding: 107 107 76
Width: 551
VWidth: 1507
Flags: W
HStem: 0 21G<47 162.257 408.147 565> 509 20G<459.5 645>
Fore
308 314 m 1,0,1
 320 306 320 306 329.5 295.5 c 128,-1,2
 339 285 339 285 347 276 c 1,3,-1
 348 277 l 1,4,-1
 565 0 l 1,5,-1
 424 0 l 1,6,-1
 252 217 l 2,7,8
 232 241 232 241 211 249 c 1,9,-1
 158 0 l 1,10,-1
 47 0 l 1,11,-1
 200 730 l 1,12,-1
 312 730 l 1,13,-1
 235 366 l 1,14,15
 300 409 300 409 364 448.5 c 128,-1,16
 428 488 428 488 491 529 c 1,17,-1
 645 529 l 1,18,-1
 308 314 l 1,0,1
EndSplineSet
EndChar
StartChar: l
Encoding: 108 108 77
Width: 278
VWidth: 1507
Flags: W
HStem: 0 21G<83 195.219>
VStem: 83 262<0 730 1.53064e-18 1.53064e-18>
Fore
237 730 m 1,0,-1
 345 730 l 1,1,-1
 191 0 l 1,2,-1
 83 0 l 1,3,-1
 237 730 l 1,0,-1
EndSplineSet
EndChar
StartChar: m
Encoding: 109 109 78
Width: 850
VWidth: 1507
Flags: W
HStem: 0 21G<50 164.223 363 479.217 678 792.193> 452 85<353.143 420.208 637.874 735.955>
Fore
363 0 m 1,0,-1
 437 353 l 2,1,2
 445 387 445 387 427.5 419.5 c 128,-1,3
 410 452 410 452 377 452 c 0,4,5
 354 452 354 452 331 443 c 128,-1,6
 308 434 308 434 287.5 419 c 128,-1,7
 267 404 267 404 252 383.5 c 128,-1,8
 237 363 237 363 232 341 c 2,9,-1
 160 0 l 1,10,-1
 50 0 l 1,11,-1
 161 529 l 1,12,-1
 271 529 l 1,13,-1
 265 497 l 1,14,15
 294 514 294 514 327 525.5 c 128,-1,16
 360 537 360 537 395 537 c 0,17,18
 439 537 439 537 470.5 518.5 c 128,-1,19
 502 500 502 500 523 473 c 1,20,21
 561 499 561 499 611.5 518 c 128,-1,22
 662 537 662 537 710 537 c 0,23,24
 751 537 751 537 782.5 521.5 c 128,-1,25
 814 506 814 506 834.5 480.5 c 128,-1,26
 855 455 855 455 862.5 422 c 128,-1,27
 870 389 870 389 862 353 c 2,28,-1
 788 0 l 1,29,-1
 678 0 l 1,30,-1
 752 354 l 2,31,32
 760 389 760 389 742.5 420.5 c 128,-1,33
 725 452 725 452 692 452 c 0,34,35
 669 452 669 452 646 444.5 c 128,-1,36
 623 437 623 437 602.5 423.5 c 128,-1,37
 582 410 582 410 567.5 391 c 128,-1,38
 553 372 553 372 549 351 c 2,39,-1
 475 0 l 1,40,-1
 363 0 l 1,0,-1
EndSplineSet
EndChar
StartChar: n
Encoding: 110 110 79
Width: 590
VWidth: 1507
Flags: W
HStem: 0 21G<47 162.189 424 538.136> 452 85<354.466 480.883>
Fore
497 354 m 2,0,1
 505 389 505 389 487.5 420.5 c 128,-1,2
 470 452 470 452 437 452 c 2,3,-1
 374 452 l 2,4,5
 353 452 353 452 330.5 442.5 c 128,-1,6
 308 433 308 433 288 417 c 128,-1,7
 268 401 268 401 253 380.5 c 128,-1,8
 238 360 238 360 229 339 c 1,9,-1
 158 0 l 1,10,-1
 47 0 l 1,11,-1
 158 529 l 1,12,-1
 270 529 l 1,13,-1
 264 497 l 1,14,15
 292 514 292 514 324.5 525.5 c 128,-1,16
 357 537 357 537 392 537 c 2,17,-1
 455 537 l 2,18,19
 496 537 496 537 527.5 521.5 c 128,-1,20
 559 506 559 506 579.5 480.5 c 128,-1,21
 600 455 600 455 607.5 422 c 128,-1,22
 615 389 615 389 607 353 c 2,23,-1
 534 0 l 1,24,-1
 424 0 l 1,25,-1
 497 354 l 2,0,1
EndSplineSet
EndChar
StartChar: o
Encoding: 111 111 80
Width: 574
VWidth: 1507
Flags: W
HStem: -8 83<204.338 337.25> 452 85<337.842 470.062>
Fore
568 213 m 2,0,1
 559 167 559 167 532.5 127 c 128,-1,2
 506 87 506 87 468.5 57 c 128,-1,3
 431 27 431 27 385 9.5 c 128,-1,4
 339 -8 339 -8 292 -8 c 2,5,-1
 231 -8 l 2,6,7
 190 -8 190 -8 158.5 7.5 c 128,-1,8
 127 23 127 23 106.5 47.5 c 128,-1,9
 86 72 86 72 77.5 106 c 128,-1,10
 69 140 69 140 77 176 c 2,11,-1
 107 315 l 2,12,13
 116 360 116 360 143 400 c 128,-1,14
 170 440 170 440 208 471 c 128,-1,15
 246 502 246 502 291 519.5 c 128,-1,16
 336 537 336 537 383 537 c 2,17,-1
 445 537 l 2,18,19
 485 537 485 537 517.5 521.5 c 128,-1,20
 550 506 550 506 570.5 480.5 c 128,-1,21
 591 455 591 455 598.5 422 c 128,-1,22
 606 389 606 389 598 353 c 2,23,-1
 568 213 l 2,0,1
487 353 m 2,24,25
 494 387 494 387 477 419.5 c 128,-1,26
 460 452 460 452 427 452 c 2,27,-1
 365 452 l 2,28,29
 341 452 341 452 316.5 441 c 128,-1,30
 292 430 292 430 272.5 410 c 128,-1,31
 253 390 253 390 239 366 c 128,-1,32
 225 342 225 342 219 315 c 2,33,-1
 188 176 l 2,34,35
 181 140 181 140 197.5 107.5 c 128,-1,36
 214 75 214 75 249 75 c 2,37,-1
 311 75 l 2,38,39
 335 75 335 75 359 86.5 c 128,-1,40
 383 98 383 98 403.5 117.5 c 128,-1,41
 424 137 424 137 438 162 c 128,-1,42
 452 187 452 187 457 213 c 2,43,-1
 487 353 l 2,24,25
EndSplineSet
EndChar
StartChar: p
Encoding: 112 112 81
Width: 580
VWidth: 1507
Flags: W
HStem: -185 21G<6 122.3> -8 83<235.952 343.25> 452 85<350.416 453.048>
Fore
158 529 m 1,0,-1
 270 529 l 1,1,-1
 264 499 l 1,2,3
 289 516 289 516 321.5 526.5 c 128,-1,4
 354 537 354 537 389 537 c 2,5,-1
 452 537 l 2,6,7
 493 537 493 537 524.5 521.5 c 128,-1,8
 556 506 556 506 576.5 480.5 c 128,-1,9
 597 455 597 455 604.5 422 c 128,-1,10
 612 389 612 389 604 353 c 2,11,-1
 574 213 l 2,12,13
 565 167 565 167 539 127 c 128,-1,14
 513 87 513 87 475 57 c 128,-1,15
 437 27 437 27 391 9.5 c 128,-1,16
 345 -8 345 -8 298 -8 c 2,17,-1
 237 -8 l 2,18,19
 210 -8 210 -8 192.5 -2.5 c 128,-1,20
 175 3 175 3 161 15 c 1,21,-1
 118 -185 l 1,22,-1
 6 -185 l 1,23,-1
 158 529 l 1,0,-1
494 353 m 2,24,25
 499 371 499 371 496 388 c 128,-1,26
 493 405 493 405 484.5 419.5 c 128,-1,27
 476 434 476 434 463.5 443 c 128,-1,28
 451 452 451 452 434 452 c 2,29,-1
 371 452 l 2,30,31
 347 452 347 452 323.5 441 c 128,-1,32
 300 430 300 430 279.5 411.5 c 128,-1,33
 259 393 259 393 245 370 c 128,-1,34
 231 347 231 347 226 321 c 2,35,-1
 194 176 l 2,36,37
 191 158 191 158 194 140 c 128,-1,38
 197 122 197 122 205 107.5 c 128,-1,39
 213 93 213 93 225.5 84 c 128,-1,40
 238 75 238 75 255 75 c 2,41,-1
 317 75 l 2,42,43
 341 75 341 75 365 86.5 c 128,-1,44
 389 98 389 98 409.5 117.5 c 128,-1,45
 430 137 430 137 445 162 c 128,-1,46
 460 187 460 187 464 213 c 2,47,-1
 494 353 l 2,24,25
EndSplineSet
EndChar
StartChar: q
Encoding: 113 113 82
Width: 580
VWidth: 1507
Flags: W
HStem: -185 21G<372 488.258> -8 83<204.338 326.654> 451 86<338.6 468.75>
Fore
419 32 m 1,0,1
 390 15 390 15 356.5 3.5 c 128,-1,2
 323 -8 323 -8 292 -8 c 2,3,-1
 231 -8 l 2,4,5
 190 -8 190 -8 158.5 7.5 c 128,-1,6
 127 23 127 23 106.5 47.5 c 128,-1,7
 86 72 86 72 77.5 106 c 128,-1,8
 69 140 69 140 77 176 c 2,9,-1
 107 315 l 2,10,11
 116 360 116 360 143 400 c 128,-1,12
 170 440 170 440 208 471 c 128,-1,13
 246 502 246 502 291 519.5 c 128,-1,14
 336 537 336 537 383 537 c 2,15,-1
 445 537 l 2,16,17
 470 537 470 537 490 531 c 128,-1,18
 510 525 510 525 522 516 c 1,19,-1
 525 529 l 1,20,-1
 636 529 l 1,21,-1
 484 -185 l 1,22,-1
 372 -185 l 1,23,-1
 419 32 l 1,0,1
488 357 m 2,24,25
 491 392 491 392 474 421.5 c 128,-1,26
 457 451 457 451 427 451 c 2,27,-1
 365 451 l 2,28,29
 341 451 341 451 316.5 439.5 c 128,-1,30
 292 428 292 428 272.5 409 c 128,-1,31
 253 390 253 390 239 366 c 128,-1,32
 225 342 225 342 219 315 c 2,33,-1
 188 176 l 2,34,35
 181 140 181 140 197.5 107.5 c 128,-1,36
 214 75 214 75 249 75 c 2,37,-1
 311 75 l 2,38,39
 335 75 335 75 358 86.5 c 128,-1,40
 381 98 381 98 401 116 c 128,-1,41
 421 134 421 134 435 158 c 128,-1,42
 449 182 449 182 457 208 c 2,43,-1
 488 357 l 2,24,25
EndSplineSet
EndChar
StartChar: r
Encoding: 114 114 83
Width: 385
VWidth: 1507
Flags: W
HStem: 0 21G<47 162.254> 452 85<354.692 455>
VStem: 47 426<0 537 -7.59269 0>
Fore
158 529 m 1,0,-1
 270 529 l 1,1,-1
 264 499 l 1,2,3
 289 514 289 514 324 525.5 c 128,-1,4
 359 537 359 537 389 537 c 2,5,-1
 473 537 l 1,6,-1
 455 452 l 1,7,-1
 371 452 l 2,8,9
 347 452 347 452 323.5 440 c 128,-1,10
 300 428 300 428 279.5 408.5 c 128,-1,11
 259 389 259 389 244 364 c 128,-1,12
 229 339 229 339 225 315 c 2,13,-1
 158 0 l 1,14,-1
 47 0 l 1,15,-1
 158 529 l 1,0,-1
EndSplineSet
EndChar
StartChar: s
Encoding: 115 115 84
Width: 622
VWidth: 1507
Flags: W
HStem: -8 83<201.768 415.618> 452 85<344.361 519.371>
Fore
256 243 m 2,0,1
 213 249 213 249 188 263 c 128,-1,2
 163 277 163 277 152.5 296 c 128,-1,3
 142 315 142 315 142 336 c 128,-1,4
 142 357 142 357 146 377 c 0,5,6
 155 416 155 416 181 446 c 128,-1,7
 207 476 207 476 240.5 496.5 c 128,-1,8
 274 517 274 517 312.5 527 c 128,-1,9
 351 537 351 537 386 537 c 2,10,-1
 491 537 l 2,11,12
 532 537 532 537 564.5 523.5 c 128,-1,13
 597 510 597 510 617.5 485.5 c 128,-1,14
 638 461 638 461 646 427 c 128,-1,15
 654 393 654 393 645 354 c 1,16,-1
 535 354 l 1,17,18
 544 393 544 393 525 422.5 c 128,-1,19
 506 452 506 452 473 452 c 2,20,-1
 368 452 l 2,21,22
 356 452 356 452 338.5 447.5 c 128,-1,23
 321 443 321 443 304.5 434 c 128,-1,24
 288 425 288 425 275 410.5 c 128,-1,25
 262 396 262 396 258 378 c 0,26,27
 255 366 255 366 260 349.5 c 128,-1,28
 265 333 265 333 295 326 c 0,29,30
 348 320 348 320 402.5 313 c 128,-1,31
 457 306 457 306 510 301 c 0,32,33
 555 294 555 294 578 276 c 128,-1,34
 601 258 601 258 611 237 c 128,-1,35
 621 216 621 216 621 193 c 128,-1,36
 621 170 621 170 617 152 c 0,37,38
 609 118 609 118 587 88.5 c 128,-1,39
 565 59 565 59 532 38 c 128,-1,40
 499 17 499 17 459 4.5 c 128,-1,41
 419 -8 419 -8 375 -8 c 2,42,-1
 231 -8 l 2,43,44
 149 -8 149 -8 105.5 43.5 c 128,-1,45
 62 95 62 95 78 173 c 1,46,-1
 188 173 l 1,47,48
 179 133 179 133 196.5 104 c 128,-1,49
 214 75 214 75 249 75 c 2,50,-1
 393 75 l 2,51,52
 405 75 405 75 422.5 80.5 c 128,-1,53
 440 86 440 86 457.5 95 c 128,-1,54
 475 104 475 104 488.5 118.5 c 128,-1,55
 502 133 502 133 506 151 c 0,56,57
 511 175 511 175 505.5 194.5 c 128,-1,58
 500 214 500 214 469 217 c 2,59,-1
 256 243 l 2,0,1
EndSplineSet
EndChar
StartChar: t
Encoding: 116 116 85
Width: 354
VWidth: 1507
Flags: W
HStem: 0 21G<121 236.204> 452 77<133 216 344 424 116 440 133 133>
Fore
216 452 m 1,0,-1
 116 452 l 1,1,-1
 133 529 l 1,2,-1
 232 529 l 1,3,-1
 274 730 l 1,4,-1
 386 730 l 1,5,-1
 344 529 l 1,6,-1
 440 529 l 1,7,-1
 424 452 l 1,8,-1
 327 452 l 1,9,-1
 232 0 l 1,10,-1
 121 0 l 1,11,-1
 216 452 l 1,0,-1
EndSplineSet
EndChar
StartChar: u
Encoding: 117 117 86
Width: 584
VWidth: 1507
Flags: W
HStem: -8 83<207.4 330.542> 509 20G<153.751 270 526.718 641>
Fore
194 173 m 2,0,1
 187 137 187 137 201.5 106 c 128,-1,2
 216 75 216 75 250 75 c 2,3,-1
 312 75 l 2,4,5
 333 75 333 75 355.5 85 c 128,-1,6
 378 95 378 95 398 111 c 128,-1,7
 418 127 418 127 433.5 147 c 128,-1,8
 449 167 449 167 458 188 c 1,9,-1
 531 529 l 1,10,-1
 641 529 l 1,11,-1
 529 0 l 1,12,-1
 419 0 l 1,13,-1
 425 32 l 1,14,15
 396 15 396 15 361.5 3.5 c 128,-1,16
 327 -8 327 -8 294 -8 c 2,17,-1
 232 -8 l 2,18,19
 191 -8 191 -8 160.5 7.5 c 128,-1,20
 130 23 130 23 110 47.5 c 128,-1,21
 90 72 90 72 82.5 106 c 128,-1,22
 75 140 75 140 83 176 c 2,23,-1
 158 529 l 1,24,-1
 270 529 l 1,25,-1
 194 173 l 2,0,1
EndSplineSet
EndChar
StartChar: v
Encoding: 118 118 87
Width: 572
VWidth: 1507
Flags: W
HStem: -8 21G<309 345.142> 509 20G<130 246.385 515.5 659>
Fore
333 -8 m 1,0,1
 285 -8 285 -8 251 8 c 128,-1,2
 217 24 217 24 210 54 c 2,3,-1
 130 529 l 1,4,-1
 243 529 l 1,5,-1
 309 139 l 1,6,7
 366 235 366 235 426.5 334 c 128,-1,8
 487 433 487 433 544 529 c 1,9,-1
 659 529 l 1,10,-1
 333 -8 l 1,0,1
EndSplineSet
EndChar
StartChar: w
Encoding: 119 119 88
Width: 911
VWidth: 1507
Flags: W
HStem: -8 21G<292 337 579.029 600> 509 20<131 249.857 505.837 536 862.647 987>
Fore
526 369 m 1,0,1
 473 276 473 276 418 181 c 128,-1,2
 363 86 363 86 311 -8 c 1,3,4
 273 -8 273 -8 246.5 5 c 128,-1,5
 220 18 220 18 214 41 c 2,6,-1
 131 529 l 1,7,-1
 247 529 l 1,8,-1
 301 151 l 1,9,-1
 517 538 l 1,10,11
 555 538 555 538 583.5 525.5 c 128,-1,12
 612 513 612 513 617 487 c 2,13,-1
 660 152 l 1,14,-1
 874 529 l 1,15,-1
 987 529 l 1,16,-1
 701 41 l 2,17,18
 686 17 686 17 652 4.5 c 128,-1,19
 618 -8 618 -8 582 -8 c 1,20,-1
 526 369 l 1,0,1
EndSplineSet
EndChar
StartChar: x
Encoding: 120 120 89
Width: 610
VWidth: 1507
Flags: W
HStem: 0 21G<2 159 454.5 601> 509 20G<143 284.792 531.538 681>
Fore
552 529 m 1,0,-1
 681 529 l 1,1,-1
 428 279 l 1,2,3
 467 213 467 213 514 139.5 c 128,-1,4
 561 66 561 66 601 0 c 1,5,-1
 467 0 l 1,6,-1
 342 200 l 1,7,8
 289 151 289 151 236.5 100.5 c 128,-1,9
 184 50 184 50 134 0 c 1,10,-1
 2 0 l 1,11,-1
 289 279 l 1,12,13
 255 336 255 336 214 404 c 128,-1,14
 173 472 173 472 143 529 c 1,15,-1
 273 529 l 1,16,-1
 375 356 l 1,17,-1
 552 529 l 1,0,-1
EndSplineSet
EndChar
StartChar: y
Encoding: 121 121 90
Width: 586
VWidth: 1507
Flags: W
HStem: -184 78<180.501 196 196 307.598> 29 86<215.117 341.742> 509 20G<153.81 270 526.71 641>
Fore
157 -51 m 1,0,1
 164 -72 164 -72 180 -89 c 128,-1,2
 196 -106 196 -106 217 -106 c 2,3,-1
 279 -106 l 2,4,5
 301 -106 301 -106 324 -97.5 c 128,-1,6
 347 -89 347 -89 366.5 -74 c 128,-1,7
 386 -59 386 -59 400.5 -39.5 c 128,-1,8
 415 -20 415 -20 419 3 c 2,9,-1
 433 68 l 1,10,11
 404 51 404 51 371 40 c 128,-1,12
 338 29 338 29 303 29 c 2,13,-1
 241 29 l 2,14,15
 200 29 200 29 168.5 44 c 128,-1,16
 137 59 137 59 117.5 84.5 c 128,-1,17
 98 110 98 110 91 144 c 128,-1,18
 84 178 84 178 92 214 c 2,19,-1
 158 529 l 1,20,-1
 270 529 l 1,21,-1
 202 213 l 2,22,23
 194 176 194 176 209.5 145.5 c 128,-1,24
 225 115 225 115 259 115 c 2,25,-1
 321 115 l 2,26,27
 342 115 342 115 364.5 124 c 128,-1,28
 387 133 387 133 407 148.5 c 128,-1,29
 427 164 427 164 442 184.5 c 128,-1,30
 457 205 457 205 466 226 c 1,31,-1
 531 529 l 1,32,-1
 641 529 l 1,33,-1
 529 3 l 2,34,35
 520 -36 520 -36 492 -70 c 128,-1,36
 464 -104 464 -104 425 -129 c 128,-1,37
 386 -154 386 -154 342 -169 c 128,-1,38
 298 -184 298 -184 258 -184 c 2,39,-1
 196 -184 l 2,40,41
 131 -184 131 -184 87.5 -146.5 c 128,-1,42
 44 -109 44 -109 35 -51 c 1,43,-1
 157 -51 l 1,0,1
EndSplineSet
EndChar
StartChar: z
Encoding: 122 122 91
Width: 613
VWidth: 1507
Flags: W
HStem: 0 75<240 553> 452 77<169 473>
Fore
553 0 m 1,0,-1
 32 0 l 1,1,-1
 473 452 l 1,2,-1
 152 452 l 1,3,-1
 169 529 l 1,4,-1
 686 529 l 1,5,-1
 240 75 l 1,6,-1
 568 75 l 1,7,-1
 553 0 l 1,0,-1
EndSplineSet
EndChar
StartChar: braceleft
Encoding: 123 123 92
Width: 468
VWidth: 1507
Flags: W
HStem: -213 80<290.11 359> 265 24<99 113.196> 736 80<473.857 559>
VStem: 95 481<265 816 265 535.041>
Fore
259 -87 m 2,0,1
 253 -113 253 -113 272.5 -123 c 128,-1,2
 292 -133 292 -133 318 -133 c 2,3,-1
 375 -133 l 1,4,-1
 359 -213 l 1,5,-1
 301 -213 l 2,6,7
 267 -213 267 -213 237 -206 c 128,-1,8
 207 -199 207 -199 185.5 -184.5 c 128,-1,9
 164 -170 164 -170 154.5 -147.5 c 128,-1,10
 145 -125 145 -125 152 -92 c 2,11,-1
 199 130 l 2,12,13
 203 152 203 152 193.5 176 c 128,-1,14
 184 200 184 200 167.5 220 c 128,-1,15
 151 240 151 240 131.5 252.5 c 128,-1,16
 112 265 112 265 95 265 c 1,17,-1
 99 289 l 1,18,19
 116 289 116 289 141 300 c 128,-1,20
 166 311 166 311 191 329.5 c 128,-1,21
 216 348 216 348 236 373 c 128,-1,22
 256 398 256 398 262 427 c 2,23,-1
 318 692 l 2,24,25
 324 725 324 725 343.5 748.5 c 128,-1,26
 363 772 363 772 390.5 787 c 128,-1,27
 418 802 418 802 451 809 c 128,-1,28
 484 816 484 816 519 816 c 2,29,-1
 576 816 l 1,30,-1
 559 736 l 1,31,-1
 502 736 l 2,32,33
 476 736 476 736 453.5 725.5 c 128,-1,34
 431 715 431 715 424 687 c 2,35,-1
 369 427 l 2,36,37
 363 398 363 398 349.5 374 c 128,-1,38
 336 350 336 350 318.5 330.5 c 128,-1,39
 301 311 301 311 282.5 297 c 128,-1,40
 264 283 264 283 247 274 c 1,41,42
 259 264 259 264 272 249 c 128,-1,43
 285 234 285 234 294 215.5 c 128,-1,44
 303 197 303 197 307 175.5 c 128,-1,45
 311 154 311 154 306 130 c 2,46,-1
 259 -87 l 2,0,1
EndSplineSet
EndChar
StartChar: bar
Encoding: 124 124 93
Width: 277
VWidth: 1507
Flags: W
VStem: 50 327<-149 879 -149 -149>
Fore
268 879 m 1,0,-1
 377 879 l 1,1,-1
 158 -149 l 1,2,-1
 50 -149 l 1,3,-1
 268 879 l 1,0,-1
EndSplineSet
EndChar
StartChar: braceright
Encoding: 125 125 94
Width: 468
VWidth: 1507
Flags: W
HStem: -213 80<27 113.227> 265 24<462.576 478> 736 80<228 295.51>
VStem: 11 471<-213 289 61.8199 390.28>
Fore
210 130 m 2,0,1
 214 154 214 154 227.5 176.5 c 128,-1,2
 241 199 241 199 257.5 218 c 128,-1,3
 274 237 274 237 293 251 c 128,-1,4
 312 265 312 265 327 276 c 1,5,6
 303 292 303 292 282 331.5 c 128,-1,7
 261 371 261 371 273 427 c 2,8,-1
 327 687 l 2,9,10
 335 715 335 715 314.5 725.5 c 128,-1,11
 294 736 294 736 268 736 c 2,12,-1
 211 736 l 1,13,-1
 228 816 l 1,14,-1
 285 816 l 2,15,16
 320 816 320 816 350 809 c 128,-1,17
 380 802 380 802 402 787 c 128,-1,18
 424 772 424 772 433 748.5 c 128,-1,19
 442 725 442 725 436 692 c 2,20,-1
 380 427 l 2,21,22
 374 398 374 398 383 373 c 128,-1,23
 392 348 392 348 408.5 329.5 c 128,-1,24
 425 311 425 311 445.5 300 c 128,-1,25
 466 289 466 289 482 289 c 1,26,-1
 478 265 l 1,27,28
 461 265 461 265 435.5 252.5 c 128,-1,29
 410 240 410 240 385 220 c 128,-1,30
 360 200 360 200 340.5 176 c 128,-1,31
 321 152 321 152 317 130 c 2,32,-1
 270 -92 l 2,33,34
 262 -125 262 -125 242.5 -147.5 c 128,-1,35
 223 -170 223 -170 196 -184.5 c 128,-1,36
 169 -199 169 -199 136 -206 c 128,-1,37
 103 -213 103 -213 68 -213 c 2,38,-1
 11 -213 l 1,39,-1
 27 -133 l 1,40,-1
 84 -133 l 2,41,42
 110 -133 110 -133 133.5 -123 c 128,-1,43
 157 -113 157 -113 163 -87 c 2,44,-1
 210 130 l 2,0,1
EndSplineSet
EndChar
StartChar: asciitilde
Encoding: 126 126 95
Width: 639
VWidth: 1507
Flags: W
HStem: 256 91<456.383 531.57> 381 91<258.844 318.792>
VStem: 92 95<287.03 361.311>
Fore
505 347 m 0,0,1
 531 347 531 347 558.5 379.5 c 128,-1,2
 586 412 586 412 604 461 c 1,3,-1
 699 461 l 1,4,5
 687 409 687 409 662.5 370.5 c 128,-1,6
 638 332 638 332 607 306 c 128,-1,7
 576 280 576 280 543.5 268 c 128,-1,8
 511 256 511 256 487 256 c 0,9,10
 454 256 454 256 430.5 263.5 c 128,-1,11
 407 271 407 271 390.5 282.5 c 128,-1,12
 374 294 374 294 362.5 308.5 c 128,-1,13
 351 323 351 323 342 336 c 0,14,15
 329 353 329 353 316 367 c 128,-1,16
 303 381 303 381 285 381 c 0,17,18
 259 381 259 381 231 349 c 128,-1,19
 203 317 203 317 187 267 c 1,20,-1
 92 267 l 1,21,22
 103 318 103 318 128.5 357 c 128,-1,23
 154 396 154 396 185 421 c 128,-1,24
 216 446 216 446 248 459 c 128,-1,25
 280 472 280 472 304 472 c 0,26,27
 359 472 359 472 383 450 c 128,-1,28
 407 428 407 428 425 402 c 0,29,30
 442 381 442 381 458.5 364 c 128,-1,31
 475 347 475 347 505 347 c 0,0,1
EndSplineSet
EndChar
StartChar: quotedbl
Encoding: 34 34 97
Width: 385
VWidth: 1507
Flags: W
HStem: 535 241<210 273 383 446 210 273 210 210>
Fore
210 776 m 1,0,-1
 324 776 l 1,1,-1
 273 535 l 1,2,-1
 158 535 l 1,3,-1
 210 776 l 1,0,-1
383 776 m 1,4,-1
 497 776 l 1,5,-1
 446 535 l 1,6,-1
 332 535 l 1,7,-1
 383 776 l 1,4,-1
EndSplineSet
EndChar
StartChar: exclam
Encoding: 33 33 98
Width: 304
VWidth: 1507
Flags: W
HStem: -2 118<131.173 202.311>
VStem: 104 261<57 733 -502.888 57>
Fore
255 733 m 1,0,-1
 365 733 l 1,1,-1
 243 163 l 1,2,-1
 133 163 l 1,3,-1
 255 733 l 1,0,-1
104 57 m 0,4,5
 98 32 98 32 112.5 15 c 128,-1,6
 127 -2 127 -2 154 -2 c 256,7,8
 181 -2 181 -2 203 15 c 128,-1,9
 225 32 225 32 231 57 c 0,10,11
 235 83 235 83 221 99.5 c 128,-1,12
 207 116 207 116 179 116 c 256,13,14
 152 116 152 116 130.5 99.5 c 128,-1,15
 109 83 109 83 104 57 c 0,4,5
EndSplineSet
EndChar
StartChar: cent
Encoding: 162 162 101
Width: 625
VWidth: 1507
Flags: W
VStem: 513 110<249.241 306>
Fore
386 178 m 2,0,1
 430 184 430 184 465 218.5 c 128,-1,2
 500 253 500 253 513 306 c 1,3,-1
 623 306 l 1,4,5
 614 265 614 265 591 229.5 c 128,-1,6
 568 194 568 194 537 168 c 128,-1,7
 506 142 506 142 468.5 124 c 128,-1,8
 431 106 431 106 392 98 c 1,9,-1
 368 -21 l 1,10,-1
 256 -21 l 1,11,-1
 280 95 l 1,12,13
 241 96 241 96 210 111.5 c 128,-1,14
 179 127 179 127 159 152.5 c 128,-1,15
 139 178 139 178 132 211 c 128,-1,16
 125 244 125 244 133 280 c 2,17,-1
 161 418 l 2,18,19
 170 458 170 458 192 495 c 128,-1,20
 214 532 214 532 244 560.5 c 128,-1,21
 274 589 274 589 312.5 609 c 128,-1,22
 351 629 351 629 395 635 c 1,23,-1
 421 757 l 1,24,-1
 532 757 l 1,25,-1
 506 638 l 1,26,27
 544 636 544 636 575 622.5 c 128,-1,28
 606 609 606 609 625.5 585 c 128,-1,29
 645 561 645 561 652.5 527.5 c 128,-1,30
 660 494 660 494 653 457 c 1,31,-1
 543 457 l 1,32,33
 552 497 552 497 534 526 c 128,-1,34
 516 555 516 555 482 555 c 2,35,-1
 401 555 l 1,36,37
 359 544 359 544 321 505 c 128,-1,38
 283 466 283 466 273 418 c 2,39,-1
 244 280 l 2,40,41
 237 244 237 244 254 211 c 128,-1,42
 271 178 271 178 304 178 c 2,43,-1
 386 178 l 2,0,1
EndSplineSet
EndChar
StartChar: sterling
Encoding: 163 163 102
Width: 625
VWidth: 1507
Flags: W
HStem: 0 83<78 106.406 292 580> 311 90<143 276 390 574> 648 91<505.429 582.3>
VStem: 273 110<170.209 207 207 232.727 232.727 284.758 284.758 311 401 442.211>
Fore
387 311 m 1,0,1
 387 285 387 285 385.5 258.5 c 128,-1,2
 384 232 384 232 383 207 c 1,3,4
 375 175 375 175 349 140.5 c 128,-1,5
 323 106 323 106 292 83 c 1,6,-1
 597 83 l 1,7,-1
 580 0 l 1,8,-1
 62 0 l 1,9,-1
 78 83 l 1,10,11
 101 83 101 83 132 93.5 c 128,-1,12
 163 104 163 104 192.5 120.5 c 128,-1,13
 222 137 222 137 244.5 159.5 c 128,-1,14
 267 182 267 182 273 207 c 1,15,-1
 273 216 l 1,16,-1
 276 311 l 1,17,-1
 124 311 l 1,18,-1
 143 401 l 1,19,-1
 279 401 l 1,20,21
 282 440 282 440 286.5 462 c 128,-1,22
 291 484 291 484 298 519 c 0,23,24
 308 562 308 562 334 602 c 128,-1,25
 360 642 360 642 397 672 c 128,-1,26
 434 702 434 702 480 720.5 c 128,-1,27
 526 739 526 739 574 739 c 0,28,29
 612 739 612 739 644.5 723.5 c 128,-1,30
 677 708 677 708 699 683 c 1,31,-1
 615 603 l 1,32,33
 600 624 600 624 584 636 c 128,-1,34
 568 648 568 648 555 648 c 0,35,36
 529 648 529 648 505.5 637.5 c 128,-1,37
 482 627 482 627 462 609.5 c 128,-1,38
 442 592 442 592 427.5 569 c 128,-1,39
 413 546 413 546 407 519 c 0,40,41
 401 493 401 493 396.5 464.5 c 128,-1,42
 392 436 392 436 390 401 c 1,43,-1
 594 401 l 1,44,-1
 574 311 l 1,45,-1
 387 311 l 1,0,1
EndSplineSet
EndChar
StartChar: currency
Encoding: 164 164 103
Width: 791
VWidth: 1507
Flags: W
HStem: 66 88<341.348 498.867> 556 88<419.971 583.941>
Fore
176 184 m 1,0,1
 155 220 155 220 150 265.5 c 128,-1,2
 145 311 145 311 154 354 c 0,3,4
 164 401 164 401 187.5 444.5 c 128,-1,5
 211 488 211 488 250 528 c 1,6,-1
 202 589 l 1,7,-1
 285 657 l 1,8,-1
 339 592 l 1,9,10
 427 644 427 644 526 644 c 0,11,12
 574 644 574 644 616.5 630.5 c 128,-1,13
 659 617 659 617 692 591 c 1,14,-1
 775 657 l 1,15,-1
 829 589 l 1,16,-1
 751 526 l 1,17,18
 775 487 775 487 778.5 442.5 c 128,-1,19
 782 398 782 398 772 354 c 0,20,21
 763 311 763 311 739 267 c 128,-1,22
 715 223 715 223 678 185 c 1,23,-1
 730 121 l 1,24,-1
 645 54 l 1,25,-1
 592 119 l 1,26,27
 549 93 549 93 500 79.5 c 128,-1,28
 451 66 451 66 402 66 c 128,-1,29
 353 66 353 66 310 79 c 128,-1,30
 267 92 267 92 237 119 c 1,31,-1
 157 54 l 1,32,-1
 103 121 l 1,33,-1
 176 184 l 1,0,1
506 556 m 0,34,35
 463 556 463 556 423.5 539 c 128,-1,36
 384 522 384 522 352 493 c 128,-1,37
 320 464 320 464 297 428 c 128,-1,38
 274 392 274 392 265 354 c 0,39,40
 256 314 256 314 264.5 277.5 c 128,-1,41
 273 241 273 241 293.5 213 c 128,-1,42
 314 185 314 185 347 169.5 c 128,-1,43
 380 154 380 154 421 154 c 256,44,45
 461 154 461 154 500.5 169.5 c 128,-1,46
 540 185 540 185 573 213 c 128,-1,47
 606 241 606 241 628.5 277.5 c 128,-1,48
 651 314 651 314 660 354 c 256,49,50
 669 395 669 395 661.5 431 c 128,-1,51
 654 467 654 467 633 495 c 128,-1,52
 612 523 612 523 579.5 539.5 c 128,-1,53
 547 556 547 556 506 556 c 0,34,35
EndSplineSet
EndChar
StartChar: yen
Encoding: 165 165 104
Width: 625
VWidth: 1507
Flags: W
HStem: 0 21G<241 355.17> 259 88<145 295 424 577>
Fore
295 259 m 1,0,-1
 127 259 l 1,1,-1
 145 347 l 1,2,-1
 314 347 l 1,3,-1
 318 362 l 1,4,-1
 142 730 l 1,5,-1
 264 730 l 1,6,-1
 390 452 l 1,7,-1
 638 730 l 1,8,-1
 758 730 l 1,9,-1
 428 363 l 1,10,-1
 424 347 l 1,11,-1
 595 347 l 1,12,-1
 577 259 l 1,13,-1
 405 259 l 1,14,-1
 351 0 l 1,15,-1
 241 0 l 1,16,-1
 295 259 l 1,0,-1
EndSplineSet
EndChar
StartChar: brokenbar
Encoding: 166 166 105
Width: 266
VWidth: 1507
Flags: W
VStem: 50 327<-149 879 -575.179 -149>
Fore
176 440 m 1,0,-1
 268 879 l 1,1,-1
 377 879 l 1,2,-1
 285 440 l 1,3,-1
 176 440 l 1,0,-1
261 329 m 1,4,-1
 158 -149 l 1,5,-1
 50 -149 l 1,6,-1
 152 329 l 1,7,-1
 261 329 l 1,4,-1
EndSplineSet
EndChar
StartChar: section
Encoding: 167 167 106
Width: 652
VWidth: 1507
Flags: W
HStem: -53 83<188.95 400.7> 677 83<415.361 591.641>
Fore
217 600 m 0,0,1
 226 639 226 639 251.5 669 c 128,-1,2
 277 699 277 699 311 719.5 c 128,-1,3
 345 740 345 740 383.5 750 c 128,-1,4
 422 760 422 760 457 760 c 2,5,-1
 564 760 l 2,6,7
 604 760 604 760 636.5 746.5 c 128,-1,8
 669 733 669 733 689.5 708.5 c 128,-1,9
 710 684 710 684 718.5 651 c 128,-1,10
 727 618 727 618 718 579 c 1,11,-1
 606 579 l 1,12,13
 615 618 615 618 597 647.5 c 128,-1,14
 579 677 579 677 546 677 c 2,15,-1
 439 677 l 2,16,17
 427 677 427 677 409.5 672.5 c 128,-1,18
 392 668 392 668 374.5 658 c 128,-1,19
 357 648 357 648 343.5 634 c 128,-1,20
 330 620 330 620 326 601 c 0,21,22
 323 591 323 591 331 576 c 128,-1,23
 339 561 339 561 369 549 c 2,24,-1
 574 476 l 2,25,26
 615 463 615 463 637.5 445 c 128,-1,27
 660 427 660 427 670.5 406.5 c 128,-1,28
 681 386 681 386 682 365.5 c 128,-1,29
 683 345 683 345 678 327 c 0,30,31
 669 288 669 288 643.5 258 c 128,-1,32
 618 228 618 228 579 207 c 1,33,34
 600 181 600 181 603 155.5 c 128,-1,35
 606 130 606 130 601 107 c 0,36,37
 594 72 594 72 572 43 c 128,-1,38
 550 14 550 14 517.5 -7.5 c 128,-1,39
 485 -29 485 -29 444.5 -41 c 128,-1,40
 404 -53 404 -53 362 -53 c 2,41,-1
 216 -53 l 2,42,43
 134 -53 134 -53 90.5 -1.5 c 128,-1,44
 47 50 47 50 63 128 c 1,45,-1
 172 128 l 1,46,47
 163 89 163 89 181.5 59.5 c 128,-1,48
 200 30 200 30 234 30 c 2,49,-1
 380 30 l 2,50,51
 390 30 390 30 407.5 35.5 c 128,-1,52
 425 41 425 41 442.5 50.5 c 128,-1,53
 460 60 460 60 473.5 73.5 c 128,-1,54
 487 87 487 87 490 106 c 0,55,56
 496 131 496 131 488.5 146 c 128,-1,57
 481 161 481 161 452 172 c 2,58,-1
 246 246 l 2,59,60
 207 259 207 259 183.5 275 c 128,-1,61
 160 291 160 291 149.5 308.5 c 128,-1,62
 139 326 139 326 137.5 344 c 128,-1,63
 136 362 136 362 140 380 c 0,64,65
 149 421 149 421 179.5 452.5 c 128,-1,66
 210 484 210 484 249 505 c 1,67,68
 219 528 219 528 215 551 c 128,-1,69
 211 574 211 574 217 600 c 0,0,1
567 326 m 0,70,71
 573 351 573 351 564.5 367 c 128,-1,72
 556 383 556 383 528 393 c 0,73,74
 485 409 485 409 440 425.5 c 128,-1,75
 395 442 395 442 353 455 c 1,76,77
 339 452 339 452 323.5 447 c 128,-1,78
 308 442 308 442 292.5 433 c 128,-1,79
 277 424 277 424 265 411 c 128,-1,80
 253 398 253 398 250 381 c 0,81,82
 247 369 247 369 253 355 c 128,-1,83
 259 341 259 341 294 329 c 2,84,-1
 488 258 l 1,85,86
 511 267 511 267 537.5 285.5 c 128,-1,87
 564 304 564 304 567 326 c 0,70,71
EndSplineSet
EndChar
StartChar: dieresis
Encoding: 168 168 107
Width: 384
VWidth: 1507
Flags: W
HStem: 598 129<173.268 260.732 395.814 480.733>
VStem: 142 150<643.298 713.154> 363 150<644.045 713.617>
Fore
142 663 m 0,0,1
 148 690 148 690 172.5 708.5 c 128,-1,2
 197 727 197 727 231 727 c 256,3,4
 264 727 264 727 281 708.5 c 128,-1,5
 298 690 298 690 292 663 c 0,6,7
 286 635 286 635 261.5 616.5 c 128,-1,8
 237 598 237 598 203 598 c 256,9,10
 170 598 170 598 153 616.5 c 128,-1,11
 136 635 136 635 142 663 c 0,0,1
363 663 m 0,12,13
 369 690 369 690 395 708.5 c 128,-1,14
 421 727 421 727 452 727 c 256,15,16
 484 727 484 727 501.5 708.5 c 128,-1,17
 519 690 519 690 513 663 c 0,18,19
 506 635 506 635 481.5 616.5 c 128,-1,20
 457 598 457 598 425 598 c 256,21,22
 393 598 393 598 375 616.5 c 128,-1,23
 357 635 357 635 363 663 c 0,12,13
EndSplineSet
EndChar
StartChar: copyright
Encoding: 169 169 108
Width: 792
VWidth: 1507
Flags: W
HStem: 23 76<317.488 520.057> 175 74<380.284 390 390 505.218> 491 73<463.438 552.717> 630 77<417.478 621.5>
VStem: 538 98<266.705 332>
Fore
543 707 m 0,0,1
 617 707 617 707 675.5 678.5 c 128,-1,2
 734 650 734 650 772.5 602.5 c 128,-1,3
 811 555 811 555 825.5 493 c 128,-1,4
 840 431 840 431 826 363 c 0,5,6
 811 294 811 294 770.5 232 c 128,-1,7
 730 170 730 170 672 123.5 c 128,-1,8
 614 77 614 77 543 50 c 128,-1,9
 472 23 472 23 398 23 c 0,10,11
 323 23 323 23 264 50 c 128,-1,12
 205 77 205 77 166.5 123.5 c 128,-1,13
 128 170 128 170 113.5 232 c 128,-1,14
 99 294 99 294 115 363 c 0,15,16
 128 428 128 428 167.5 490 c 128,-1,17
 207 552 207 552 264 600 c 128,-1,18
 321 648 321 648 392.5 677.5 c 128,-1,19
 464 707 464 707 543 707 c 0,0,1
526 630 m 0,20,21
 469 630 469 630 416 607.5 c 128,-1,22
 363 585 363 585 321 547.5 c 128,-1,23
 279 510 279 510 249.5 461.5 c 128,-1,24
 220 413 220 413 210 363 c 0,25,26
 197 309 197 309 208 261.5 c 128,-1,27
 219 214 219 214 246.5 178 c 128,-1,28
 274 142 274 142 317 120.5 c 128,-1,29
 360 99 360 99 415 99 c 256,30,31
 469 99 469 99 521 120.5 c 128,-1,32
 573 142 573 142 616 178 c 128,-1,33
 659 214 659 214 689 261.5 c 128,-1,34
 719 309 719 309 731 363 c 0,35,36
 742 416 742 416 732 464.5 c 128,-1,37
 722 513 722 513 694 549.5 c 128,-1,38
 666 586 666 586 623 608 c 128,-1,39
 580 630 580 630 526 630 c 0,20,21
556 430 m 1,40,41
 562 455 562 455 553 473 c 128,-1,42
 544 491 544 491 526 491 c 2,43,-1
 484 491 l 2,44,45
 455 491 455 491 428.5 463.5 c 128,-1,46
 402 436 402 436 395 401 c 2,47,-1
 375 312 l 2,48,49
 371 291 371 291 380 270 c 128,-1,50
 389 249 389 249 409 249 c 2,51,-1
 451 249 l 2,52,53
 481 249 481 249 506 270.5 c 128,-1,54
 531 292 531 292 538 332 c 1,55,-1
 636 332 l 1,56,57
 621 259 621 259 563 217 c 128,-1,58
 505 175 505 175 434 175 c 2,59,-1
 390 175 l 2,60,61
 360 175 360 175 337.5 186 c 128,-1,62
 315 197 315 197 300 215.5 c 128,-1,63
 285 234 285 234 279 258 c 128,-1,64
 273 282 273 282 279 308 c 2,65,-1
 298 404 l 2,66,67
 306 437 306 437 325 465.5 c 128,-1,68
 344 494 344 494 371 516 c 128,-1,69
 398 538 398 538 431 551 c 128,-1,70
 464 564 464 564 499 564 c 2,71,-1
 543 564 l 2,72,73
 604 564 604 564 635 525.5 c 128,-1,74
 666 487 666 487 654 430 c 1,75,-1
 556 430 l 1,40,41
EndSplineSet
EndChar
StartChar: logicalnot
Encoding: 172 172 111
Width: 700
VWidth: 1507
Flags: W
HStem: 366 91<133 617>
Fore
568 139 m 1,0,-1
 617 366 l 1,1,-1
 113 366 l 1,2,-1
 133 457 l 1,3,-1
 748 457 l 1,4,-1
 680 139 l 1,5,-1
 568 139 l 1,0,-1
EndSplineSet
EndChar
StartChar: registered
Encoding: 174 174 112
Width: 601
VWidth: 1507
Flags: W
HStem: 240 55<284.345 445.359> 531 21G<378.167 445> 579 47<384 461.198> 699 59<359.799 523.851>
Fore
458 758 m 0,0,1
 514 758 514 758 560 737 c 128,-1,2
 606 716 606 716 635.5 680 c 128,-1,3
 665 644 665 644 676 596.5 c 128,-1,4
 687 549 687 549 677 497 c 0,5,6
 665 446 665 446 634 399.5 c 128,-1,7
 603 353 603 353 558.5 317.5 c 128,-1,8
 514 282 514 282 459.5 261 c 128,-1,9
 405 240 405 240 348 240 c 256,10,11
 291 240 291 240 245.5 261 c 128,-1,12
 200 282 200 282 171 317.5 c 128,-1,13
 142 353 142 353 130.5 399.5 c 128,-1,14
 119 446 119 446 131 497 c 0,15,16
 142 546 142 546 172 592.5 c 128,-1,17
 202 639 202 639 245.5 676 c 128,-1,18
 289 713 289 713 344 735.5 c 128,-1,19
 399 758 399 758 458 758 c 0,0,1
446 699 m 0,20,21
 404 699 404 699 364 682 c 128,-1,22
 324 665 324 665 292.5 636 c 128,-1,23
 261 607 261 607 238.5 571 c 128,-1,24
 216 535 216 535 208 497 c 0,25,26
 199 457 199 457 206.5 420 c 128,-1,27
 214 383 214 383 235 356 c 128,-1,28
 256 329 256 329 288 312 c 128,-1,29
 320 295 320 295 360 295 c 256,30,31
 401 295 401 295 441 312 c 128,-1,32
 481 329 481 329 514 356 c 128,-1,33
 547 383 547 383 570.5 420 c 128,-1,34
 594 457 594 457 603 497 c 256,35,36
 612 538 612 538 603.5 575 c 128,-1,37
 595 612 595 612 574 639 c 128,-1,38
 553 666 553 666 520 682.5 c 128,-1,39
 487 699 487 699 446 699 c 0,20,21
326 626 m 1,40,-1
 466 626 l 2,41,42
 500 626 500 626 518.5 603 c 128,-1,43
 537 580 537 580 529 550 c 0,44,45
 525 528 525 528 505 509 c 128,-1,46
 485 490 485 490 460 485 c 1,47,48
 460 484 460 484 460.5 483 c 128,-1,49
 461 482 461 482 461 481 c 1,50,-1
 461 482 l 1,51,-1
 513 377 l 1,52,-1
 431 377 l 1,53,-1
 386 470 l 1,54,-1
 387 469 l 1,55,56
 378 481 378 481 375 481 c 2,57,-1
 368 481 l 1,58,-1
 347 377 l 1,59,-1
 273 377 l 1,60,-1
 326 626 l 1,40,-1
384 579 m 1,61,-1
 374 531 l 1,62,-1
 445 531 l 2,63,64
 451 531 451 531 457 537 c 128,-1,65
 463 543 463 543 464 552 c 1,66,67
 467 561 467 561 464 570 c 128,-1,68
 461 579 461 579 455 579 c 2,69,-1
 384 579 l 1,61,-1
EndSplineSet
EndChar
StartChar: macron
Encoding: 175 175 113
Width: 393
VWidth: 1507
Flags: W
HStem: 629 82<184 485 166 503 184 184>
Fore
166 629 m 1,0,-1
 184 711 l 1,1,-1
 503 711 l 1,2,-1
 485 629 l 1,3,-1
 166 629 l 1,0,-1
EndSplineSet
EndChar
StartChar: degree
Encoding: 176 176 114
Width: 360
VWidth: 1507
Flags: W
HStem: 478 68<248.507 329.422> 695 69<287.034 368.569>
VStem: 152 314<591 621 621 650 621 621 621 621>
Fore
152 621 m 0,0,1
 158 650 158 650 176 676 c 128,-1,2
 194 702 194 702 219 722 c 128,-1,3
 244 742 244 742 275 753 c 128,-1,4
 306 764 306 764 338 764 c 0,5,6
 404 764 404 764 441 722 c 128,-1,7
 478 680 478 680 466 621 c 0,8,9
 460 591 460 591 442 564.5 c 128,-1,10
 424 538 424 538 398 519 c 128,-1,11
 372 500 372 500 341.5 489 c 128,-1,12
 311 478 311 478 277 478 c 0,13,14
 213 478 213 478 176.5 519.5 c 128,-1,15
 140 561 140 561 152 621 c 0,0,1
240 621 m 0,16,17
 232 591 232 591 248 568.5 c 128,-1,18
 264 546 264 546 291 546 c 0,19,20
 320 546 320 546 345.5 568.5 c 128,-1,21
 371 591 371 591 378 621 c 0,22,23
 386 653 386 653 368.5 674 c 128,-1,24
 351 695 351 695 323 695 c 128,-1,25
 295 695 295 695 271 674 c 128,-1,26
 247 653 247 653 240 621 c 0,16,17
EndSplineSet
EndChar
StartChar: plusminus
Encoding: 177 177 115
Width: 700
VWidth: 1507
Flags: W
HStem: 6 83<104 603> 332 86<173 362 484 672>
Fore
466 332 m 1,0,-1
 424 134 l 1,1,-1
 320 134 l 1,2,-1
 362 332 l 1,3,-1
 155 332 l 1,4,-1
 173 418 l 1,5,-1
 380 418 l 1,6,-1
 422 617 l 1,7,-1
 526 617 l 1,8,-1
 484 418 l 1,9,-1
 690 418 l 1,10,-1
 672 332 l 1,11,-1
 466 332 l 1,0,-1
86 6 m 1,12,-1
 104 89 l 1,13,-1
 621 89 l 1,14,-1
 603 6 l 1,15,-1
 86 6 l 1,12,-1
EndSplineSet
EndChar
StartChar: twosuperior
Encoding: 178 178 116
Width: 429
VWidth: 1507
Flags: W
HStem: 285 68<197 436> 684 67<294.937 408.589>
VStem: 96 401<285 617 285 285>
Fore
377 751 m 2,0,1
 449 751 449 751 480 715.5 c 128,-1,2
 511 680 511 680 497 617 c 0,3,4
 490 583 490 583 473.5 560 c 128,-1,5
 457 537 457 537 412 508 c 2,6,-1
 237 399 l 2,7,8
 219 389 219 389 210.5 377.5 c 128,-1,9
 202 366 202 366 197 353 c 1,10,-1
 449 353 l 1,11,-1
 436 285 l 1,12,-1
 96 285 l 1,13,-1
 109 342 l 2,14,15
 116 377 116 377 137 404 c 128,-1,16
 158 431 158 431 188 451 c 2,17,-1
 390 576 l 2,18,19
 398 580 398 580 405 592 c 128,-1,20
 412 604 412 604 415 617 c 0,21,22
 422 648 422 648 409 666 c 128,-1,23
 396 684 396 684 365 684 c 2,24,-1
 350 684 l 2,25,26
 324 684 324 684 294 666 c 128,-1,27
 264 648 264 648 237 623 c 1,28,-1
 184 669 l 1,29,30
 223 708 223 708 270 729.5 c 128,-1,31
 317 751 317 751 363 751 c 2,32,-1
 377 751 l 2,0,1
EndSplineSet
EndChar
StartChar: threesuperior
Encoding: 179 179 117
Width: 406
VWidth: 1507
Flags: W
HStem: 282 66<207.468 306.888> 513 66<246 374.106> 683 68<272.968 392.32>
VStem: 89 390<372 615 372 372>
Fore
246 579 m 1,0,-1
 353 579 l 2,1,2
 368 580 368 580 380 589 c 128,-1,3
 392 598 392 598 395 615 c 0,4,5
 409 683 409 683 345 683 c 2,6,-1
 329 683 l 2,7,8
 303 683 303 683 272 665.5 c 128,-1,9
 241 648 241 648 214 624 c 1,10,-1
 164 669 l 1,11,12
 202 707 202 707 248 729 c 128,-1,13
 294 751 294 751 342 751 c 2,14,-1
 359 751 l 2,15,16
 431 751 431 751 462 714.5 c 128,-1,17
 493 678 493 678 479 615 c 0,18,19
 476 597 476 597 465.5 579.5 c 128,-1,20
 455 562 455 562 442 549 c 1,21,22
 460 529 460 529 466.5 502 c 128,-1,23
 473 475 473 475 467 448 c 0,24,25
 458 410 458 410 437 379 c 128,-1,26
 416 348 416 348 386.5 327 c 128,-1,27
 357 306 357 306 321 294 c 128,-1,28
 285 282 285 282 246 282 c 0,29,30
 188 282 188 282 152 304.5 c 128,-1,31
 116 327 116 327 89 372 c 1,32,-1
 161 422 l 1,33,34
 182 390 182 390 207 369 c 128,-1,35
 232 348 232 348 262 348 c 0,36,37
 301 348 301 348 337.5 377.5 c 128,-1,38
 374 407 374 407 383 448 c 0,39,40
 387 472 387 472 374.5 492.5 c 128,-1,41
 362 513 362 513 336 513 c 2,42,-1
 232 513 l 1,43,-1
 246 579 l 1,0,-1
EndSplineSet
EndChar
StartChar: acute
Encoding: 180 180 118
Width: 189
VWidth: 1507
Flags: W
HStem: 558 188<200 255 255 255>
Fore
255 746 m 1,0,-1
 369 746 l 1,1,-1
 200 558 l 1,2,-1
 84 558 l 1,3,-1
 255 746 l 1,0,-1
EndSplineSet
EndChar
StartChar: mu
Encoding: 181 181 119
AltUni2: 0003bc.ffffffff.0
Width: 592
VWidth: 1507
Flags: W
HStem: -184 21G<8 123.249> -8 83<207.062 330.542> 509 20G<153.792 270 526.718 641>
Fore
8 -184 m 1,0,-1
 158 529 l 1,1,-1
 270 529 l 1,2,-1
 194 173 l 2,3,4
 187 137 187 137 201.5 106 c 128,-1,5
 216 75 216 75 250 75 c 2,6,-1
 312 75 l 2,7,8
 333 75 333 75 355.5 85 c 128,-1,9
 378 95 378 95 398 111 c 128,-1,10
 418 127 418 127 433.5 147 c 128,-1,11
 449 167 449 167 458 188 c 1,12,-1
 531 529 l 1,13,-1
 641 529 l 1,14,-1
 529 0 l 1,15,-1
 419 0 l 1,16,-1
 425 32 l 1,17,18
 396 15 396 15 361.5 3.5 c 128,-1,19
 327 -8 327 -8 294 -8 c 2,20,-1
 232 -8 l 2,21,22
 213 -8 213 -8 194 -3 c 128,-1,23
 175 2 175 2 160 9 c 1,24,-1
 119 -184 l 1,25,-1
 8 -184 l 1,0,-1
EndSplineSet
EndChar
StartChar: paragraph
Encoding: 182 182 120
Width: 672
VWidth: 1507
Flags: W
HStem: 642 91<607 680>
Fore
802 733 m 1,0,-1
 633 -59 l 1,1,-1
 531 -59 l 1,2,-1
 680 642 l 1,3,-1
 607 642 l 1,4,-1
 458 -59 l 1,5,-1
 357 -59 l 1,6,-1
 430 280 l 1,7,-1
 311 280 l 2,8,9
 267 280 267 280 232 299 c 128,-1,10
 197 318 197 318 174.5 349 c 128,-1,11
 152 380 152 380 144 420 c 128,-1,12
 136 460 136 460 145 503 c 256,13,14
 154 547 154 547 179.5 588 c 128,-1,15
 205 629 205 629 240.5 660.5 c 128,-1,16
 276 692 276 692 319 711 c 128,-1,17
 362 730 362 730 405 730 c 2,18,-1
 802 733 l 1,0,-1
EndSplineSet
EndChar
StartChar: periodcentered
Encoding: 183 183 121
Width: 382
VWidth: 1507
Flags: W
HStem: 268 174<209.807 316.098>
VStem: 164 196<329.342 414.729>
Fore
164 354 m 256,0,1
 172 392 172 392 205 417 c 128,-1,2
 238 442 238 442 282 442 c 256,3,4
 326 442 326 442 347 417 c 128,-1,5
 368 392 368 392 360 354 c 256,6,7
 353 317 353 317 320.5 292.5 c 128,-1,8
 288 268 288 268 244 268 c 256,9,10
 200 268 200 268 178.5 292.5 c 128,-1,11
 157 317 157 317 164 354 c 256,0,1
EndSplineSet
EndChar
StartChar: cedilla
Encoding: 184 184 122
Width: 345
VWidth: 1507
Flags: W
HStem: -191 220<153 170 113 122 113 113>
VStem: 24 234<-134 -118 -107 -81 -107 -80 -80 -80>
Fore
125 -139 m 0,0,1
 137 -142 137 -142 153 -136.5 c 128,-1,2
 169 -131 169 -131 172 -116 c 0,3,4
 176 -93 176 -93 152 -81 c 0,5,6
 119 -65 119 -65 108.5 -50 c 128,-1,7
 98 -35 98 -35 106 -5 c 2,8,-1
 113 29 l 1,9,-1
 211 29 l 1,10,-1
 203 -5 l 1,11,-1
 202 -2 l 1,12,13
 203 -18 203 -18 208.5 -22.5 c 128,-1,14
 214 -27 214 -27 222 -32 c 1,15,-1
 216 -30 l 1,16,17
 222 -33 222 -33 223 -33 c 1,18,19
 238 -45 238 -45 251 -63 c 128,-1,20
 264 -81 264 -81 258 -107 c 0,21,22
 247 -155 247 -155 208.5 -173 c 128,-1,23
 170 -191 170 -191 122 -191 c 2,24,-1
 109 -191 l 2,25,26
 60 -185 60 -185 36 -159.5 c 128,-1,27
 12 -134 12 -134 24 -80 c 1,28,-1
 98 -80 l 1,29,30
 93 -103 93 -103 98.5 -118 c 128,-1,31
 104 -133 104 -133 125 -139 c 0,0,1
EndSplineSet
EndChar
StartChar: onesuperior
Encoding: 185 185 123
Width: 360
VWidth: 1507
Flags: W
HStem: 285 445<210 303 427.221 450.092>
VStem: 170 214<571 730 695.221 718.092>
Fore
210 285 m 1,0,-1
 273 586 l 1,1,2
 234 571 234 571 170 571 c 1,3,-1
 184 638 l 1,4,5
 203 638 203 638 223 645.5 c 128,-1,6
 243 653 243 653 259.5 665.5 c 128,-1,7
 276 678 276 678 287 694.5 c 128,-1,8
 298 711 298 711 303 730 c 1,9,-1
 384 730 l 1,10,-1
 291 285 l 1,11,-1
 210 285 l 1,0,-1
EndSplineSet
EndChar
StartChar: onequarter
Encoding: 188 188 126
Width: 889
VWidth: 1507
Flags: W
HStem: 574 67<163 228.625> 734 20G<693.244 819>
Fore
752 12 m 1,0,-1
 770 96 l 1,1,-1
 826 96 l 1,2,-1
 840 163 l 1,3,-1
 784 163 l 1,4,-1
 847 457 l 1,5,-1
 773 457 l 1,6,-1
 493 154 l 1,7,8
 481 96 481 96 543 96 c 2,9,-1
 689 96 l 1,10,-1
 671 12 l 1,11,-1
 752 12 l 1,0,-1
702 163 m 1,12,-1
 598 163 l 1,13,-1
 734 308 l 1,14,-1
 702 163 l 1,12,-1
268 288 m 1,15,-1
 363 733 l 1,16,-1
 280 733 l 1,17,18
 271 696 271 696 236.5 668.5 c 128,-1,19
 202 641 202 641 163 641 c 1,20,-1
 148 574 l 1,21,22
 210 574 210 574 250 589 c 1,23,-1
 185 288 l 1,24,-1
 268 288 l 1,15,-1
134 -24 m 1,25,-1
 708 754 l 1,26,-1
 819 754 l 1,27,-1
 247 -24 l 1,28,-1
 134 -24 l 1,25,-1
EndSplineSet
Ligature2: "'frac' Diagonal Fractions in Latin lookup 0 subtable" one fraction four
Ligature2: "'frac' Diagonal Fractions in Latin lookup 0 subtable" one slash four
EndChar
StartChar: onehalf
Encoding: 189 189 127
Width: 889
VWidth: 1507
Flags: W
HStem: 12 65<615 844> 393 65<707.905 821.755> 574 67<163 228.625> 734 20G<680.244 805>
Fore
787 458 m 2,0,1
 858 458 858 458 887 423.5 c 128,-1,2
 916 389 916 389 904 329 c 0,3,4
 897 297 897 297 879.5 274.5 c 128,-1,5
 862 252 862 252 820 225 c 1,6,-1
 822 225 l 1,7,-1
 651 119 l 2,8,9
 627 103 627 103 615 77 c 1,10,-1
 858 77 l 1,11,-1
 844 12 l 1,12,-1
 517 12 l 1,13,-1
 529 65 l 2,14,15
 537 99 537 99 557 125.5 c 128,-1,16
 577 152 577 152 606 170 c 2,17,-1
 797 289 l 2,18,19
 805 294 805 294 812.5 305.5 c 128,-1,20
 820 317 820 317 823 329 c 0,21,22
 838 393 838 393 775 393 c 2,23,-1
 761 393 l 2,24,25
 736 393 736 393 707 376 c 128,-1,26
 678 359 678 359 653 336 c 1,27,-1
 601 380 l 1,28,29
 641 415 641 415 685.5 436.5 c 128,-1,30
 730 458 730 458 775 458 c 2,31,-1
 787 458 l 2,0,1
268 288 m 1,32,-1
 363 733 l 1,33,-1
 280 733 l 1,34,35
 271 696 271 696 236.5 668.5 c 128,-1,36
 202 641 202 641 163 641 c 1,37,-1
 148 574 l 1,38,39
 210 574 210 574 250 589 c 1,40,-1
 185 288 l 1,41,-1
 268 288 l 1,32,-1
121 -24 m 1,42,-1
 695 754 l 1,43,-1
 805 754 l 1,44,-1
 234 -24 l 1,45,-1
 121 -24 l 1,42,-1
EndSplineSet
Ligature2: "'frac' Diagonal Fractions in Latin lookup 0 subtable" one fraction two
Ligature2: "'frac' Diagonal Fractions in Latin lookup 0 subtable" one slash two
EndChar
StartChar: threequarters
Encoding: 190 190 128
Width: 889
VWidth: 1507
Flags: W
HStem: 96 67<672 763 858 900> 283 67<227.528 327.609> 514 68<268 396.075> 686 68<293.452 411.553>
Fore
268 582 m 1,0,-1
 375 582 l 2,1,2
 407 585 407 585 416 618 c 0,3,4
 430 686 430 686 365 686 c 2,5,-1
 350 686 l 2,6,7
 323 686 323 686 292.5 668.5 c 128,-1,8
 262 651 262 651 235 626 c 1,9,-1
 184 672 l 1,10,11
 223 710 223 710 270 732 c 128,-1,12
 317 754 317 754 365 754 c 2,13,-1
 380 754 l 2,14,15
 452 754 452 754 484 717.5 c 128,-1,16
 516 681 516 681 502 618 c 0,17,18
 497 600 497 600 487.5 582 c 128,-1,19
 478 564 478 564 463 550 c 1,20,21
 481 529 481 529 487.5 502 c 128,-1,22
 494 475 494 475 488 449 c 0,23,24
 481 412 481 412 460 381 c 128,-1,25
 439 350 439 350 408.5 329 c 128,-1,26
 378 308 378 308 342 295.5 c 128,-1,27
 306 283 306 283 267 283 c 0,28,29
 210 283 210 283 174.5 306 c 128,-1,30
 139 329 139 329 109 374 c 1,31,-1
 181 424 l 1,32,33
 202 392 202 392 227 371 c 128,-1,34
 252 350 252 350 283 350 c 0,35,36
 323 350 323 350 359 379.5 c 128,-1,37
 395 409 395 409 404 449 c 0,38,39
 410 475 410 475 396.5 494.5 c 128,-1,40
 383 514 383 514 357 514 c 2,41,-1
 253 514 l 1,42,-1
 268 582 l 1,0,-1
745 12 m 1,43,-1
 763 96 l 1,44,-1
 617 96 l 2,45,46
 555 96 555 96 567 154 c 1,47,-1
 847 457 l 1,48,-1
 921 457 l 1,49,-1
 858 163 l 1,50,-1
 913 163 l 1,51,-1
 900 96 l 1,52,-1
 844 96 l 1,53,-1
 826 12 l 1,54,-1
 745 12 l 1,43,-1
808 308 m 1,55,-1
 672 163 l 1,56,-1
 776 163 l 1,57,-1
 808 308 l 1,55,-1
244 -24 m 1,58,-1
 819 754 l 1,59,-1
 929 754 l 1,60,-1
 357 -24 l 1,61,-1
 244 -24 l 1,58,-1
EndSplineSet
Ligature2: "'frac' Diagonal Fractions in Latin lookup 0 subtable" three fraction four
Ligature2: "'frac' Diagonal Fractions in Latin lookup 0 subtable" three slash four
EndChar
StartChar: Aring
Encoding: 197 197 134
Width: 862
VWidth: 1507
Flags: W
HStem: 0 21G<24 160.5 691.1 817> 200 83<332 624> 847 76<573.588 624.794>
Fore
499 704 m 1,0,1
 476 721 476 721 464 748 c 128,-1,2
 452 775 452 775 460 805 c 0,3,4
 470 853 470 853 515.5 888 c 128,-1,5
 561 923 561 923 618 923 c 0,6,7
 672 923 672 923 702.5 888 c 128,-1,8
 733 853 733 853 722 805 c 0,9,10
 715 770 715 770 690 744 c 128,-1,11
 665 718 665 718 632 701 c 1,12,13
 645 687 645 687 647 678 c 2,14,-1
 817 0 l 1,15,-1
 696 0 l 1,16,-1
 647 200 l 1,17,-1
 279 200 l 1,18,19
 246 152 246 152 211 100 c 128,-1,20
 176 48 176 48 145 0 c 1,21,-1
 24 0 l 1,22,-1
 499 704 l 1,0,1
332 283 m 1,23,-1
 624 283 l 1,24,25
 614 326 614 326 604.5 364 c 128,-1,26
 595 402 595 402 585.5 439 c 128,-1,27
 576 476 576 476 567 515.5 c 128,-1,28
 558 555 558 555 547 598 c 1,29,-1
 332 283 l 1,23,-1
553 805 m 0,30,31
 550 787 550 787 558.5 774 c 128,-1,32
 567 761 567 761 583 761 c 0,33,34
 598 761 598 761 611 774 c 128,-1,35
 624 787 624 787 627 805 c 0,36,37
 630 822 630 822 623.5 834.5 c 128,-1,38
 617 847 617 847 601 847 c 128,-1,39
 585 847 585 847 570.5 834.5 c 128,-1,40
 556 822 556 822 553 805 c 0,30,31
EndSplineSet
EndChar
StartChar: AE
Encoding: 198 198 135
Width: 1028
VWidth: 1507
Flags: W
HStem: 0 84<632 993> 200 83<320 514> 344 83<627 989> 654 83<620 989>
VStem: 513.5 113.5<283 314.101 314.101 344 427 428 428 461.969 461.969 483.75 483.75 535.846 535.846 575.343> 520 112<84 100 100 200>
Fore
511 740 m 1,0,1
 519 740 519 740 532.5 740 c 128,-1,2
 546 740 546 740 550 739 c 2,3,4
 553 739 553 739 553 738 c 128,-1,5
 553 737 553 737 556 737 c 2,6,-1
 1005 737 l 1,7,-1
 989 654 l 1,8,-1
 620 654 l 1,9,10
 620 600 620 600 622 540.5 c 128,-1,11
 624 481 624 481 626 427 c 1,12,-1
 1007 427 l 1,13,-1
 989 344 l 1,14,-1
 627 344 l 1,15,-1
 632 84 l 1,16,-1
 1010 84 l 1,17,-1
 993 0 l 1,18,-1
 520 0 l 1,19,-1
 516 200 l 1,20,-1
 267 200 l 1,21,22
 234 152 234 152 199 100 c 128,-1,23
 164 48 164 48 134 0 c 1,24,-1
 14 0 l 1,25,-1
 511 740 l 1,0,1
320 283 m 1,26,-1
 514 283 l 1,27,28
 514 326 514 326 513.5 360.5 c 128,-1,29
 513 395 513 395 511.5 428 c 128,-1,30
 510 461 510 461 509 496 c 128,-1,31
 508 531 508 531 508 576 c 1,32,-1
 320 283 l 1,26,-1
EndSplineSet
EndChar
StartChar: Ccedilla
Encoding: 199 199 136
Width: 752
VWidth: 1507
Flags: W
HStem: -191 21G<300 362> -15 84<265.752 318> 669 85<419.797 642.217>
VStem: 657 112<192.075 277> 701 111<500 532.304 532.304 550.638 550.638 564.5 601 617.764>
Fore
701 500 m 1,0,1
 708 534 708 534 703 564.5 c 128,-1,2
 698 595 698 595 683 618.5 c 128,-1,3
 668 642 668 642 643 655.5 c 128,-1,4
 618 669 618 669 586 669 c 2,5,-1
 500 669 l 2,6,7
 460 669 460 669 418.5 649.5 c 128,-1,8
 377 630 377 630 343 598.5 c 128,-1,9
 309 567 309 567 284 526 c 128,-1,10
 259 485 259 485 250 442 c 2,11,-1
 208 244 l 2,12,13
 200 213 200 213 205.5 181 c 128,-1,14
 211 149 211 149 226 124 c 128,-1,15
 241 99 241 99 265 84 c 128,-1,16
 289 69 289 69 320 69 c 2,17,-1
 409 69 l 2,18,19
 449 69 449 69 490 85 c 128,-1,20
 531 101 531 101 564.5 129.5 c 128,-1,21
 598 158 598 158 623 196 c 128,-1,22
 648 234 648 234 657 277 c 1,23,-1
 769 277 l 1,24,25
 755 216 755 216 721 164.5 c 128,-1,26
 687 113 687 113 640.5 75.5 c 128,-1,27
 594 38 594 38 536.5 14.5 c 128,-1,28
 479 -9 479 -9 419 -14 c 1,29,30
 422 -21 422 -21 426 -25 c 128,-1,31
 430 -29 430 -29 437 -32 c 1,32,-1
 431 -30 l 1,33,34
 437 -33 437 -33 439 -33 c 1,35,36
 454 -45 454 -45 466.5 -63 c 128,-1,37
 479 -81 479 -81 473 -107 c 0,38,39
 463 -155 463 -155 424.5 -173 c 128,-1,40
 386 -191 386 -191 338 -191 c 2,41,-1
 324 -191 l 2,42,43
 276 -185 276 -185 252 -159.5 c 128,-1,44
 228 -134 228 -134 240 -80 c 1,45,-1
 314 -80 l 1,46,47
 309 -103 309 -103 314.5 -118 c 128,-1,48
 320 -133 320 -133 341 -139 c 0,49,50
 353 -142 353 -142 368.5 -136.5 c 128,-1,51
 384 -131 384 -131 387 -116 c 0,52,53
 392 -93 392 -93 368 -81 c 0,54,55
 338 -65 338 -65 326 -53 c 128,-1,56
 314 -41 314 -41 318 -15 c 1,57,-1
 301 -15 l 2,58,59
 247 -15 247 -15 204 6 c 128,-1,60
 161 27 161 27 133.5 63 c 128,-1,61
 106 99 106 99 95 146 c 128,-1,62
 84 193 84 193 95 244 c 2,63,-1
 137 442 l 2,64,65
 151 503 151 503 187 560 c 128,-1,66
 223 617 223 617 275 659.5 c 128,-1,67
 327 702 327 702 390.5 728 c 128,-1,68
 454 754 454 754 519 754 c 2,69,-1
 604 754 l 2,70,71
 660 754 660 754 704 734.5 c 128,-1,72
 748 715 748 715 775.5 681 c 128,-1,73
 803 647 803 647 813 601 c 128,-1,74
 823 555 823 555 812 500 c 1,75,-1
 701 500 l 1,0,1
EndSplineSet
EndChar
StartChar: Eth
Encoding: 208 208 145
Width: 866
VWidth: 1507
Flags: W
HStem: 0 84<259 578.203> 333 88<149 199 332 574> 654 83<381 727.186>
Fore
216 0 m 2,0,1
 181 0 181 0 160 23.5 c 128,-1,2
 139 47 139 47 145 77 c 2,3,-1
 199 333 l 1,4,-1
 130 333 l 1,5,-1
 149 421 l 1,6,-1
 219 421 l 1,7,-1
 285 737 l 1,8,-1
 687 737 l 2,9,10
 743 737 743 737 787 717.5 c 128,-1,11
 831 698 831 698 859.5 665 c 128,-1,12
 888 632 888 632 899 587.5 c 128,-1,13
 910 543 910 543 900 491 c 2,14,-1
 858 297 l 2,15,16
 844 235 844 235 808 181 c 128,-1,17
 772 127 772 127 720.5 87 c 128,-1,18
 669 47 669 47 607.5 23.5 c 128,-1,19
 546 0 546 0 481 0 c 2,20,-1
 216 0 l 2,0,1
332 421 m 1,21,-1
 594 421 l 1,22,-1
 574 333 l 1,23,-1
 312 333 l 1,24,-1
 259 84 l 1,25,-1
 497 84 l 2,26,27
 538 84 538 84 579.5 101 c 128,-1,28
 621 118 621 118 655 146.5 c 128,-1,29
 689 175 689 175 714 214 c 128,-1,30
 739 253 739 253 748 297 c 2,31,-1
 790 491 l 2,32,33
 796 525 796 525 790.5 554 c 128,-1,34
 785 583 785 583 769.5 606 c 128,-1,35
 754 629 754 629 728 641.5 c 128,-1,36
 702 654 702 654 671 654 c 2,37,-1
 381 654 l 1,38,-1
 332 421 l 1,21,-1
EndSplineSet
EndChar
StartChar: multiply
Encoding: 215 215 152
Width: 700
VWidth: 1507
Flags: W
HStem: 118 447<534 630 630 630>
Fore
487 339 m 1,0,1
 493 330 493 330 504.5 316.5 c 128,-1,2
 516 303 516 303 528.5 287 c 128,-1,3
 541 271 541 271 555.5 254.5 c 128,-1,4
 570 238 570 238 582 225 c 2,5,-1
 598 207 l 1,6,7
 604 191 604 191 618 181 c 1,8,-1
 534 118 l 1,9,-1
 402 274 l 1,10,-1
 208 118 l 1,11,-1
 160 170 l 1,12,-1
 152 182 l 1,13,-1
 348 341 l 1,14,15
 336 353 336 353 318 375.5 c 128,-1,16
 300 398 300 398 280.5 421.5 c 128,-1,17
 261 445 261 445 244.5 466.5 c 128,-1,18
 228 488 228 488 219 499 c 1,19,-1
 303 564 l 1,20,-1
 431 407 l 1,21,-1
 630 565 l 1,22,-1
 671 516 l 1,23,-1
 665 517 l 1,24,-1
 686 500 l 1,25,-1
 487 339 l 1,0,1
EndSplineSet
EndChar
StartChar: Oslash
Encoding: 216 216 153
Width: 780
VWidth: 1507
Flags: W
HStem: -15 84<256.908 490.234> 669 85<422.797 652.138>
Fore
36 -26 m 1,0,-1
 128 72 l 1,1,2
 104 107 104 107 95.5 153.5 c 128,-1,3
 87 200 87 200 96 246 c 2,4,-1
 139 440 l 2,5,6
 152 503 152 503 189 560 c 128,-1,7
 226 617 226 617 278 659.5 c 128,-1,8
 330 702 330 702 393.5 728 c 128,-1,9
 457 754 457 754 522 754 c 2,10,-1
 607 754 l 2,11,12
 645 754 645 754 672 745.5 c 128,-1,13
 699 737 699 737 725 721 c 1,14,-1
 763 760 l 1,15,-1
 874 760 l 1,16,-1
 784 663 l 1,17,18
 835 588 835 588 816 491 c 2,19,-1
 773 297 l 2,20,21
 760 235 760 235 723 178.5 c 128,-1,22
 686 122 686 122 634 79 c 128,-1,23
 582 36 582 36 519.5 10.5 c 128,-1,24
 457 -15 457 -15 392 -15 c 2,25,-1
 304 -15 l 2,26,27
 274 -15 274 -15 243.5 -6.5 c 128,-1,28
 213 2 213 2 188 15 c 1,29,30
 167 -6 167 -6 152 -26 c 1,31,-1
 36 -26 l 1,0,-1
210 246 m 2,32,33
 207 228 207 228 207 204.5 c 128,-1,34
 207 181 207 181 211 164 c 1,35,36
 324 286 324 286 433.5 404 c 128,-1,37
 543 522 543 522 656 644 c 1,38,39
 626 669 626 669 589 669 c 2,40,-1
 503 669 l 2,41,42
 463 669 463 669 421.5 649.5 c 128,-1,43
 380 630 380 630 345.5 598.5 c 128,-1,44
 311 567 311 567 286 525.5 c 128,-1,45
 261 484 261 484 252 440 c 2,46,-1
 210 246 l 2,32,33
704 491 m 2,47,48
 713 532 713 532 701 571 c 1,49,50
 644 508 644 508 589 448.5 c 128,-1,51
 534 389 534 389 479.5 330 c 128,-1,52
 425 271 425 271 370 212.5 c 128,-1,53
 315 154 315 154 256 90 c 1,54,55
 285 69 285 69 323 69 c 2,56,-1
 410 69 l 2,57,58
 451 69 451 69 491.5 88 c 128,-1,59
 532 107 532 107 567.5 138.5 c 128,-1,60
 603 170 603 170 628 211.5 c 128,-1,61
 653 253 653 253 662 297 c 2,62,-1
 704 491 l 2,47,48
EndSplineSet
EndChar
StartChar: Thorn
Encoding: 222 222 159
Width: 646
VWidth: 1507
Flags: W
HStem: 0 21G<84 200.217> 166 84<249 373.069> 526 84<326 464.399> 735 20G<239.762 356>
Fore
445 610 m 2,0,1
 500 610 500 610 546 596.5 c 128,-1,2
 592 583 592 583 624 557 c 128,-1,3
 656 531 656 531 669.5 491 c 128,-1,4
 683 451 683 451 672 399 c 0,5,6
 659 336 659 336 624 291.5 c 128,-1,7
 589 247 589 247 541 219 c 128,-1,8
 493 191 493 191 432.5 178.5 c 128,-1,9
 372 166 372 166 308 166 c 2,10,-1
 231 166 l 1,11,-1
 196 0 l 1,12,-1
 84 0 l 1,13,-1
 244 755 l 1,14,-1
 356 755 l 1,15,-1
 326 610 l 1,16,-1
 445 610 l 2,0,1
249 250 m 1,17,-1
 326 250 l 2,18,19
 368 250 368 250 406.5 257.5 c 128,-1,20
 445 265 445 265 476.5 282.5 c 128,-1,21
 508 300 508 300 530 328.5 c 128,-1,22
 552 357 552 357 561 399 c 0,23,24
 567 431 567 431 558 455 c 128,-1,25
 549 479 549 479 529.5 495 c 128,-1,26
 510 511 510 511 482.5 518.5 c 128,-1,27
 455 526 455 526 427 526 c 2,28,-1
 308 526 l 1,29,-1
 249 250 l 1,17,-1
EndSplineSet
EndChar
StartChar: uni00DF
Encoding: 223 223 160
Width: 657
VWidth: 1507
Flags: W
HStem: -188 21G<20 134.219> -14 91<343.069 471.255> 660 83<403.72 533.991>
Fore
20 -188 m 1,0,-1
 170 523 l 2,1,2
 179 567 179 567 206.5 607 c 128,-1,3
 234 647 234 647 271 677 c 128,-1,4
 308 707 308 707 353 725 c 128,-1,5
 398 743 398 743 446 743 c 2,6,-1
 508 743 l 2,7,8
 549 743 549 743 581.5 728 c 128,-1,9
 614 713 614 713 634 687.5 c 128,-1,10
 654 662 654 662 661.5 628.5 c 128,-1,11
 669 595 669 595 662 558 c 2,12,-1
 647 482 l 1,13,14
 624 475 624 475 602 466 c 128,-1,15
 580 457 580 457 561.5 447 c 128,-1,16
 543 437 543 437 530 426 c 128,-1,17
 517 415 517 415 514 401 c 0,18,19
 508 372 508 372 518 357 c 128,-1,20
 528 342 528 342 546 323 c 1,21,-1
 544 324 l 1,22,-1
 555 314 l 2,23,24
 564 304 564 304 571.5 296 c 128,-1,25
 579 288 579 288 585 282 c 0,26,27
 610 259 610 259 624.5 235 c 128,-1,28
 639 211 639 211 630 166 c 0,29,30
 623 130 623 130 601.5 97.5 c 128,-1,31
 580 65 580 65 548.5 40 c 128,-1,32
 517 15 517 15 474 0.5 c 128,-1,33
 431 -14 431 -14 380 -14 c 0,34,35
 344 -14 344 -14 297 0 c 128,-1,36
 250 14 250 14 219 33 c 1,37,-1
 279 118 l 1,38,39
 314 98 314 98 344 87.5 c 128,-1,40
 374 77 374 77 398 77 c 0,41,42
 446 77 446 77 478.5 104 c 128,-1,43
 511 131 511 131 517 163 c 0,44,45
 525 190 525 190 519 200.5 c 128,-1,46
 513 211 513 211 497 223 c 0,47,48
 491 229 491 229 483.5 236 c 128,-1,49
 476 243 476 243 469 250 c 0,50,51
 430 292 430 292 413 327 c 128,-1,52
 396 362 396 362 404 401 c 256,53,54
 412 440 412 440 450 475 c 128,-1,55
 488 510 488 510 546 537 c 1,56,-1
 550 558 l 2,57,58
 558 594 558 594 541.5 627 c 128,-1,59
 525 660 525 660 491 660 c 2,60,-1
 430 660 l 2,61,62
 405 660 405 660 381 648 c 128,-1,63
 357 636 357 636 337 617 c 128,-1,64
 317 598 317 598 301.5 573.5 c 128,-1,65
 286 549 286 549 280 523 c 2,66,-1
 130 -188 l 1,67,-1
 20 -188 l 1,0,-1
EndSplineSet
EndChar
StartChar: ae
Encoding: 230 230 167
Width: 975
VWidth: 1507
Flags: W
HStem: -6 83<205.198 226 226 333.791 613.681 721.842> 264 75<311.358 481 606 868> 454 84<285.703 480.032 682.732 830.048>
Fore
205 484 m 1,0,1
 246 510 246 510 284.5 524 c 128,-1,2
 323 538 323 538 362 538 c 2,3,-1
 457 538 l 2,4,5
 499 538 499 538 533.5 517.5 c 128,-1,6
 568 497 568 497 589 469 c 1,7,8
 626 497 626 497 672.5 517 c 128,-1,9
 719 537 719 537 767 537 c 2,10,-1
 829 537 l 2,11,12
 870 537 870 537 902.5 521.5 c 128,-1,13
 935 506 935 506 955 480.5 c 128,-1,14
 975 455 975 455 982.5 422 c 128,-1,15
 990 389 990 389 983 353 c 2,16,-1
 965 264 l 1,17,-1
 591 264 l 1,18,-1
 571 176 l 2,19,20
 568 160 568 160 570.5 142 c 128,-1,21
 573 124 573 124 581 109.5 c 128,-1,22
 589 95 589 95 602 85 c 128,-1,23
 615 75 615 75 632 75 c 2,24,-1
 695 75 l 2,25,26
 719 75 719 75 742.5 85.5 c 128,-1,27
 766 96 766 96 786 114.5 c 128,-1,28
 806 133 806 133 820.5 157 c 128,-1,29
 835 181 835 181 841 210 c 1,30,-1
 953 210 l 1,31,32
 942 163 942 163 915 123 c 128,-1,33
 888 83 888 83 851 54.5 c 128,-1,34
 814 26 814 26 769 9 c 128,-1,35
 724 -8 724 -8 677 -8 c 2,36,-1
 614 -8 l 2,37,38
 564 -8 564 -8 529 12.5 c 128,-1,39
 494 33 494 33 476 68 c 1,40,41
 437 35 437 35 388 14.5 c 128,-1,42
 339 -6 339 -6 289 -6 c 2,43,-1
 226 -6 l 2,44,45
 190 -6 190 -6 160.5 6 c 128,-1,46
 131 18 131 18 112 40 c 128,-1,47
 93 62 93 62 85 90.5 c 128,-1,48
 77 119 77 119 84 152 c 0,49,50
 93 193 93 193 120.5 227.5 c 128,-1,51
 148 262 148 262 185.5 287 c 128,-1,52
 223 312 223 312 267 325.5 c 128,-1,53
 311 339 311 339 351 339 c 2,54,-1
 496 339 l 1,55,-1
 500 359 l 2,56,57
 503 390 503 390 486.5 422 c 128,-1,58
 470 454 470 454 439 454 c 2,59,-1
 344 454 l 2,60,61
 304 454 304 454 247 409 c 1,62,-1
 205 484 l 1,0,1
336 264 m 2,63,64
 317 264 317 264 294 255 c 128,-1,65
 271 246 271 246 251 231 c 128,-1,66
 231 216 231 216 215.5 196 c 128,-1,67
 200 176 200 176 196 155 c 0,68,69
 190 125 190 125 202 101 c 128,-1,70
 214 77 214 77 243 77 c 2,71,-1
 306 77 l 2,72,73
 330 77 330 77 356.5 88 c 128,-1,74
 383 99 383 99 405.5 118 c 128,-1,75
 428 137 428 137 444.5 161 c 128,-1,76
 461 185 461 185 469 211 c 2,77,-1
 481 264 l 1,78,-1
 336 264 l 2,63,64
749 452 m 2,79,80
 704 452 704 452 663.5 419 c 128,-1,81
 623 386 623 386 606 339 c 1,82,-1
 868 339 l 1,83,-1
 871 353 l 2,84,85
 874 369 874 369 872 386.5 c 128,-1,86
 870 404 870 404 861.5 419 c 128,-1,87
 853 434 853 434 840.5 443 c 128,-1,88
 828 452 828 452 811 452 c 2,89,-1
 749 452 l 2,79,80
EndSplineSet
EndChar
StartChar: ccedilla
Encoding: 231 231 168
Width: 572
VWidth: 1507
Flags: W
HStem: -191 21G<208 270> -8 83<204.538 228 326 380.446> 452 85<337.842 471.371>
VStem: 455 112<124.46 203>
Fore
485 354 m 1,0,1
 494 393 494 393 477 422.5 c 128,-1,2
 460 452 460 452 425 452 c 2,3,-1
 365 452 l 2,4,5
 341 452 341 452 316.5 441 c 128,-1,6
 292 430 292 430 272.5 410 c 128,-1,7
 253 390 253 390 239 366 c 128,-1,8
 225 342 225 342 219 315 c 2,9,-1
 188 176 l 2,10,11
 181 140 181 140 197.5 107.5 c 128,-1,12
 214 75 214 75 249 75 c 2,13,-1
 311 75 l 2,14,15
 359 75 359 75 401 110.5 c 128,-1,16
 443 146 443 146 455 203 c 1,17,-1
 567 203 l 1,18,19
 547 115 547 115 479.5 60 c 128,-1,20
 412 5 412 5 326 -5 c 1,21,22
 327 -18 327 -18 332.5 -22.5 c 128,-1,23
 338 -27 338 -27 345 -32 c 1,24,-1
 339 -30 l 1,25,26
 345 -33 345 -33 347 -33 c 1,27,28
 362 -45 362 -45 374.5 -63 c 128,-1,29
 387 -81 387 -81 381 -107 c 0,30,31
 371 -155 371 -155 332.5 -173 c 128,-1,32
 294 -191 294 -191 246 -191 c 2,33,-1
 232 -191 l 2,34,35
 184 -185 184 -185 160 -159.5 c 128,-1,36
 136 -134 136 -134 148 -80 c 1,37,-1
 222 -80 l 1,38,39
 217 -103 217 -103 222.5 -118 c 128,-1,40
 228 -133 228 -133 249 -139 c 0,41,42
 261 -142 261 -142 276.5 -136.5 c 128,-1,43
 292 -131 292 -131 295 -116 c 0,44,45
 300 -93 300 -93 276 -81 c 0,46,47
 243 -65 243 -65 231.5 -50.5 c 128,-1,48
 220 -36 220 -36 228 -8 c 1,49,50
 187 -8 187 -8 156 7.5 c 128,-1,51
 125 23 125 23 104.5 48.5 c 128,-1,52
 84 74 84 74 76.5 107 c 128,-1,53
 69 140 69 140 77 176 c 2,54,-1
 107 315 l 2,55,56
 116 360 116 360 143 400 c 128,-1,57
 170 440 170 440 208 471 c 128,-1,58
 246 502 246 502 291 519.5 c 128,-1,59
 336 537 336 537 383 537 c 2,60,-1
 443 537 l 2,61,62
 484 537 484 537 516.5 523.5 c 128,-1,63
 549 510 549 510 569 485.5 c 128,-1,64
 589 461 589 461 597.5 427 c 128,-1,65
 606 393 606 393 597 354 c 1,66,-1
 485 354 l 1,0,1
EndSplineSet
EndChar
StartChar: eth
Encoding: 240 240 177
Width: 679
VWidth: 1507
Flags: W
HStem: -14 80<266.212 423.516> 475 78<339.485 507.764>
Fore
684 285 m 0,0,1
 668 207 668 207 629.5 150 c 128,-1,2
 591 93 591 93 541 57 c 128,-1,3
 491 21 491 21 434 3.5 c 128,-1,4
 377 -14 377 -14 323 -14 c 0,5,6
 259 -14 259 -14 210 7.5 c 128,-1,7
 161 29 161 29 131 66 c 128,-1,8
 101 103 101 103 91 153 c 128,-1,9
 81 203 81 203 93 262 c 0,10,11
 109 330 109 330 145.5 384.5 c 128,-1,12
 182 439 182 439 231 476 c 128,-1,13
 280 513 280 513 336.5 533 c 128,-1,14
 393 553 393 553 448 553 c 0,15,16
 500 553 500 553 547 537 c 1,17,18
 531 562 531 562 511 587 c 128,-1,19
 491 612 491 612 470 633 c 1,20,-1
 446 621 l 1,21,-1
 267 547 l 1,22,-1
 249 621 l 1,23,-1
 399 683 l 1,24,25
 375 696 375 696 349.5 708.5 c 128,-1,26
 324 721 324 721 288 733 c 1,27,-1
 344 812 l 1,28,29
 430 770 l 128,-1,30
 473 749 473 749 503 727 c 1,31,32
 520 733 520 733 534.5 738 c 128,-1,33
 549 743 549 743 564 751 c 0,34,35
 583 758 583 758 611 771 c 128,-1,36
 639 784 639 784 675 800 c 1,37,-1
 696 724 l 1,38,-1
 567 672 l 1,39,40
 642 595 642 595 675 500 c 128,-1,41
 708 405 708 405 684 285 c 0,0,1
574 277 m 0,42,43
 583 327 583 327 578.5 362.5 c 128,-1,44
 574 398 574 398 556 420.5 c 128,-1,45
 538 443 538 443 505.5 456 c 128,-1,46
 473 469 473 469 427 475 c 0,47,48
 378 475 378 475 339.5 455.5 c 128,-1,49
 301 436 301 436 272 405.5 c 128,-1,50
 243 375 243 375 224 337.5 c 128,-1,51
 205 300 205 300 197 264 c 0,52,53
 187 216 187 216 195 179 c 128,-1,54
 203 142 203 142 223.5 117 c 128,-1,55
 244 92 244 92 274 79 c 128,-1,56
 304 66 304 66 338 66 c 0,57,58
 378 66 378 66 416 79.5 c 128,-1,59
 454 93 454 93 485.5 119.5 c 128,-1,60
 517 146 517 146 539.5 185.5 c 128,-1,61
 562 225 562 225 574 277 c 0,42,43
EndSplineSet
EndChar
StartChar: divide
Encoding: 247 247 184
Width: 700
VWidth: 1507
Flags: W
HStem: 122 128<312.814 398.217> 297 86<128 629> 421 126<376.298 461.217>
Fore
110 297 m 1,0,-1
 128 383 l 1,1,-1
 647 383 l 1,2,-1
 629 297 l 1,3,-1
 110 297 l 1,0,-1
344 484 m 0,4,5
 350 513 350 513 375.5 530 c 128,-1,6
 401 547 401 547 433 547 c 256,7,8
 464 547 464 547 481.5 530 c 128,-1,9
 499 513 499 513 493 484 c 0,10,11
 487 457 487 457 462 439 c 128,-1,12
 437 421 437 421 405 421 c 256,13,14
 374 421 374 421 356 439 c 128,-1,15
 338 457 338 457 344 484 c 0,4,5
280 185 m 0,16,17
 286 214 286 214 312 232 c 128,-1,18
 338 250 338 250 369 250 c 256,19,20
 401 250 401 250 418.5 232 c 128,-1,21
 436 214 436 214 430 185 c 0,22,23
 424 158 424 158 399 140 c 128,-1,24
 374 122 374 122 342 122 c 256,25,26
 311 122 311 122 292.5 140 c 128,-1,27
 274 158 274 158 280 185 c 0,16,17
EndSplineSet
EndChar
StartChar: oslash
Encoding: 248 248 185
Width: 589
VWidth: 1507
Flags: W
HStem: -8 83<236.438 343.25> 452 85<343.842 451.062>
Fore
17 -24 m 1,0,-1
 101 66 l 1,1,2
 84 92 84 92 80.5 119 c 128,-1,3
 77 146 77 146 83 176 c 2,4,-1
 113 315 l 2,5,6
 122 360 122 360 149 400 c 128,-1,7
 176 440 176 440 214 471 c 128,-1,8
 252 502 252 502 297 519.5 c 128,-1,9
 342 537 342 537 389 537 c 2,10,-1
 452 537 l 2,11,12
 499 537 499 537 526 520 c 1,13,14
 535 529 535 529 542.5 537.5 c 128,-1,15
 550 546 550 546 559 553 c 1,16,-1
 672 553 l 1,17,-1
 588 463 l 1,18,19
 618 415 618 415 604 353 c 2,20,-1
 574 213 l 2,21,22
 565 167 565 167 539 127 c 128,-1,23
 513 87 513 87 475 57 c 128,-1,24
 437 27 437 27 391 9.5 c 128,-1,25
 345 -8 345 -8 298 -8 c 2,26,-1
 237 -8 l 2,27,28
 216 -8 216 -8 197 -4 c 128,-1,29
 178 0 178 0 163 8 c 1,30,31
 154 0 154 0 146.5 -8.5 c 128,-1,32
 139 -17 139 -17 131 -24 c 1,33,-1
 17 -24 l 1,0,-1
494 353 m 2,34,35
 497 362 497 362 496 366 c 1,36,-1
 232 81 l 1,37,38
 240 75 240 75 255 75 c 2,39,-1
 317 75 l 2,40,41
 341 75 341 75 365 86.5 c 128,-1,42
 389 98 389 98 409.5 117.5 c 128,-1,43
 430 137 430 137 445 162 c 128,-1,44
 460 187 460 187 464 213 c 2,45,-1
 494 353 l 2,34,35
194 176 m 2,46,47
 191 164 191 164 189.5 169.5 c 128,-1,48
 188 175 188 175 191 163 c 1,49,-1
 457 446 l 1,50,51
 445 452 445 452 434 452 c 2,52,-1
 371 452 l 2,53,54
 347 452 347 452 322.5 441 c 128,-1,55
 298 430 298 430 278.5 410 c 128,-1,56
 259 390 259 390 245 366 c 128,-1,57
 231 342 231 342 225 315 c 2,58,-1
 194 176 l 2,46,47
EndSplineSet
EndChar
StartChar: thorn
Encoding: 254 254 191
Width: 719
VWidth: 1507
Flags: W
HStem: -8 83<312.767 420.194> 452 85<422 530.048>
Fore
651 213 m 2,0,1
 642 167 642 167 615.5 127 c 128,-1,2
 589 87 589 87 551.5 57 c 128,-1,3
 514 27 514 27 468 9.5 c 128,-1,4
 422 -8 422 -8 375 -8 c 2,5,-1
 314 -8 l 2,6,7
 292 -8 292 -8 272.5 -3 c 128,-1,8
 253 2 253 2 237 9 c 1,9,-1
 187 -225 l 1,10,-1
 75 -225 l 1,11,-1
 277 730 l 1,12,-1
 389 730 l 1,13,-1
 341 503 l 1,14,15
 399 537 399 537 467 537 c 2,16,-1
 529 537 l 2,17,18
 570 537 570 537 601.5 521.5 c 128,-1,19
 633 506 633 506 653.5 480.5 c 128,-1,20
 674 455 674 455 681.5 422 c 128,-1,21
 689 389 689 389 681 353 c 2,22,-1
 651 213 l 2,0,1
571 353 m 2,23,24
 576 371 576 371 573 388 c 128,-1,25
 570 405 570 405 561.5 419.5 c 128,-1,26
 553 434 553 434 540.5 443 c 128,-1,27
 528 452 528 452 511 452 c 2,28,-1
 449 452 l 2,29,30
 425 452 425 452 401 441 c 128,-1,31
 377 430 377 430 356.5 411.5 c 128,-1,32
 336 393 336 393 322 370 c 128,-1,33
 308 347 308 347 303 321 c 2,34,-1
 271 176 l 2,35,36
 268 158 268 158 271 140 c 128,-1,37
 274 122 274 122 281.5 107.5 c 128,-1,38
 289 93 289 93 302 84 c 128,-1,39
 315 75 315 75 332 75 c 2,40,-1
 393 75 l 2,41,42
 418 75 418 75 442.5 86.5 c 128,-1,43
 467 98 467 98 487.5 117.5 c 128,-1,44
 508 137 508 137 522.5 162 c 128,-1,45
 537 187 537 187 541 213 c 2,46,-1
 571 353 l 2,23,24
EndSplineSet
EndChar
StartChar: Lslash
Encoding: 321 321 193
Width: 716
VWidth: 1507
Flags: W
HStem: 0 84<222 665> 517 20G<400.176 426.862> 717 20G<242.746 360>
Fore
74 315 m 1,0,-1
 170 375 l 1,1,-1
 247 737 l 1,2,-1
 360 737 l 1,3,-1
 300 452 l 1,4,-1
 431 537 l 1,5,-1
 407 421 l 1,6,-1
 277 341 l 1,7,-1
 222 84 l 1,8,-1
 681 84 l 1,9,-1
 665 0 l 1,10,-1
 92 0 l 1,11,-1
 146 259 l 1,12,-1
 50 199 l 1,13,-1
 74 315 l 1,0,-1
EndSplineSet
EndChar
StartChar: lslash
Encoding: 322 322 194
Width: 324
VWidth: 1507
Flags: W
HStem: 0 21G<106 220.171> 515 20G<377.794 402.772>
VStem: 68 339<196 535 -45.0556 196>
Fore
89 314 m 1,0,-1
 185 381 l 1,1,-1
 259 730 l 1,2,-1
 369 730 l 1,3,-1
 315 472 l 1,4,-1
 407 535 l 1,5,-1
 381 412 l 1,6,-1
 289 350 l 1,7,-1
 216 0 l 1,8,-1
 106 0 l 1,9,-1
 160 259 l 1,10,-1
 68 196 l 1,11,-1
 89 314 l 1,0,-1
EndSplineSet
EndChar
StartChar: OE
Encoding: 338 338 195
Width: 1214
VWidth: 1507
Flags: W
HStem: 0 92<258.041 459.093 666 1144> 338 90<739 1138> 647 90<423.281 618.037 785 1281>
Fore
315 0 m 2,0,1
 259 0 259 0 214.5 19 c 128,-1,2
 170 38 170 38 141.5 71 c 128,-1,3
 113 104 113 104 101.5 149 c 128,-1,4
 90 194 90 194 101 246 c 2,5,-1
 143 440 l 2,6,7
 157 503 157 503 193 557.5 c 128,-1,8
 229 612 229 612 280.5 652 c 128,-1,9
 332 692 332 692 394.5 714.5 c 128,-1,10
 457 737 457 737 523 737 c 2,11,-1
 1299 737 l 1,12,-1
 1281 647 l 1,13,-1
 785 647 l 1,14,-1
 739 428 l 1,15,-1
 1158 428 l 1,16,-1
 1138 338 l 1,17,-1
 719 338 l 1,18,-1
 666 92 l 1,19,-1
 1162 92 l 1,20,-1
 1144 0 l 1,21,-1
 315 0 l 2,0,1
419 92 m 2,22,23
 457 92 457 92 494 104 c 128,-1,24
 531 116 531 116 567 143 c 1,25,-1
 668 621 l 1,26,27
 650 633 650 633 630 640 c 128,-1,28
 610 647 610 647 589 647 c 2,29,-1
 505 647 l 2,30,31
 463 647 463 647 422 631 c 128,-1,32
 381 615 381 615 347.5 587 c 128,-1,33
 314 559 314 559 289 521.5 c 128,-1,34
 264 484 264 484 255 440 c 2,35,-1
 213 246 l 2,36,37
 199 181 199 181 233.5 136.5 c 128,-1,38
 268 92 268 92 333 92 c 2,39,-1
 419 92 l 2,22,23
EndSplineSet
EndChar
StartChar: oe
Encoding: 339 339 196
Width: 990
VWidth: 1507
Flags: W
HStem: -8 83<237.614 344.25 609.767 719.583> 264 75<603 865> 452 85<345 454.386 675.846 827.048>
Fore
568 176 m 2,0,1
 565 158 565 158 568 140 c 128,-1,2
 571 122 571 122 578.5 107.5 c 128,-1,3
 586 93 586 93 599 84 c 128,-1,4
 612 75 612 75 629 75 c 2,5,-1
 692 75 l 2,6,7
 716 75 716 75 739.5 85 c 128,-1,8
 763 95 763 95 783 113 c 128,-1,9
 803 131 803 131 817.5 156 c 128,-1,10
 832 181 832 181 838 210 c 1,11,-1
 950 210 l 1,12,13
 939 161 939 161 912.5 122 c 128,-1,14
 886 83 886 83 848.5 53.5 c 128,-1,15
 811 24 811 24 766 8 c 128,-1,16
 721 -8 721 -8 674 -8 c 2,17,-1
 610 -8 l 2,18,19
 565 -8 565 -8 531 10.5 c 128,-1,20
 497 29 497 29 478 59 c 1,21,22
 439 29 439 29 393.5 10.5 c 128,-1,23
 348 -8 348 -8 300 -8 c 2,24,-1
 238 -8 l 2,25,26
 197 -8 197 -8 165.5 7.5 c 128,-1,27
 134 23 134 23 113.5 47.5 c 128,-1,28
 93 72 93 72 85 106 c 128,-1,29
 77 140 77 140 84 176 c 2,30,-1
 115 315 l 2,31,32
 124 360 124 360 151 400 c 128,-1,33
 178 440 178 440 215.5 471 c 128,-1,34
 253 502 253 502 298.5 519.5 c 128,-1,35
 344 537 344 537 390 537 c 2,36,-1
 454 537 l 2,37,38
 499 537 499 537 532 517 c 128,-1,39
 565 497 565 497 585 467 c 1,40,41
 624 502 624 502 667.5 519.5 c 128,-1,42
 711 537 711 537 764 537 c 2,43,-1
 826 537 l 2,44,45
 867 537 867 537 899.5 521.5 c 128,-1,46
 932 506 932 506 952 480.5 c 128,-1,47
 972 455 972 455 979.5 422 c 128,-1,48
 987 389 987 389 980 353 c 2,49,-1
 962 264 l 1,50,-1
 588 264 l 1,51,-1
 568 176 l 2,0,1
496 353 m 2,52,53
 500 371 500 371 497 388 c 128,-1,54
 494 405 494 405 486 419.5 c 128,-1,55
 478 434 478 434 465 443 c 128,-1,56
 452 452 452 452 436 452 c 2,57,-1
 372 452 l 2,58,59
 348 452 348 452 324 441 c 128,-1,60
 300 430 300 430 280.5 410 c 128,-1,61
 261 390 261 390 246.5 366 c 128,-1,62
 232 342 232 342 226 315 c 2,63,-1
 196 176 l 2,64,65
 193 158 193 158 196 140 c 128,-1,66
 199 122 199 122 206.5 107.5 c 128,-1,67
 214 93 214 93 227 84 c 128,-1,68
 240 75 240 75 256 75 c 2,69,-1
 318 75 l 2,70,71
 342 75 342 75 366 86.5 c 128,-1,72
 390 98 390 98 410.5 117.5 c 128,-1,73
 431 137 431 137 446 162 c 128,-1,74
 461 187 461 187 466 213 c 2,75,-1
 496 353 l 2,52,53
746 452 m 2,76,77
 701 452 701 452 660.5 419 c 128,-1,78
 620 386 620 386 603 339 c 1,79,-1
 865 339 l 1,80,-1
 868 353 l 2,81,82
 873 371 873 371 870 388 c 128,-1,83
 867 405 867 405 858.5 419.5 c 128,-1,84
 850 434 850 434 837.5 443 c 128,-1,85
 825 452 825 452 808 452 c 2,86,-1
 746 452 l 2,76,77
EndSplineSet
EndChar
StartChar: florin
Encoding: 402 402 202
Width: 791
VWidth: 1507
Flags: W
HStem: -220 90<15 115.952> 460 69<345 443 574 666> 724 90<831.204 883>
Fore
437 74 m 0,0,1
 415 2 415 2 369 -52.5 c 128,-1,2
 323 -107 323 -107 261.5 -144.5 c 128,-1,3
 200 -182 200 -182 130 -201 c 128,-1,4
 60 -220 60 -220 -11 -220 c 1,5,-1
 15 -130 l 1,6,7
 68 -130 68 -130 117.5 -116.5 c 128,-1,8
 167 -103 167 -103 209.5 -76.5 c 128,-1,9
 252 -50 252 -50 282 -11.5 c 128,-1,10
 312 27 312 27 327 77 c 2,11,-1
 443 460 l 1,12,-1
 327 460 l 1,13,-1
 345 529 l 1,14,-1
 464 529 l 1,15,16
 487 598 487 598 533.5 651 c 128,-1,17
 580 704 580 704 639.5 740 c 128,-1,18
 699 776 699 776 768.5 795 c 128,-1,19
 838 814 838 814 909 814 c 1,20,-1
 883 724 l 1,21,22
 832 724 832 724 784 711 c 128,-1,23
 736 698 736 698 695 673 c 128,-1,24
 654 648 654 648 623 612 c 128,-1,25
 592 576 592 576 574 529 c 1,26,-1
 684 529 l 1,27,-1
 666 460 l 1,28,-1
 553 460 l 1,29,30
 525 365 525 365 496 267 c 128,-1,31
 467 169 467 169 437 74 c 0,0,1
EndSplineSet
EndChar
StartChar: circumflex
Encoding: 710 710 203
Width: 512
VWidth: 1507
Flags: W
HStem: 736 197<493 502 416 604 416 416>
VStem: 229 375<736 736 736 924>
Fore
416 933 m 1,0,-1
 502 933 l 1,1,-1
 604 736 l 1,2,-1
 493 736 l 1,3,-1
 440 844 l 1,4,-1
 341 736 l 1,5,-1
 229 736 l 1,6,-1
 416 933 l 1,0,-1
EndSplineSet
EndChar
StartChar: caron
Encoding: 711 711 204
Width: 512
VWidth: 1507
Flags: W
HStem: 736 197<374 383 271 460 271 271>
VStem: 271 376<933 933 933 1122>
Fore
271 933 m 1,0,-1
 383 933 l 1,1,-1
 436 825 l 1,2,-1
 535 933 l 1,3,-1
 647 933 l 1,4,-1
 460 736 l 1,5,-1
 374 736 l 1,6,-1
 271 933 l 1,0,-1
EndSplineSet
EndChar
StartChar: breve
Encoding: 728 728 205
Width: 494
VWidth: 1507
Flags: W
HStem: 626 70<341.02 450.194>
VStem: 227.5 373.5<772 772 738.5 811 738.5 738.5> 506 95<754.776 811>
Fore
601 811 m 1,0,1
 592 772 592 772 571 738.5 c 128,-1,2
 550 705 550 705 519 679.5 c 128,-1,3
 488 654 488 654 451.5 640 c 128,-1,4
 415 626 415 626 377 626 c 0,5,6
 338 626 338 626 307 640 c 128,-1,7
 276 654 276 654 255.5 679.5 c 128,-1,8
 235 705 235 705 227.5 738.5 c 128,-1,9
 220 772 220 772 229 811 c 1,10,-1
 324 811 l 1,11,12
 314 764 314 764 332.5 730 c 128,-1,13
 351 696 351 696 392 696 c 0,14,15
 431 696 431 696 463.5 730 c 128,-1,16
 496 764 496 764 506 811 c 1,17,-1
 601 811 l 1,0,1
EndSplineSet
EndChar
StartChar: dotaccent
Encoding: 729 729 206
Width: 266
VWidth: 1507
Flags: W
HStem: 638 128<238.267 322.217>
VStem: 205 149<683.389 753.214>
Fore
205 701 m 0,0,1
 213 730 213 730 237.5 748 c 128,-1,2
 262 766 262 766 294 766 c 256,3,4
 326 766 326 766 344 748 c 128,-1,5
 362 730 362 730 354 701 c 0,6,7
 348 674 348 674 323 656 c 128,-1,8
 298 638 298 638 267 638 c 256,9,10
 235 638 235 638 217 656 c 128,-1,11
 199 674 199 674 205 701 c 0,0,1
EndSplineSet
EndChar
StartChar: ring
Encoding: 730 730 207
Width: 459
VWidth: 1507
Flags: W
HStem: 595 73<339.845 383.573> 758 71<351.657 412.187>
VStem: 246 260<687 711 758 760 711 711 711 711>
Fore
246 711 m 256,0,1
 256 760 256 760 300.5 794.5 c 128,-1,2
 345 829 345 829 401 829 c 0,3,4
 455 829 455 829 486 794.5 c 128,-1,5
 517 760 517 760 506 711 c 0,6,7
 502 687 502 687 487 666 c 128,-1,8
 472 645 472 645 451 629.5 c 128,-1,9
 430 614 430 614 404 604.5 c 128,-1,10
 378 595 378 595 351 595 c 0,11,12
 295 595 295 595 265 629 c 128,-1,13
 235 663 235 663 246 711 c 256,0,1
338 711 m 0,14,15
 333 692 333 692 342 680 c 128,-1,16
 351 668 351 668 368 668 c 256,17,18
 384 668 384 668 398 680 c 128,-1,19
 412 692 412 692 416 711 c 0,20,21
 419 731 419 731 410.5 744.5 c 128,-1,22
 402 758 402 758 386 758 c 256,23,24
 369 758 369 758 355 744.5 c 128,-1,25
 341 731 341 731 338 711 c 0,14,15
EndSplineSet
EndChar
StartChar: tilde
Encoding: 732 732 209
Width: 318
VWidth: 1507
Flags: W
HStem: 610 76<349.946 410.954> 710 74<191.974 234.837>
VStem: 59 83<635.391 695.425> 461 85<716.529 778>
Fore
389 686 m 0,0,1
 405 686 405 686 427 711.5 c 128,-1,2
 449 737 449 737 461 778 c 1,3,-1
 546 778 l 1,4,5
 537 734 537 734 515.5 703 c 128,-1,6
 494 672 494 672 469.5 651 c 128,-1,7
 445 630 445 630 419 620 c 128,-1,8
 393 610 393 610 374 610 c 0,9,10
 347 610 347 610 327.5 615.5 c 128,-1,11
 308 621 308 621 294 630 c 128,-1,12
 280 639 280 639 271 650.5 c 128,-1,13
 262 662 262 662 255 674 c 0,14,15
 244 687 244 687 235 698.5 c 128,-1,16
 226 710 226 710 214 710 c 0,17,18
 197 710 197 710 176 684.5 c 128,-1,19
 155 659 155 659 142 618 c 1,20,-1
 59 618 l 1,21,22
 68 660 68 660 88.5 692 c 128,-1,23
 109 724 109 724 133.5 744 c 128,-1,24
 158 764 158 764 184 774 c 128,-1,25
 210 784 210 784 229 784 c 0,26,27
 273 784 273 784 294 766.5 c 128,-1,28
 315 749 315 749 329 730 c 0,29,30
 341 713 341 713 353.5 699.5 c 128,-1,31
 366 686 366 686 389 686 c 0,0,1
EndSplineSet
EndChar
StartChar: uni0E01
Encoding: 3585 3585 212
Width: 645
VWidth: 1507
Flags: W
HStem: 0 21G<99 215.25 448 560.204> 531 83<362.25 528.648>
Fore
543 452 m 1,0,1
 549 482 549 482 531 506.5 c 128,-1,2
 513 531 513 531 469 531 c 2,3,-1
 393 531 l 2,4,5
 369 531 369 531 345 522.5 c 128,-1,6
 321 514 321 514 300 499.5 c 128,-1,7
 279 485 279 485 261.5 467 c 128,-1,8
 244 449 244 449 232 431 c 1,9,10
 247 425 247 425 257 411.5 c 128,-1,11
 267 398 267 398 273 382 c 128,-1,12
 279 366 279 366 279.5 349.5 c 128,-1,13
 280 333 280 333 279 320 c 2,14,-1
 211 0 l 1,15,-1
 99 0 l 1,16,-1
 167 320 l 2,17,18
 172 345 172 345 157 366 c 128,-1,19
 142 387 142 387 115 390 c 1,20,21
 128 437 128 437 159.5 478 c 128,-1,22
 191 519 191 519 232 549 c 128,-1,23
 273 579 273 579 320.5 596.5 c 128,-1,24
 368 614 368 614 416 614 c 2,25,-1
 537 614 l 2,26,27
 564 614 564 614 588 600 c 128,-1,28
 612 586 612 586 628 564.5 c 128,-1,29
 644 543 644 543 650.5 513.5 c 128,-1,30
 657 484 657 484 651 452 c 2,31,-1
 556 0 l 1,32,-1
 448 0 l 1,33,-1
 543 452 l 1,0,1
EndSplineSet
EndChar
StartChar: uni0E02
Encoding: 3586 3586 213
Width: 607
VWidth: 1507
Flags: W
HStem: 323 52<185.667 265.872> 547 67<273.403 341.333>
Fore
380 83 m 1,0,1
 390 83 390 83 404.5 89 c 128,-1,2
 419 95 419 95 432 104 c 128,-1,3
 445 113 445 113 454.5 126 c 128,-1,4
 464 139 464 139 467 152 c 2,5,-1
 565 614 l 1,6,-1
 660 614 l 1,7,-1
 564 163 l 2,8,9
 558 133 558 133 538.5 103.5 c 128,-1,10
 519 74 519 74 491 51.5 c 128,-1,11
 463 29 463 29 429.5 15.5 c 128,-1,12
 396 2 396 2 363 2 c 2,13,-1
 338 2 l 2,14,15
 303 2 303 2 281 25 c 128,-1,16
 259 48 259 48 267 80 c 2,17,-1
 304 258 l 2,18,19
 311 285 311 285 321.5 306 c 128,-1,20
 332 327 332 327 344 346.5 c 128,-1,21
 356 366 356 366 366.5 387.5 c 128,-1,22
 377 409 377 409 383 436 c 0,23,24
 387 458 387 458 382.5 477.5 c 128,-1,25
 378 497 378 497 367 513 c 128,-1,26
 356 529 356 529 339.5 538 c 128,-1,27
 323 547 323 547 304 547 c 0,28,29
 288 547 288 547 278 542.5 c 128,-1,30
 268 538 268 538 265 535 c 1,31,32
 309 535 309 535 328.5 502 c 128,-1,33
 348 469 348 469 339 430 c 0,34,35
 330 387 330 387 294.5 355 c 128,-1,36
 259 323 259 323 213 323 c 0,37,38
 182 323 182 323 162 334 c 128,-1,39
 142 345 142 345 129 363 c 128,-1,40
 116 381 116 381 113 404 c 128,-1,41
 110 427 110 427 115 449 c 0,42,43
 122 490 122 490 151 531 c 0,44,45
 182 570 182 570 224.5 592 c 128,-1,46
 267 614 267 614 318 614 c 0,47,48
 401 612 401 612 435 562.5 c 128,-1,49
 469 513 469 513 452 437 c 2,50,-1
 380 83 l 1,0,1
179 430 m 256,51,52
 175 407 175 407 187 391 c 128,-1,53
 199 375 199 375 222 375 c 256,54,55
 244 375 244 375 263.5 391 c 128,-1,56
 283 407 283 407 288 430 c 256,57,58
 292 452 292 452 280 468 c 128,-1,59
 268 484 268 484 246 484 c 256,60,61
 223 484 223 484 203.5 468 c 128,-1,62
 184 452 184 452 179 430 c 256,51,52
EndSplineSet
EndChar
StartChar: uni0E03
Encoding: 3587 3587 214
Width: 625
VWidth: 1507
Flags: W
HStem: 0 21G<331.5 390.5> 308 46<162.379 244.358> 463 45<214.498 249.602> 594 20G<572.758 672>
Fore
291 546 m 1,0,1
 261 543 261 543 242 531 c 128,-1,2
 223 519 223 519 214 508 c 1,3,-1
 234 508 l 2,4,5
 249 508 249 508 264.5 500.5 c 128,-1,6
 280 493 280 493 292 479.5 c 128,-1,7
 304 466 304 466 309.5 448 c 128,-1,8
 315 430 315 430 311 409 c 0,9,10
 301 363 301 363 267.5 335.5 c 128,-1,11
 234 308 234 308 190 308 c 0,12,13
 161 308 161 308 141.5 320 c 128,-1,14
 122 332 122 332 110.5 350.5 c 128,-1,15
 99 369 99 369 97 393.5 c 128,-1,16
 95 418 95 418 99 443 c 0,17,18
 107 479 107 479 129 510 c 128,-1,19
 151 541 151 541 182 564.5 c 128,-1,20
 213 588 213 588 249 602.5 c 128,-1,21
 285 617 285 617 321 617 c 1,22,-1
 384 552 l 1,23,-1
 467 617 l 1,24,25
 506 597 506 597 517 558 c 128,-1,26
 528 519 528 519 517 473 c 0,27,28
 513 451 513 451 500.5 428 c 128,-1,29
 488 405 488 405 474.5 382 c 128,-1,30
 461 359 461 359 449 335 c 128,-1,31
 437 311 437 311 433 286 c 2,32,-1
 389 83 l 1,33,34
 399 84 399 84 414.5 89.5 c 128,-1,35
 430 95 430 95 443.5 104 c 128,-1,36
 457 113 457 113 466.5 126 c 128,-1,37
 476 139 476 139 479 152 c 2,38,-1
 577 614 l 1,39,-1
 672 614 l 1,40,-1
 576 163 l 2,41,42
 570 131 570 131 549.5 101.5 c 128,-1,43
 529 72 529 72 501 49.5 c 128,-1,44
 473 27 473 27 440 13.5 c 128,-1,45
 407 0 407 0 374 0 c 2,46,-1
 348 0 l 2,47,48
 315 0 315 0 292.5 23.5 c 128,-1,49
 270 47 270 47 277 78 c 2,50,-1
 318 271 l 2,51,52
 324 300 324 300 331 318 c 128,-1,53
 338 336 338 336 347.5 349 c 128,-1,54
 357 362 357 362 370.5 374 c 128,-1,55
 384 386 384 386 404 404 c 0,56,57
 424 421 424 421 438 445 c 128,-1,58
 452 469 452 469 457 491 c 0,59,60
 461 517 461 517 452 534 c 1,61,-1
 366 469 l 1,62,-1
 291 546 l 1,0,1
157 409 m 256,63,64
 152 386 152 386 164 370 c 128,-1,65
 176 354 176 354 199 354 c 256,66,67
 222 354 222 354 241.5 370 c 128,-1,68
 261 386 261 386 265 409 c 256,69,70
 270 431 270 431 258 447 c 128,-1,71
 246 463 246 463 223 463 c 256,72,73
 200 463 200 463 180.5 447 c 128,-1,74
 161 431 161 431 157 409 c 256,63,64
EndSplineSet
EndChar
StartChar: uni0E04
Encoding: 3588 3588 215
Width: 687
VWidth: 1507
Flags: W
HStem: 0 21G<75 213.682 494 610.204> 202 50<356.026 437.696> 360 53<371.908 452.928> 531 83<382.359 579.673>
Fore
559 614 m 2,0,1
 635 614 635 614 675.5 568.5 c 128,-1,2
 716 523 716 523 701 452 c 2,3,-1
 606 0 l 1,4,-1
 494 0 l 1,5,-1
 589 452 l 2,6,7
 597 481 597 481 582 506 c 128,-1,8
 567 531 567 531 541 531 c 2,9,-1
 434 531 l 2,10,11
 409 531 409 531 381.5 517 c 128,-1,12
 354 503 354 503 331 482 c 128,-1,13
 308 461 308 461 290.5 435 c 128,-1,14
 273 409 273 409 267 383 c 2,15,-1
 228 196 l 1,16,-1
 297 339 l 2,17,18
 317 372 317 372 352 392.5 c 128,-1,19
 387 413 387 413 428 413 c 0,20,21
 479 413 479 413 505.5 380.5 c 128,-1,22
 532 348 532 348 523 306 c 0,23,24
 513 262 513 262 470.5 232 c 128,-1,25
 428 202 428 202 383 202 c 0,26,27
 365 202 365 202 352 205 c 128,-1,28
 339 208 339 208 327 214 c 1,29,-1
 202 0 l 1,30,-1
 75 0 l 1,31,-1
 155 383 l 2,32,33
 164 425 164 425 193.5 466.5 c 128,-1,34
 223 508 223 508 263.5 540.5 c 128,-1,35
 304 573 304 573 352.5 593.5 c 128,-1,36
 401 614 401 614 448 614 c 2,37,-1
 559 614 l 2,0,1
351 306 m 0,38,39
 345 283 345 283 358 267.5 c 128,-1,40
 371 252 371 252 393 252 c 256,41,42
 416 252 416 252 435 267.5 c 128,-1,43
 454 283 454 283 460 306 c 0,44,45
 464 329 464 329 451.5 344.5 c 128,-1,46
 439 360 439 360 416 360 c 256,47,48
 393 360 393 360 374.5 344.5 c 128,-1,49
 356 329 356 329 351 306 c 0,38,39
EndSplineSet
EndChar
StartChar: uni0E05
Encoding: 3589 3589 216
Width: 691
VWidth: 1507
Flags: W
HStem: 0 21G<494 610.185> 203 50<357.353 423.346> 362 53<372.57 453.186> 595 20G<400.5 432.839 566.043 597.5>
Fore
157 384 m 2,0,1
 166 425 166 425 194.5 465.5 c 128,-1,2
 223 506 223 506 261.5 538.5 c 128,-1,3
 300 571 300 571 341.5 591.5 c 128,-1,4
 383 612 383 612 418 615 c 1,5,-1
 487 522 l 1,6,-1
 588 614 l 1,7,8
 607 612 607 612 630 599 c 128,-1,9
 653 586 653 586 671 564.5 c 128,-1,10
 689 543 689 543 698 514 c 128,-1,11
 707 485 707 485 701 454 c 2,12,-1
 606 0 l 1,13,-1
 494 0 l 1,14,-1
 589 454 l 2,15,16
 594 475 594 475 590 496 c 128,-1,17
 586 517 586 517 571 526 c 1,18,-1
 469 437 l 1,19,-1
 399 526 l 1,20,21
 377 520 377 520 355 505.5 c 128,-1,22
 333 491 333 491 315.5 471.5 c 128,-1,23
 298 452 298 452 285.5 429.5 c 128,-1,24
 273 407 273 407 268 384 c 2,25,-1
 228 197 l 1,26,-1
 298 341 l 2,27,28
 318 374 318 374 352.5 394.5 c 128,-1,29
 387 415 387 415 428 415 c 0,30,31
 479 415 479 415 505.5 382.5 c 128,-1,32
 532 350 532 350 523 308 c 0,33,34
 519 285 519 285 504.5 266 c 128,-1,35
 490 247 490 247 471 233.5 c 128,-1,36
 452 220 452 220 428.5 211.5 c 128,-1,37
 405 203 405 203 383 203 c 0,38,39
 365 203 365 203 352 206.5 c 128,-1,40
 339 210 339 210 327 216 c 1,41,-1
 202 2 l 1,42,-1
 75 2 l 1,43,-1
 157 384 l 2,0,1
351 308 m 256,44,45
 347 285 347 285 359 269 c 128,-1,46
 371 253 371 253 393 253 c 256,47,48
 416 253 416 253 435.5 269 c 128,-1,49
 455 285 455 285 460 308 c 256,50,51
 464 330 464 330 452 346 c 128,-1,52
 440 362 440 362 418 362 c 256,53,54
 395 362 395 362 375.5 346 c 128,-1,55
 356 330 356 330 351 308 c 256,44,45
EndSplineSet
EndChar
StartChar: uni0E06
Encoding: 3590 3590 217
Width: 771
VWidth: 1507
Flags: W
HStem: 0 21G<258.5 284 568 688.235> 308 46<164.647 244.91> 463 45<216.498 250.735> 594 20G<700.796 814>
VStem: 98.5 59.5<377.885 393.5 393.5 428.2>
Fore
425 247 m 1,0,1
 487 231 487 231 531.5 202 c 128,-1,2
 576 173 576 173 606 143 c 1,3,-1
 705 614 l 1,4,-1
 814 614 l 1,5,-1
 684 0 l 1,6,-1
 583 0 l 1,7,8
 553 56 553 56 507 92 c 128,-1,9
 461 128 461 128 407 146 c 1,10,-1
 387 54 l 1,11,12
 375 41 375 41 365.5 31 c 128,-1,13
 356 21 356 21 344 13.5 c 128,-1,14
 332 6 332 6 314.5 2 c 128,-1,15
 297 -2 297 -2 271 -2 c 256,16,17
 246 -2 246 -2 225.5 9 c 128,-1,18
 205 20 205 20 190.5 38 c 128,-1,19
 176 56 176 56 170 77.5 c 128,-1,20
 164 99 164 99 169 122 c 0,21,22
 173 143 173 143 187.5 164 c 128,-1,23
 202 185 202 185 222.5 202.5 c 128,-1,24
 243 220 243 220 267 230.5 c 128,-1,25
 291 241 291 241 314 241 c 1,26,-1
 320 271 l 2,27,28
 326 300 326 300 332.5 318 c 128,-1,29
 339 336 339 336 349 349 c 128,-1,30
 359 362 359 362 372.5 374 c 128,-1,31
 386 386 386 386 405 404 c 0,32,33
 425 421 425 421 439.5 445 c 128,-1,34
 454 469 454 469 458 491 c 0,35,36
 463 517 463 517 454 534 c 1,37,-1
 368 469 l 1,38,-1
 292 546 l 1,39,40
 262 543 262 543 243.5 531 c 128,-1,41
 225 519 225 519 216 508 c 1,42,-1
 235 508 l 2,43,44
 250 508 250 508 266 500.5 c 128,-1,45
 282 493 282 493 294 479.5 c 128,-1,46
 306 466 306 466 311.5 448 c 128,-1,47
 317 430 317 430 312 409 c 0,48,49
 303 363 303 363 269 335.5 c 128,-1,50
 235 308 235 308 191 308 c 0,51,52
 163 308 163 308 143.5 320 c 128,-1,53
 124 332 124 332 112.5 350.5 c 128,-1,54
 101 369 101 369 98.5 393.5 c 128,-1,55
 96 418 96 418 101 443 c 0,56,57
 109 479 109 479 130.5 510 c 128,-1,58
 152 541 152 541 183 564.5 c 128,-1,59
 214 588 214 588 250 602.5 c 128,-1,60
 286 617 286 617 323 617 c 1,61,-1
 386 552 l 1,62,-1
 469 617 l 1,63,64
 508 597 508 597 518.5 558 c 128,-1,65
 529 519 529 519 519 473 c 0,66,67
 514 451 514 451 502 428 c 128,-1,68
 490 405 490 405 476.5 382 c 128,-1,69
 463 359 463 359 451 335 c 128,-1,70
 439 311 439 311 434 286 c 2,71,-1
 425 247 l 1,0,1
158 409 m 256,72,73
 154 386 154 386 166 370 c 128,-1,74
 178 354 178 354 200 354 c 256,75,76
 223 354 223 354 242.5 370 c 128,-1,77
 262 386 262 386 267 409 c 256,78,79
 271 431 271 431 259 447 c 128,-1,80
 247 463 247 463 225 463 c 256,81,82
 202 463 202 463 182.5 447 c 128,-1,83
 163 431 163 431 158 409 c 256,72,73
238 119 m 0,84,85
 234 95 234 95 244.5 75.5 c 128,-1,86
 255 56 255 56 274 45 c 1,87,-1
 304 191 l 1,88,89
 279 185 279 185 261.5 165 c 128,-1,90
 244 145 244 145 238 119 c 0,84,85
EndSplineSet
EndChar
StartChar: uni0E07
Encoding: 3591 3591 218
Width: 563
VWidth: 1507
Flags: W
HStem: 0 21G<366 485.196> 402 50<422.378 454> 561 49<452.569 516.694>
VStem: 104 484<410 510 410 410>
Fore
454 402 m 1,0,1
 409 402 409 402 378.5 433 c 128,-1,2
 348 464 348 464 357 508 c 0,3,4
 362 528 362 528 375.5 546.5 c 128,-1,5
 389 565 389 565 408.5 579.5 c 128,-1,6
 428 594 428 594 450.5 602 c 128,-1,7
 473 610 473 610 496 610 c 0,8,9
 540 610 540 610 568.5 580 c 128,-1,10
 597 550 597 550 588 510 c 2,11,-1
 481 0 l 1,12,-1
 390 0 l 2,13,14
 342 0 342 0 309.5 22 c 128,-1,15
 277 44 277 44 261 78 c 0,16,17
 222 155 222 155 181 244 c 128,-1,18
 140 333 140 333 104 410 c 1,19,-1
 229 410 l 1,20,-1
 368 104 l 2,21,22
 372 96 372 96 376.5 94 c 128,-1,23
 381 92 381 92 387 89 c 1,24,-1
 454 402 l 1,0,1
415 506 m 256,25,26
 410 484 410 484 422 468 c 128,-1,27
 434 452 434 452 457 452 c 256,28,29
 479 452 479 452 499 468 c 128,-1,30
 519 484 519 484 523 506 c 256,31,32
 528 529 528 529 515.5 545 c 128,-1,33
 503 561 503 561 481 561 c 256,34,35
 458 561 458 561 438.5 545 c 128,-1,36
 419 529 419 529 415 506 c 256,25,26
EndSplineSet
EndChar
StartChar: uni0E08
Encoding: 3592 3592 219
Width: 628
VWidth: 1507
Flags: W
HStem: 0 21G<274 391> 193 50<282.893 315> 351 50<313.166 377.944> 531 83<304.169 528.381>
Fore
315 193 m 1,0,1
 270 193 270 193 240 224 c 128,-1,2
 210 255 210 255 219 298 c 0,3,4
 223 318 223 318 236 337 c 128,-1,5
 249 356 249 356 268.5 370 c 128,-1,6
 288 384 288 384 310.5 392.5 c 128,-1,7
 333 401 333 401 356 401 c 0,8,9
 399 401 399 401 428 371 c 128,-1,10
 457 341 457 341 449 300 c 2,11,-1
 407 101 l 1,12,13
 428 103 428 103 451.5 123 c 128,-1,14
 475 143 475 143 482 184 c 2,15,-1
 540 451 l 2,16,17
 546 479 546 479 531.5 505 c 128,-1,18
 517 531 517 531 491 531 c 2,19,-1
 381 531 l 2,20,21
 333 531 333 531 282 496 c 128,-1,22
 231 461 231 461 199 415 c 1,23,-1
 119 443 l 1,24,25
 166 516 166 516 241.5 564 c 128,-1,26
 317 612 317 612 399 614 c 2,27,-1
 499 614 l 2,28,29
 534 614 534 614 562.5 600 c 128,-1,30
 591 586 591 586 610 563.5 c 128,-1,31
 629 541 629 541 636.5 511.5 c 128,-1,32
 644 482 644 482 638 451 c 2,33,-1
 576 157 l 2,34,35
 570 127 570 127 549.5 99 c 128,-1,36
 529 71 529 71 501 49 c 128,-1,37
 473 27 473 27 440 13.5 c 128,-1,38
 407 0 407 0 375 0 c 2,39,-1
 274 0 l 1,40,-1
 315 193 l 1,0,1
274 297 m 0,41,42
 270 274 270 274 282.5 258.5 c 128,-1,43
 295 243 295 243 318 243 c 256,44,45
 341 243 341 243 359.5 258.5 c 128,-1,46
 378 274 378 274 383 297 c 0,47,48
 389 320 389 320 376 335.5 c 128,-1,49
 363 351 363 351 341 351 c 256,50,51
 318 351 318 351 299 335.5 c 128,-1,52
 280 320 280 320 274 297 c 0,41,42
EndSplineSet
EndChar
StartChar: uni0E09
Encoding: 3593 3593 220
Width: 661
VWidth: 1507
Flags: W
HStem: 0 60<502.316 565.328> 128 50<151.547 192.21 185.062 199.358> 286 50<176.569 241.573> 531 83<342.625 551.173>
Fore
139 232 m 256,0,1
 134 210 134 210 147 194 c 128,-1,2
 160 178 160 178 182 178 c 256,3,4
 205 178 205 178 224 194 c 128,-1,5
 243 210 243 210 247 232 c 256,6,7
 252 255 252 255 240 270.5 c 128,-1,8
 228 286 228 286 205 286 c 256,9,10
 182 286 182 286 162.5 270.5 c 128,-1,11
 143 255 143 255 139 232 c 256,0,1
430 98 m 1,12,13
 389 77 389 77 345 49 c 128,-1,14
 301 21 301 21 262 0 c 1,15,-1
 173 0 l 1,16,-1
 200 131 l 1,17,18
 196 130 196 130 191 130 c 2,19,20
 187 128 187 128 179 128 c 0,21,22
 157 128 157 128 137.5 136.5 c 128,-1,23
 118 145 118 145 103.5 159 c 128,-1,24
 89 173 89 173 83 193 c 128,-1,25
 77 213 77 213 81 234 c 0,26,27
 86 253 86 253 99.5 272 c 128,-1,28
 113 291 113 291 132.5 305.5 c 128,-1,29
 152 320 152 320 174.5 328 c 128,-1,30
 197 336 197 336 220 336 c 0,31,32
 264 336 264 336 292.5 306 c 128,-1,33
 321 276 321 276 314 235 c 2,34,-1
 285 106 l 1,35,36
 342 136 342 136 399.5 172 c 128,-1,37
 457 208 457 208 516 238 c 1,38,-1
 561 449 l 2,39,40
 568 479 568 479 554 505 c 128,-1,41
 540 531 540 531 511 531 c 2,42,-1
 375 531 l 2,43,44
 347 531 347 531 319 521 c 128,-1,45
 291 511 291 511 267.5 493.5 c 128,-1,46
 244 476 244 476 224.5 454.5 c 128,-1,47
 205 433 205 433 191 410 c 1,48,-1
 104 410 l 1,49,50
 116 445 116 445 141.5 481 c 128,-1,51
 167 517 167 517 205 546.5 c 128,-1,52
 243 576 243 576 290.5 595 c 128,-1,53
 338 614 338 614 393 614 c 2,54,-1
 532 614 l 2,55,56
 567 614 567 614 595.5 600 c 128,-1,57
 624 586 624 586 643.5 563.5 c 128,-1,58
 663 541 663 541 670.5 511.5 c 128,-1,59
 678 482 678 482 672 449 c 2,60,-1
 624 222 l 1,61,62
 654 208 654 208 667.5 180 c 128,-1,63
 681 152 681 152 674 118 c 0,64,65
 669 93 669 93 654 72 c 128,-1,66
 639 51 639 51 618 35.5 c 128,-1,67
 597 20 597 20 571.5 10 c 128,-1,68
 546 0 546 0 522 0 c 0,69,70
 469 0 469 0 445.5 29.5 c 128,-1,71
 422 59 422 59 430 98 c 1,12,13
497 115 m 0,72,73
 491 92 491 92 504 76 c 128,-1,74
 517 60 517 60 540 60 c 256,75,76
 562 60 562 60 581 76 c 128,-1,77
 600 92 600 92 606 115 c 0,78,79
 610 137 610 137 597.5 153 c 128,-1,80
 585 169 585 169 562 169 c 256,81,82
 540 169 540 169 521 153 c 128,-1,83
 502 137 502 137 497 115 c 0,72,73
EndSplineSet
EndChar
StartChar: uni0E0A
Encoding: 3594 3594 221
Width: 621
VWidth: 1507
Flags: W
HStem: 0 21G<320.5 381.5> 323 52<185.667 265.872> 547 67<273.403 340.901>
Fore
516 377 m 2,0,1
 517 384 517 384 497.5 398.5 c 128,-1,2
 478 413 478 413 448 413 c 1,3,-1
 377 83 l 1,4,5
 387 83 387 83 402.5 88 c 128,-1,6
 418 93 418 93 431.5 103 c 128,-1,7
 445 113 445 113 454.5 126 c 128,-1,8
 464 139 464 139 467 154 c 2,9,-1
 516 377 l 2,0,1
318 614 m 0,10,11
 390 612 390 612 425 573.5 c 128,-1,12
 460 535 460 535 457 473 c 1,13,14
 497 490 497 490 525 511 c 128,-1,15
 553 532 553 532 572.5 560 c 128,-1,16
 592 588 592 588 606 622.5 c 128,-1,17
 620 657 620 657 632 699 c 1,18,-1
 745 699 l 1,19,20
 730 660 730 660 714 621.5 c 128,-1,21
 698 583 698 583 677 548.5 c 128,-1,22
 656 514 656 514 628 485.5 c 128,-1,23
 600 457 600 457 559 439 c 1,24,25
 577 427 577 427 592 412.5 c 128,-1,26
 607 398 607 398 612 386 c 1,27,-1
 564 163 l 2,28,29
 558 131 558 131 538.5 101.5 c 128,-1,30
 519 72 519 72 491 49.5 c 128,-1,31
 463 27 463 27 430.5 13.5 c 128,-1,32
 398 0 398 0 365 0 c 2,33,-1
 338 0 l 2,34,35
 303 0 303 0 281 23.5 c 128,-1,36
 259 47 259 47 267 78 c 2,37,-1
 304 258 l 2,38,39
 311 285 311 285 321.5 306 c 128,-1,40
 332 327 332 327 344 346.5 c 128,-1,41
 356 366 356 366 366.5 387.5 c 128,-1,42
 377 409 377 409 383 436 c 0,43,44
 387 458 387 458 382.5 477.5 c 128,-1,45
 378 497 378 497 367 513 c 128,-1,46
 356 529 356 529 339.5 538 c 128,-1,47
 323 547 323 547 304 547 c 0,48,49
 288 547 288 547 278 542.5 c 128,-1,50
 268 538 268 538 265 535 c 1,51,52
 309 535 309 535 328.5 502 c 128,-1,53
 348 469 348 469 339 430 c 0,54,55
 330 387 330 387 294.5 355 c 128,-1,56
 259 323 259 323 213 323 c 0,57,58
 182 323 182 323 162 334 c 128,-1,59
 142 345 142 345 129 363 c 128,-1,60
 116 381 116 381 113 404 c 128,-1,61
 110 427 110 427 115 449 c 0,62,63
 122 490 122 490 151 531 c 0,64,65
 182 570 182 570 224.5 592 c 128,-1,66
 267 614 267 614 318 614 c 0,10,11
179 430 m 256,67,68
 175 407 175 407 187 391 c 128,-1,69
 199 375 199 375 222 375 c 256,70,71
 244 375 244 375 263.5 391 c 128,-1,72
 283 407 283 407 288 430 c 256,73,74
 292 452 292 452 280 468 c 128,-1,75
 268 484 268 484 246 484 c 256,76,77
 223 484 223 484 203.5 468 c 128,-1,78
 184 452 184 452 179 430 c 256,67,68
EndSplineSet
EndChar
StartChar: uni0E0B
Encoding: 3595 3595 222
Width: 622
VWidth: 1507
Flags: W
HStem: 0 21G<330.5 388.5> 308 46<161.647 241.91> 463 45<213.498 247.735>
VStem: 95.5 59.5<377.885 393.5 393.5 428.2>
Fore
289 546 m 1,0,1
 259 543 259 543 240.5 531 c 128,-1,2
 222 519 222 519 213 508 c 1,3,-1
 232 508 l 2,4,5
 247 508 247 508 263 500.5 c 128,-1,6
 279 493 279 493 291 479.5 c 128,-1,7
 303 466 303 466 308.5 448 c 128,-1,8
 314 430 314 430 309 409 c 0,9,10
 300 363 300 363 266 335.5 c 128,-1,11
 232 308 232 308 188 308 c 0,12,13
 160 308 160 308 140.5 320 c 128,-1,14
 121 332 121 332 109.5 350.5 c 128,-1,15
 98 369 98 369 95.5 393.5 c 128,-1,16
 93 418 93 418 98 443 c 0,17,18
 106 479 106 479 127.5 510 c 128,-1,19
 149 541 149 541 180 564.5 c 128,-1,20
 211 588 211 588 247 602.5 c 128,-1,21
 283 617 283 617 320 617 c 1,22,-1
 383 552 l 1,23,-1
 466 617 l 1,24,25
 497 600 497 600 510 570.5 c 128,-1,26
 523 541 523 541 520 506 c 1,27,28
 549 522 549 522 567.5 540.5 c 128,-1,29
 586 559 586 559 599 583 c 128,-1,30
 612 607 612 607 622 636.5 c 128,-1,31
 632 666 632 666 644 704 c 1,32,-1
 754 704 l 1,33,-1
 739 660 l 2,34,35
 728 630 728 630 716 599 c 128,-1,36
 704 568 704 568 686.5 541 c 128,-1,37
 669 514 669 514 644.5 490 c 128,-1,38
 620 466 620 466 583 449 c 1,39,40
 629 418 629 418 624 393 c 2,41,-1
 574 163 l 2,42,43
 568 131 568 131 548.5 101.5 c 128,-1,44
 529 72 529 72 500.5 49.5 c 128,-1,45
 472 27 472 27 438.5 13.5 c 128,-1,46
 405 0 405 0 372 0 c 2,47,-1
 347 0 l 2,48,49
 314 0 314 0 291 23.5 c 128,-1,50
 268 47 268 47 276 78 c 2,51,-1
 317 271 l 2,52,53
 323 300 323 300 329.5 318 c 128,-1,54
 336 336 336 336 346 349 c 128,-1,55
 356 362 356 362 369.5 374 c 128,-1,56
 383 386 383 386 402 404 c 0,57,58
 419 419 419 419 435 444 c 128,-1,59
 451 469 451 469 455 493 c 0,60,61
 460 520 460 520 451 534 c 1,62,-1
 365 469 l 1,63,-1
 289 546 l 1,0,1
488 407 m 1,64,65
 470 377 470 377 453.5 347 c 128,-1,66
 437 317 437 317 430 286 c 2,67,-1
 386 83 l 1,68,69
 396 83 396 83 411.5 88 c 128,-1,70
 427 93 427 93 440.5 103 c 128,-1,71
 454 113 454 113 463.5 126 c 128,-1,72
 473 139 473 139 476 154 c 2,73,-1
 525 378 l 1,74,75
 522 386 522 386 512.5 396.5 c 128,-1,76
 503 407 503 407 488 407 c 1,64,65
155 409 m 256,77,78
 151 386 151 386 163 370 c 128,-1,79
 175 354 175 354 197 354 c 256,80,81
 220 354 220 354 239.5 370 c 128,-1,82
 259 386 259 386 264 409 c 256,83,84
 268 431 268 431 256 447 c 128,-1,85
 244 463 244 463 222 463 c 256,86,87
 199 463 199 463 179.5 447 c 128,-1,88
 160 431 160 431 155 409 c 256,77,78
EndSplineSet
EndChar
StartChar: uni0E0C
Encoding: 3596 3596 223
Width: 921
VWidth: 1507
Flags: W
HStem: 0 53<193.127 275.019> 161 52<255 288.107> 531 83<367.22 529.197>
VStem: 297 51<72.0997 107 107 137.281>
Fore
422 110 m 0,0,1
 418 89 418 89 427.5 68.5 c 128,-1,2
 437 48 437 48 452 44 c 1,3,-1
 479 175 l 1,4,5
 461 173 461 173 444 153 c 128,-1,6
 427 133 427 133 422 110 c 0,0,1
538 452 m 2,7,8
 546 482 546 482 531.5 506.5 c 128,-1,9
 517 531 517 531 491 531 c 2,10,-1
 393 531 l 2,11,12
 374 531 374 531 351.5 522.5 c 128,-1,13
 329 514 329 514 307 499.5 c 128,-1,14
 285 485 285 485 266 467 c 128,-1,15
 247 449 247 449 235 431 c 1,16,17
 265 415 265 415 274 380 c 128,-1,18
 283 345 283 345 277 318 c 2,19,-1
 255 213 l 1,20,-1
 264 213 l 2,21,22
 309 213 309 213 332.5 179.5 c 128,-1,23
 356 146 356 146 348 107 c 0,24,25
 338 63 338 63 303 31.5 c 128,-1,26
 268 0 268 0 220 0 c 0,27,28
 199 0 199 0 180 7 c 128,-1,29
 161 14 161 14 147 25 c 128,-1,30
 133 36 133 36 124.5 52.5 c 128,-1,31
 116 69 116 69 118 87 c 2,32,-1
 167 320 l 2,33,34
 172 345 172 345 157 366 c 128,-1,35
 142 387 142 387 115 390 c 1,36,37
 128 437 128 437 159.5 478 c 128,-1,38
 191 519 191 519 232 549 c 128,-1,39
 273 579 273 579 320.5 596.5 c 128,-1,40
 368 614 368 614 416 614 c 2,41,-1
 510 614 l 2,42,43
 543 614 543 614 571.5 600 c 128,-1,44
 600 586 600 586 620.5 564.5 c 128,-1,45
 641 543 641 543 649 513.5 c 128,-1,46
 657 484 657 484 651 452 c 2,47,-1
 600 213 l 1,48,49
 642 197 642 197 679 175.5 c 128,-1,50
 716 154 716 154 743 124 c 1,51,-1
 847 614 l 1,52,-1
 957 614 l 1,53,-1
 828 0 l 1,54,-1
 727 0 l 1,55,56
 692 44 692 44 659.5 78.5 c 128,-1,57
 627 113 627 113 583 130 c 1,58,-1
 565 44 l 1,59,60
 541 27 541 27 515.5 14.5 c 128,-1,61
 490 2 490 2 464 2 c 0,62,63
 412 2 412 2 388.5 32.5 c 128,-1,64
 365 63 365 63 375 109 c 0,65,66
 386 155 386 155 414 186 c 128,-1,67
 442 217 442 217 490 225 c 1,68,-1
 538 452 l 2,7,8
188 107 m 0,69,70
 182 84 182 84 195 68.5 c 128,-1,71
 208 53 208 53 231 53 c 256,72,73
 253 53 253 53 272 68.5 c 128,-1,74
 291 84 291 84 297 107 c 0,75,76
 301 130 301 130 288.5 145.5 c 128,-1,77
 276 161 276 161 253 161 c 256,78,79
 231 161 231 161 212 145.5 c 128,-1,80
 193 130 193 130 188 107 c 0,69,70
EndSplineSet
EndChar
StartChar: uni0E0D
Encoding: 3597 3597 224
Width: 927
VWidth: 1507
Flags: W
HStem: -261 82<487.28 590> -261 73<577 644.11> -71 42<487.569 554.409> 0 53<201.127 268.63> 0 98<585 727.935> 161 52<262 295.592> 531 83<374.349 538.279>
Fore
620 -131 m 0,0,1
 617 -149 617 -149 604.5 -162.5 c 128,-1,2
 592 -176 592 -176 577 -188 c 1,3,-1
 583 -188 l 2,4,5
 632 -188 632 -188 679.5 -150 c 128,-1,6
 727 -112 727 -112 752 -56 c 1,7,-1
 849 -56 l 1,8,9
 831 -98 831 -98 800 -135.5 c 128,-1,10
 769 -173 769 -173 729.5 -201 c 128,-1,11
 690 -229 690 -229 645.5 -245 c 128,-1,12
 601 -261 601 -261 558 -261 c 0,13,14
 523 -261 523 -261 490.5 -252.5 c 128,-1,15
 458 -244 458 -244 434 -228.5 c 128,-1,16
 410 -213 410 -213 398 -188.5 c 128,-1,17
 386 -164 386 -164 393 -131 c 0,18,19
 398 -112 398 -112 411 -93 c 128,-1,20
 424 -74 424 -74 442 -59.5 c 128,-1,21
 460 -45 460 -45 482.5 -37 c 128,-1,22
 505 -29 505 -29 528 -29 c 0,23,24
 574 -29 574 -29 601.5 -58 c 128,-1,25
 629 -87 629 -87 620 -131 c 0,0,1
517 614 m 2,26,27
 550 614 550 614 579.5 600 c 128,-1,28
 609 586 609 586 629.5 564.5 c 128,-1,29
 650 543 650 543 658 513.5 c 128,-1,30
 666 484 666 484 660 452 c 2,31,-1
 585 98 l 1,32,-1
 684 98 l 2,33,34
 710 101 710 101 734 125 c 128,-1,35
 758 149 758 149 766 179 c 2,36,-1
 858 614 l 1,37,-1
 969 614 l 1,38,-1
 874 164 l 2,39,40
 867 133 867 133 847.5 102.5 c 128,-1,41
 828 72 828 72 799 49.5 c 128,-1,42
 770 27 770 27 735.5 13.5 c 128,-1,43
 701 0 701 0 665 0 c 2,44,-1
 546 0 l 2,45,46
 508 0 508 0 487 23.5 c 128,-1,47
 466 47 466 47 469 77 c 2,48,-1
 549 452 l 2,49,50
 556 482 556 482 540.5 506.5 c 128,-1,51
 525 531 525 531 499 531 c 2,52,-1
 401 531 l 2,53,54
 381 531 381 531 358.5 522.5 c 128,-1,55
 336 514 336 514 314 499.5 c 128,-1,56
 292 485 292 485 273.5 467 c 128,-1,57
 255 449 255 449 243 431 c 1,58,59
 273 415 273 415 282 380 c 128,-1,60
 291 345 291 345 285 318 c 2,61,-1
 262 213 l 1,62,-1
 271 213 l 2,63,64
 294 213 294 213 313.5 203.5 c 128,-1,65
 333 194 333 194 346.5 179 c 128,-1,66
 360 164 360 164 367 145.5 c 128,-1,67
 374 127 374 127 369 107 c 0,68,69
 365 84 365 84 350.5 65.5 c 128,-1,70
 336 47 336 47 317 32 c 128,-1,71
 298 17 298 17 275 8.5 c 128,-1,72
 252 0 252 0 228 0 c 0,73,74
 207 0 207 0 188 7 c 128,-1,75
 169 14 169 14 154.5 25 c 128,-1,76
 140 36 140 36 132 52.5 c 128,-1,77
 124 69 124 69 125 87 c 2,78,-1
 175 320 l 2,79,80
 179 345 179 345 164 366 c 128,-1,81
 149 387 149 387 122 390 c 1,82,83
 136 437 136 437 167.5 478 c 128,-1,84
 199 519 199 519 239.5 549 c 128,-1,85
 280 579 280 579 327.5 596.5 c 128,-1,86
 375 614 375 614 424 614 c 2,87,-1
 517 614 l 2,26,27
196 107 m 0,88,89
 190 84 190 84 203 68.5 c 128,-1,90
 216 53 216 53 238 53 c 256,91,92
 261 53 261 53 279.5 68.5 c 128,-1,93
 298 84 298 84 304 107 c 0,94,95
 309 130 309 130 296 145.5 c 128,-1,96
 283 161 283 161 261 161 c 256,97,98
 238 161 238 161 219 145.5 c 128,-1,99
 200 130 200 130 196 107 c 0,88,89
452 -125 m 256,100,101
 448 -148 448 -148 460 -163.5 c 128,-1,102
 472 -179 472 -179 494 -179 c 256,103,104
 517 -179 517 -179 536.5 -163.5 c 128,-1,105
 556 -148 556 -148 561 -125 c 256,106,107
 565 -103 565 -103 553 -87 c 128,-1,108
 541 -71 541 -71 519 -71 c 256,109,110
 496 -71 496 -71 476.5 -87 c 128,-1,111
 457 -103 457 -103 452 -125 c 256,100,101
EndSplineSet
Substitution2: "Single Substitution lookup 22 subtable" uni0E0D.alt1
Substitution2: "Single Substitution lookup 22 subtable" uni0E0D.alt1
EndChar
StartChar: uni0E0E
Encoding: 3598 3598 225
Width: 666
VWidth: 1507
Flags: W
HStem: -292 55<117.393 198.797> -128 48<148.537 213.522> 0 53<122.972 189.54> 161 52<167.346 200> 531 83<392.015 554.965>
Fore
534 614 m 2,0,1
 567 614 567 614 595.5 600 c 128,-1,2
 624 586 624 586 644.5 564.5 c 128,-1,3
 665 543 665 543 673 513.5 c 128,-1,4
 681 484 681 484 675 452 c 2,5,-1
 552 -134 l 1,6,7
 513 -188 513 -188 460 -232 c 128,-1,8
 407 -276 407 -276 336 -301 c 1,9,-1
 253 -228 l 1,10,11
 241 -258 241 -258 210 -275 c 128,-1,12
 179 -292 179 -292 146 -292 c 0,13,14
 124 -292 124 -292 104 -283 c 128,-1,15
 84 -274 84 -274 70.5 -260 c 128,-1,16
 57 -246 57 -246 51 -226.5 c 128,-1,17
 45 -207 45 -207 50 -185 c 256,18,19
 54 -164 54 -164 68.5 -144.5 c 128,-1,20
 83 -125 83 -125 102.5 -110.5 c 128,-1,21
 122 -96 122 -96 145.5 -88 c 128,-1,22
 169 -80 169 -80 191 -80 c 0,23,24
 216 -80 216 -80 236 -88 c 128,-1,25
 256 -96 256 -96 270 -109 c 2,26,-1
 371 -182 l 1,27,28
 405 -161 405 -161 446 -112 c 1,29,-1
 565 452 l 2,30,31
 573 482 573 482 557 506.5 c 128,-1,32
 541 531 541 531 516 531 c 2,33,-1
 418 531 l 2,34,35
 399 531 399 531 376 522.5 c 128,-1,36
 353 514 353 514 330.5 500.5 c 128,-1,37
 308 487 308 487 287.5 470.5 c 128,-1,38
 267 454 267 454 255 437 c 1,39,40
 279 434 279 434 295.5 420.5 c 128,-1,41
 312 407 312 407 322 389 c 128,-1,42
 332 371 332 371 335.5 352 c 128,-1,43
 339 333 339 333 336 320 c 2,44,-1
 289 101 l 2,45,46
 285 81 285 81 270.5 63 c 128,-1,47
 256 45 256 45 237.5 31 c 128,-1,48
 219 17 219 17 195.5 8.5 c 128,-1,49
 172 0 172 0 149 0 c 0,50,51
 101 0 101 0 74 33 c 128,-1,52
 47 66 47 66 54 106 c 0,53,54
 59 127 59 127 72.5 146.5 c 128,-1,55
 86 166 86 166 105.5 180 c 128,-1,56
 125 194 125 194 148.5 203.5 c 128,-1,57
 172 213 172 213 194 213 c 2,58,-1
 200 213 l 1,59,-1
 223 318 l 2,60,61
 225 329 225 329 218 341.5 c 128,-1,62
 211 354 211 354 199 364.5 c 128,-1,63
 187 375 187 375 170.5 383.5 c 128,-1,64
 154 392 154 392 137 393 c 1,65,66
 152 440 152 440 184 481 c 128,-1,67
 216 522 216 522 256.5 551 c 128,-1,68
 297 580 297 580 344.5 597 c 128,-1,69
 392 614 392 614 440 614 c 2,70,-1
 534 614 l 2,0,1
118 107 m 0,71,72
 112 84 112 84 124.5 68.5 c 128,-1,73
 137 53 137 53 160 53 c 256,74,75
 182 53 182 53 201 68.5 c 128,-1,76
 220 84 220 84 226 107 c 0,77,78
 231 130 231 130 218 145.5 c 128,-1,79
 205 161 205 161 182 161 c 256,80,81
 160 161 160 161 141 145.5 c 128,-1,82
 122 130 122 130 118 107 c 0,71,72
112 -182 m 256,83,84
 107 -205 107 -205 119 -221 c 128,-1,85
 131 -237 131 -237 154 -237 c 256,86,87
 176 -237 176 -237 196 -221 c 128,-1,88
 216 -205 216 -205 220 -182 c 256,89,90
 225 -160 225 -160 212 -144 c 128,-1,91
 199 -128 199 -128 176 -128 c 256,92,93
 154 -128 154 -128 135 -144 c 128,-1,94
 116 -160 116 -160 112 -182 c 256,83,84
EndSplineSet
Substitution2: "Single Substitution lookup 22 subtable" uni0E0E.alt1
Substitution2: "Single Substitution lookup 22 subtable" uni0E0E.alt1
EndChar
StartChar: uni0E0F
Encoding: 3599 3599 226
Width: 664
VWidth: 1507
Flags: W
HStem: -265 54<74.1813 142.986> -103 53<106.765 171.215> 0 53<122.972 189.54> 161 52<167.346 200> 531 83<392.015 554.965>
Fore
534 614 m 2,0,1
 567 614 567 614 595.5 600 c 128,-1,2
 624 586 624 586 644.5 564.5 c 128,-1,3
 665 543 665 543 673 513.5 c 128,-1,4
 681 484 681 484 675 452 c 2,5,-1
 555 -119 l 2,6,7
 547 -151 547 -151 536 -175 c 128,-1,8
 525 -199 525 -199 505 -219.5 c 128,-1,9
 485 -240 485 -240 458 -259.5 c 128,-1,10
 431 -279 431 -279 393 -301 c 1,11,-1
 338 -167 l 1,12,13
 326 -181 326 -181 312 -200.5 c 128,-1,14
 298 -220 298 -220 284 -239 c 128,-1,15
 270 -258 270 -258 256.5 -275 c 128,-1,16
 243 -292 243 -292 234 -303 c 1,17,-1
 200 -222 l 1,18,19
 184 -244 184 -244 157 -254.5 c 128,-1,20
 130 -265 130 -265 104 -265 c 0,21,22
 56 -265 56 -265 27 -232.5 c 128,-1,23
 -2 -200 -2 -200 6 -158 c 0,24,25
 11 -136 11 -136 25 -116 c 128,-1,26
 39 -96 39 -96 58.5 -82 c 128,-1,27
 78 -68 78 -68 101.5 -59 c 128,-1,28
 125 -50 125 -50 149 -50 c 0,29,30
 178 -50 178 -50 201.5 -64 c 128,-1,31
 225 -78 225 -78 243 -103 c 0,32,33
 252 -113 252 -113 255.5 -132 c 128,-1,34
 259 -151 259 -151 262 -167 c 1,35,-1
 362 -33 l 1,36,-1
 419 -167 l 1,37,38
 425 -160 425 -160 432 -151 c 128,-1,39
 439 -142 439 -142 445 -116 c 2,40,-1
 565 452 l 2,41,42
 573 482 573 482 557 506.5 c 128,-1,43
 541 531 541 531 516 531 c 2,44,-1
 418 531 l 2,45,46
 399 531 399 531 376 522.5 c 128,-1,47
 353 514 353 514 330.5 500.5 c 128,-1,48
 308 487 308 487 287.5 470.5 c 128,-1,49
 267 454 267 454 255 437 c 1,50,51
 279 434 279 434 295.5 420.5 c 128,-1,52
 312 407 312 407 322 389 c 128,-1,53
 332 371 332 371 335.5 352 c 128,-1,54
 339 333 339 333 336 320 c 2,55,-1
 289 101 l 2,56,57
 285 81 285 81 270.5 63 c 128,-1,58
 256 45 256 45 237.5 31 c 128,-1,59
 219 17 219 17 195.5 8.5 c 128,-1,60
 172 0 172 0 149 0 c 0,61,62
 101 0 101 0 74 33 c 128,-1,63
 47 66 47 66 54 106 c 0,64,65
 59 127 59 127 72.5 146.5 c 128,-1,66
 86 166 86 166 105.5 180 c 128,-1,67
 125 194 125 194 148.5 203.5 c 128,-1,68
 172 213 172 213 194 213 c 2,69,-1
 200 213 l 1,70,-1
 223 318 l 2,71,72
 225 329 225 329 218 341.5 c 128,-1,73
 211 354 211 354 199 364.5 c 128,-1,74
 187 375 187 375 170.5 383.5 c 128,-1,75
 154 392 154 392 137 393 c 1,76,77
 152 440 152 440 184 481 c 128,-1,78
 216 522 216 522 256.5 551 c 128,-1,79
 297 580 297 580 344.5 597 c 128,-1,80
 392 614 392 614 440 614 c 2,81,-1
 534 614 l 2,0,1
118 107 m 0,82,83
 112 84 112 84 124.5 68.5 c 128,-1,84
 137 53 137 53 160 53 c 256,85,86
 182 53 182 53 201 68.5 c 128,-1,87
 220 84 220 84 226 107 c 0,88,89
 231 130 231 130 218 145.5 c 128,-1,90
 205 161 205 161 182 161 c 256,91,92
 160 161 160 161 141 145.5 c 128,-1,93
 122 130 122 130 118 107 c 0,82,83
68 -157 m 0,94,95
 63 -179 63 -179 76 -195 c 128,-1,96
 89 -211 89 -211 112 -211 c 256,97,98
 134 -211 134 -211 153 -195 c 128,-1,99
 172 -179 172 -179 176 -157 c 0,100,101
 182 -134 182 -134 169.5 -118.5 c 128,-1,102
 157 -103 157 -103 134 -103 c 256,103,104
 112 -103 112 -103 93 -118.5 c 128,-1,105
 74 -134 74 -134 68 -157 c 0,94,95
EndSplineSet
Substitution2: "Single Substitution lookup 22 subtable" uni0E0F.alt1
Substitution2: "Single Substitution lookup 22 subtable" uni0E0F.alt1
EndChar
StartChar: uni0E10
Encoding: 3600 3600 227
Width: 584
VWidth: 1507
Flags: W
HStem: -252 59<0.972717 62.8525> -84 49<15.6125 96.3112> -35 33<372.531 445.51> 0 21G<207 316.5> 119 56<200.893 231> 283 53<229.265 294.766> 481 84<488.258 586.847> 537 77<277.611 380.346>
Fore
500 163 m 2,0,1
 493 131 493 131 474 102.5 c 128,-1,2
 455 74 455 74 428 51.5 c 128,-1,3
 401 29 401 29 368 14.5 c 128,-1,4
 335 0 335 0 298 0 c 2,5,-1
 207 0 l 1,6,-1
 231 119 l 1,7,-1
 225 119 l 2,8,9
 176 119 176 119 147.5 151.5 c 128,-1,10
 119 184 119 184 128 228 c 0,11,12
 133 249 133 249 147 268.5 c 128,-1,13
 161 288 161 288 180.5 303 c 128,-1,14
 200 318 200 318 223.5 327 c 128,-1,15
 247 336 247 336 271 336 c 0,16,17
 320 336 320 336 348.5 306 c 128,-1,18
 377 276 377 276 366 228 c 2,19,-1
 336 90 l 1,20,21
 357 98 357 98 377.5 111 c 128,-1,22
 398 124 398 124 405 163 c 2,23,-1
 439 318 l 1,24,25
 389 348 389 348 304 370.5 c 128,-1,26
 219 393 219 393 119 407 c 1,27,28
 128 449 128 449 150 493.5 c 128,-1,29
 172 538 172 538 213 567 c 0,30,31
 243 588 243 588 275.5 601 c 128,-1,32
 308 614 308 614 345 614 c 0,33,34
 380 614 380 614 404 605.5 c 128,-1,35
 428 597 428 597 454 589 c 2,36,37
 473 580 473 580 493 573.5 c 128,-1,38
 513 567 513 567 531 565 c 0,39,40
 553 565 553 565 588 585.5 c 128,-1,41
 623 606 623 606 674 645 c 1,42,-1
 671 562 l 1,43,44
 636 534 636 534 594.5 507.5 c 128,-1,45
 553 481 553 481 519 481 c 0,46,47
 487 481 487 481 464.5 492 c 128,-1,48
 442 503 442 503 418 513 c 256,49,50
 393 522 393 522 371.5 529.5 c 128,-1,51
 350 537 350 537 329 537 c 0,52,53
 303 537 303 537 276 514 c 128,-1,54
 249 491 249 491 241 466 c 1,55,56
 323 452 323 452 396.5 425 c 128,-1,57
 470 398 470 398 541 354 c 1,58,-1
 500 163 l 2,0,1
476 -93 m 2,59,60
 455 -190 455 -190 407 -234.5 c 128,-1,61
 359 -279 359 -279 283 -300 c 1,62,-1
 225 -182 l 1,63,-1
 131 -300 l 1,64,-1
 107 -211 l 1,65,66
 86 -232 86 -232 65 -242 c 128,-1,67
 44 -252 44 -252 26 -252 c 0,68,69
 -26 -252 -26 -252 -48.5 -219.5 c 128,-1,70
 -71 -187 -71 -187 -62 -143 c 256,71,72
 -53 -99 -53 -99 -17.5 -67 c 128,-1,73
 18 -35 18 -35 69 -35 c 0,74,75
 99 -35 99 -35 125 -47.5 c 128,-1,76
 151 -60 151 -60 152 -80 c 2,77,-1
 166 -170 l 1,78,-1
 249 -66 l 1,79,-1
 323 -213 l 1,80,81
 344 -208 344 -208 359.5 -195 c 128,-1,82
 375 -182 375 -182 378 -164 c 1,83,84
 347 -164 347 -164 327.5 -141.5 c 128,-1,85
 308 -119 308 -119 315 -80 c 0,86,87
 323 -48 323 -48 351.5 -25 c 128,-1,88
 380 -2 380 -2 415 -2 c 256,89,90
 449 -2 449 -2 468.5 -21.5 c 128,-1,91
 488 -41 488 -41 481 -75 c 2,92,-1
 476 -93 l 2,59,60
193 229 m 256,93,94
 188 207 188 207 200.5 191 c 128,-1,95
 213 175 213 175 235 175 c 256,96,97
 258 175 258 175 277.5 191 c 128,-1,98
 297 207 297 207 301 229 c 256,99,100
 306 252 306 252 293 267.5 c 128,-1,101
 280 283 280 283 258 283 c 256,102,103
 235 283 235 283 216 267.5 c 128,-1,104
 197 252 197 252 193 229 c 256,93,94
-5 -139 m 0,105,106
 -9 -161 -9 -161 2.5 -177 c 128,-1,107
 14 -193 14 -193 36 -193 c 256,108,109
 59 -193 59 -193 78.5 -177 c 128,-1,110
 98 -161 98 -161 103 -139 c 256,111,112
 107 -116 107 -116 95 -100 c 128,-1,113
 83 -84 83 -84 60 -84 c 256,114,115
 38 -84 38 -84 18 -100 c 128,-1,116
 -2 -116 -2 -116 -5 -139 c 0,105,106
356 -81 m 256,117,118
 351 -101 351 -101 361.5 -114.5 c 128,-1,119
 372 -128 372 -128 392 -128 c 256,120,121
 412 -128 412 -128 428.5 -114.5 c 128,-1,122
 445 -101 445 -101 449 -81 c 256,123,124
 454 -62 454 -62 443.5 -48.5 c 128,-1,125
 433 -35 433 -35 413 -35 c 256,126,127
 393 -35 393 -35 376.5 -48.5 c 128,-1,128
 360 -62 360 -62 356 -81 c 256,117,118
EndSplineSet
Substitution2: "Single Substitution lookup 22 subtable" uni0E10.alt1
Substitution2: "Single Substitution lookup 22 subtable" uni0E10.alt1
EndChar
StartChar: uni0E11
Encoding: 3601 3601 228
Width: 842
VWidth: 1507
Flags: W
HStem: 0 21G<261 385.28 647 759.232> 308 46<162.379 244.358> 463 45<214.498 249.602> 594 20G<683.969 717.5>
Fore
318 271 m 2,0,1
 324 300 324 300 331 318 c 128,-1,2
 338 336 338 336 347.5 349 c 128,-1,3
 357 362 357 362 370.5 374 c 128,-1,4
 384 386 384 386 404 404 c 0,5,6
 424 421 424 421 438 445 c 128,-1,7
 452 469 452 469 457 491 c 0,8,9
 461 517 461 517 452 534 c 1,10,-1
 366 469 l 1,11,-1
 291 546 l 1,12,13
 261 543 261 543 242 531 c 128,-1,14
 223 519 223 519 214 508 c 1,15,-1
 234 508 l 2,16,17
 249 508 249 508 264.5 500.5 c 128,-1,18
 280 493 280 493 292 479.5 c 128,-1,19
 304 466 304 466 309.5 448 c 128,-1,20
 315 430 315 430 311 409 c 0,21,22
 301 363 301 363 267.5 335.5 c 128,-1,23
 234 308 234 308 190 308 c 0,24,25
 161 308 161 308 141.5 320 c 128,-1,26
 122 332 122 332 110.5 350.5 c 128,-1,27
 99 369 99 369 97 393.5 c 128,-1,28
 95 418 95 418 99 443 c 0,29,30
 107 479 107 479 129 510 c 128,-1,31
 151 541 151 541 182 564.5 c 128,-1,32
 213 588 213 588 249 602.5 c 128,-1,33
 285 617 285 617 321 617 c 1,34,-1
 384 552 l 1,35,-1
 467 617 l 1,36,37
 506 597 506 597 517 558 c 128,-1,38
 528 519 528 519 517 473 c 0,39,40
 513 451 513 451 500.5 428 c 128,-1,41
 488 405 488 405 474.5 382 c 128,-1,42
 461 359 461 359 449 335 c 128,-1,43
 437 311 437 311 433 286 c 2,44,-1
 407 167 l 1,45,46
 413 188 413 188 420 205.5 c 128,-1,47
 427 223 427 223 430 232 c 1,48,-1
 698 614 l 1,49,50
 737 614 737 614 768.5 601.5 c 128,-1,51
 800 589 800 589 821.5 568 c 128,-1,52
 843 547 843 547 850.5 517 c 128,-1,53
 858 487 858 487 850 449 c 2,54,-1
 755 0 l 1,55,-1
 647 0 l 1,56,-1
 734 418 l 2,57,58
 739 437 739 437 733 453.5 c 128,-1,59
 727 470 727 470 713 479 c 1,60,-1
 371 0 l 1,61,-1
 261 0 l 1,62,-1
 318 271 l 2,0,1
157 409 m 256,63,64
 152 386 152 386 164 370 c 128,-1,65
 176 354 176 354 199 354 c 256,66,67
 222 354 222 354 241.5 370 c 128,-1,68
 261 386 261 386 265 409 c 256,69,70
 270 431 270 431 258 447 c 128,-1,71
 246 463 246 463 223 463 c 256,72,73
 200 463 200 463 180.5 447 c 128,-1,74
 161 431 161 431 157 409 c 256,63,64
EndSplineSet
EndChar
StartChar: uni0E12
Encoding: 3602 3602 229
Width: 970
VWidth: 1507
Flags: W
HStem: 0 21G<756 884.235> 294 53<360.336 425.883> 594 20G<377 410.605 556.118 598.5 893.755 1010>
Fore
671 226 m 1,0,1
 716 210 716 210 744.5 181 c 128,-1,2
 773 152 773 152 794 124 c 1,3,-1
 898 614 l 1,4,-1
 1010 614 l 1,5,-1
 880 0 l 1,6,-1
 764 0 l 1,7,8
 748 39 748 39 721.5 76 c 128,-1,9
 695 113 695 113 651 130 c 1,10,-1
 633 44 l 1,11,12
 609 27 609 27 591.5 14.5 c 128,-1,13
 574 2 574 2 549 2 c 0,14,15
 496 2 496 2 472.5 32.5 c 128,-1,16
 449 63 449 63 460 109 c 0,17,18
 470 155 470 155 498 186 c 128,-1,19
 526 217 526 217 574 225 c 1,20,-1
 623 451 l 2,21,22
 627 472 627 472 611 494.5 c 128,-1,23
 595 517 595 517 577 517 c 1,24,-1
 448 418 l 1,25,-1
 357 519 l 1,26,27
 333 503 333 503 300.5 463.5 c 128,-1,28
 268 424 268 424 258 375 c 2,29,-1
 199 96 l 1,30,31
 231 101 231 101 255.5 110 c 128,-1,32
 280 119 280 119 311 143 c 1,33,34
 289 155 289 155 276.5 179 c 128,-1,35
 264 203 264 203 271 240 c 0,36,37
 276 261 276 261 288.5 280.5 c 128,-1,38
 301 300 301 300 318.5 314.5 c 128,-1,39
 336 329 336 329 356.5 338 c 128,-1,40
 377 347 377 347 398 347 c 0,41,42
 436 347 436 347 460.5 315 c 128,-1,43
 485 283 485 283 475 240 c 0,44,45
 466 196 466 196 435 153 c 128,-1,46
 404 110 404 110 360.5 76 c 128,-1,47
 317 42 317 42 266.5 22 c 128,-1,48
 216 2 216 2 167 2 c 2,49,-1
 75 2 l 1,50,-1
 155 378 l 2,51,52
 164 421 164 421 190.5 463 c 128,-1,53
 217 505 217 505 251.5 539 c 128,-1,54
 286 573 286 573 324 594 c 128,-1,55
 362 615 362 615 392 615 c 1,56,-1
 472 529 l 1,57,-1
 582 614 l 1,58,59
 615 614 615 614 643 601 c 128,-1,60
 671 588 671 588 690.5 565.5 c 128,-1,61
 710 543 710 543 717.5 513.5 c 128,-1,62
 725 484 725 484 719 451 c 2,63,-1
 671 226 l 1,0,1
323 240 m 0,64,65
 318 217 318 217 331 201 c 128,-1,66
 344 185 344 185 366 185 c 256,67,68
 389 185 389 185 408 201 c 128,-1,69
 427 217 427 217 431 240 c 0,70,71
 437 262 437 262 424.5 278 c 128,-1,72
 412 294 412 294 389 294 c 256,73,74
 366 294 366 294 347.5 278 c 128,-1,75
 329 262 329 262 323 240 c 0,64,65
506 110 m 0,76,77
 502 89 502 89 512 68.5 c 128,-1,78
 522 48 522 48 537 44 c 1,79,-1
 564 175 l 1,80,81
 546 173 546 173 528.5 153 c 128,-1,82
 511 133 511 133 506 110 c 0,76,77
EndSplineSet
EndChar
StartChar: uni0E13
Encoding: 3603 3603 230
Width: 924
VWidth: 1507
Flags: W
HStem: 0 53<193.127 260.975 760.33 819.314> 161 52<255 288.107> 531 83<367.22 531.172>
Fore
188 107 m 0,0,1
 182 84 182 84 195 68.5 c 128,-1,2
 208 53 208 53 231 53 c 256,3,4
 253 53 253 53 272 68.5 c 128,-1,5
 291 84 291 84 297 107 c 0,6,7
 301 130 301 130 288.5 145.5 c 128,-1,8
 276 161 276 161 253 161 c 256,9,10
 231 161 231 161 212 145.5 c 128,-1,11
 193 130 193 130 188 107 c 0,0,1
683 103 m 1,12,13
 657 86 657 86 624 58 c 128,-1,14
 591 30 591 30 555 0 c 1,15,-1
 448 0 l 1,16,-1
 543 452 l 2,17,18
 550 482 550 482 533.5 506.5 c 128,-1,19
 517 531 517 531 491 531 c 2,20,-1
 393 531 l 2,21,22
 374 531 374 531 351.5 522.5 c 128,-1,23
 329 514 329 514 307 499.5 c 128,-1,24
 285 485 285 485 266 467 c 128,-1,25
 247 449 247 449 235 431 c 1,26,27
 265 415 265 415 274 380 c 128,-1,28
 283 345 283 345 277 318 c 2,29,-1
 255 213 l 1,30,-1
 264 213 l 2,31,32
 286 213 286 213 306 203.5 c 128,-1,33
 326 194 326 194 339.5 179 c 128,-1,34
 353 164 353 164 359.5 145.5 c 128,-1,35
 366 127 366 127 362 107 c 0,36,37
 357 84 357 84 343 65.5 c 128,-1,38
 329 47 329 47 310 32 c 128,-1,39
 291 17 291 17 267.5 8.5 c 128,-1,40
 244 0 244 0 220 0 c 0,41,42
 199 0 199 0 180 7 c 128,-1,43
 161 14 161 14 147 25 c 128,-1,44
 133 36 133 36 124.5 52.5 c 128,-1,45
 116 69 116 69 118 87 c 2,46,-1
 167 320 l 2,47,48
 172 345 172 345 157 366 c 128,-1,49
 142 387 142 387 115 390 c 1,50,51
 128 437 128 437 159.5 478 c 128,-1,52
 191 519 191 519 232 549 c 128,-1,53
 273 579 273 579 320.5 596.5 c 128,-1,54
 368 614 368 614 416 614 c 2,55,-1
 510 614 l 2,56,57
 543 614 543 614 571.5 600 c 128,-1,58
 600 586 600 586 620.5 564.5 c 128,-1,59
 641 543 641 543 649 513.5 c 128,-1,60
 657 484 657 484 651 452 c 2,61,-1
 582 125 l 1,62,63
 624 158 624 158 674.5 193.5 c 128,-1,64
 725 229 725 229 776 258 c 1,65,-1
 852 614 l 1,66,-1
 962 614 l 1,67,-1
 879 222 l 1,68,69
 909 208 909 208 922.5 180 c 128,-1,70
 936 152 936 152 929 118 c 0,71,72
 924 93 924 93 909 72 c 128,-1,73
 894 51 894 51 873 35.5 c 128,-1,74
 852 20 852 20 826 10 c 128,-1,75
 800 0 800 0 776 0 c 0,76,77
 724 0 724 0 699.5 33 c 128,-1,78
 675 66 675 66 683 103 c 1,12,13
752 115 m 0,79,80
 746 92 746 92 759 76 c 128,-1,81
 772 60 772 60 794 60 c 256,82,83
 817 60 817 60 836 76 c 128,-1,84
 855 92 855 92 861 115 c 0,85,86
 865 137 865 137 852.5 153 c 128,-1,87
 840 169 840 169 817 169 c 256,88,89
 794 169 794 169 775.5 153 c 128,-1,90
 757 137 757 137 752 115 c 0,79,80
EndSplineSet
EndChar
StartChar: uni0E14
Encoding: 3604 3604 231
Width: 691
VWidth: 1507
Flags: W
HStem: 0 95<199 257.64> 294 50<373.305 440.833> 531 83<383.422 577.206>
Fore
199 95 m 1,0,1
 231 99 231 99 258.5 108.5 c 128,-1,2
 286 118 286 118 317 142 c 1,3,4
 292 154 292 154 278 178 c 128,-1,5
 264 202 264 202 271 238 c 0,6,7
 276 259 276 259 290 278 c 128,-1,8
 304 297 304 297 324 312 c 128,-1,9
 344 327 344 327 367 335.5 c 128,-1,10
 390 344 390 344 413 344 c 0,11,12
 457 344 457 344 485 313 c 128,-1,13
 513 282 513 282 503 238 c 256,14,15
 494 194 494 194 459 151.5 c 128,-1,16
 424 109 424 109 375 75 c 128,-1,17
 326 41 326 41 271 20.5 c 128,-1,18
 216 0 216 0 167 0 c 2,19,-1
 75 0 l 1,20,-1
 155 377 l 2,21,22
 164 422 164 422 195 465 c 128,-1,23
 226 508 226 508 269 540.5 c 128,-1,24
 312 573 312 573 362 593.5 c 128,-1,25
 412 614 412 614 461 614 c 2,26,-1
 559 614 l 2,27,28
 594 614 594 614 623.5 601 c 128,-1,29
 653 588 653 588 672.5 565.5 c 128,-1,30
 692 543 692 543 700 512.5 c 128,-1,31
 708 482 708 482 701 449 c 2,32,-1
 606 0 l 1,33,-1
 493 0 l 1,34,-1
 588 454 l 2,35,36
 595 481 595 481 580 506 c 128,-1,37
 565 531 565 531 541 531 c 2,38,-1
 440 531 l 2,39,40
 412 531 412 531 382.5 516.5 c 128,-1,41
 353 502 353 502 327 479.5 c 128,-1,42
 301 457 301 457 282.5 429 c 128,-1,43
 264 401 264 401 258 374 c 2,44,-1
 199 95 l 1,0,1
338 240 m 0,45,46
 333 217 333 217 346 201 c 128,-1,47
 359 185 359 185 381 185 c 256,48,49
 404 185 404 185 423 201 c 128,-1,50
 442 217 442 217 446 240 c 0,51,52
 452 262 452 262 439.5 278 c 128,-1,53
 427 294 427 294 404 294 c 256,54,55
 381 294 381 294 362.5 278 c 128,-1,56
 344 262 344 262 338 240 c 0,45,46
EndSplineSet
EndChar
StartChar: uni0E15
Encoding: 3605 3605 232
Width: 690
VWidth: 1507
Flags: W
HStem: 0 21G<494 610.213> 295 50<372.946 441.428> 595 20G<377 410.605 556.118 598.5>
Fore
155 378 m 2,0,1
 164 421 164 421 190.5 463 c 128,-1,2
 217 505 217 505 251.5 539 c 128,-1,3
 286 573 286 573 324 594 c 128,-1,4
 362 615 362 615 392 615 c 1,5,-1
 472 529 l 1,6,-1
 582 614 l 1,7,8
 615 614 615 614 640.5 601 c 128,-1,9
 666 588 666 588 682 565.5 c 128,-1,10
 698 543 698 543 702.5 513.5 c 128,-1,11
 707 484 707 484 701 451 c 2,12,-1
 606 0 l 1,13,-1
 494 0 l 1,14,-1
 589 451 l 2,15,16
 594 472 594 472 594.5 494.5 c 128,-1,17
 595 517 595 517 577 517 c 1,18,-1
 448 418 l 1,19,-1
 357 519 l 1,20,21
 333 503 333 503 300.5 463.5 c 128,-1,22
 268 424 268 424 258 375 c 2,23,-1
 199 96 l 1,24,25
 231 101 231 101 258.5 110 c 128,-1,26
 286 119 286 119 318 143 c 1,27,28
 292 155 292 155 278 179 c 128,-1,29
 264 203 264 203 271 240 c 0,30,31
 276 261 276 261 290 279.5 c 128,-1,32
 304 298 304 298 324 313.5 c 128,-1,33
 344 329 344 329 367 337 c 128,-1,34
 390 345 390 345 413 345 c 0,35,36
 457 345 457 345 485 314 c 128,-1,37
 513 283 513 283 503 240 c 256,38,39
 494 196 494 196 459 153 c 128,-1,40
 424 110 424 110 375 76 c 128,-1,41
 326 42 326 42 271 22 c 128,-1,42
 216 2 216 2 167 2 c 2,43,-1
 75 2 l 1,44,-1
 155 378 l 2,0,1
339 241 m 0,45,46
 333 219 333 219 346 203 c 128,-1,47
 359 187 359 187 381 187 c 256,48,49
 404 187 404 187 423 203 c 128,-1,50
 442 219 442 219 448 241 c 0,51,52
 452 264 452 264 439.5 279.5 c 128,-1,53
 427 295 427 295 404 295 c 256,54,55
 381 295 381 295 362.5 279.5 c 128,-1,56
 344 264 344 264 339 241 c 0,45,46
EndSplineSet
EndChar
StartChar: uni0E16
Encoding: 3606 3606 233
Width: 643
VWidth: 1507
Flags: W
HStem: 0 53<193.127 260.975> 161 52<255 288.107> 531 83<367.22 531.172>
Fore
556 0 m 1,0,-1
 448 0 l 1,1,-1
 543 452 l 2,2,3
 550 482 550 482 533.5 506.5 c 128,-1,4
 517 531 517 531 491 531 c 2,5,-1
 393 531 l 2,6,7
 374 531 374 531 351.5 522.5 c 128,-1,8
 329 514 329 514 307 499.5 c 128,-1,9
 285 485 285 485 266 467 c 128,-1,10
 247 449 247 449 235 431 c 1,11,12
 265 415 265 415 274 380 c 128,-1,13
 283 345 283 345 277 318 c 2,14,-1
 255 213 l 1,15,-1
 264 213 l 2,16,17
 286 213 286 213 306 203.5 c 128,-1,18
 326 194 326 194 339.5 179 c 128,-1,19
 353 164 353 164 359.5 145.5 c 128,-1,20
 366 127 366 127 362 107 c 0,21,22
 357 84 357 84 343 65.5 c 128,-1,23
 329 47 329 47 310 32 c 128,-1,24
 291 17 291 17 267.5 8.5 c 128,-1,25
 244 0 244 0 220 0 c 0,26,27
 199 0 199 0 180 7 c 128,-1,28
 161 14 161 14 147 25 c 128,-1,29
 133 36 133 36 124.5 52.5 c 128,-1,30
 116 69 116 69 118 87 c 2,31,-1
 167 320 l 2,32,33
 172 345 172 345 157 366 c 128,-1,34
 142 387 142 387 115 390 c 1,35,36
 128 437 128 437 159.5 478 c 128,-1,37
 191 519 191 519 232 549 c 128,-1,38
 273 579 273 579 320.5 596.5 c 128,-1,39
 368 614 368 614 416 614 c 2,40,-1
 510 614 l 2,41,42
 543 614 543 614 571.5 600 c 128,-1,43
 600 586 600 586 620.5 564.5 c 128,-1,44
 641 543 641 543 649 513.5 c 128,-1,45
 657 484 657 484 651 452 c 2,46,-1
 556 0 l 1,0,-1
188 107 m 0,47,48
 182 84 182 84 195 68.5 c 128,-1,49
 208 53 208 53 231 53 c 256,50,51
 253 53 253 53 272 68.5 c 128,-1,52
 291 84 291 84 297 107 c 0,53,54
 301 130 301 130 288.5 145.5 c 128,-1,55
 276 161 276 161 253 161 c 256,56,57
 231 161 231 161 212 145.5 c 128,-1,58
 193 130 193 130 188 107 c 0,47,48
EndSplineSet
EndChar
StartChar: uni0E17
Encoding: 3607 3607 234
Width: 729
VWidth: 1507
Flags: W
HStem: 0 21G<154 274.36 534 649.232> 402 50<206.893 238> 561 49<237.268 301.573>
Fore
570 614 m 1,0,1
 609 614 609 614 643.5 601.5 c 128,-1,2
 678 589 678 589 702.5 568 c 128,-1,3
 727 547 727 547 737.5 517 c 128,-1,4
 748 487 748 487 740 449 c 2,5,-1
 645 0 l 1,6,-1
 534 0 l 1,7,-1
 626 439 l 2,8,9
 630 458 630 458 621 474.5 c 128,-1,10
 612 491 612 491 595 500 c 1,11,-1
 261 0 l 1,12,-1
 154 0 l 1,13,-1
 238 402 l 1,14,15
 193 402 193 402 163 433 c 128,-1,16
 133 464 133 464 142 508 c 0,17,18
 146 528 146 528 159.5 546.5 c 128,-1,19
 173 565 173 565 193 579.5 c 128,-1,20
 213 594 213 594 235.5 602 c 128,-1,21
 258 610 258 610 280 610 c 0,22,23
 324 610 324 610 352.5 580 c 128,-1,24
 381 550 381 550 372 510 c 2,25,-1
 303 179 l 1,26,27
 309 200 309 200 316 221.5 c 128,-1,28
 323 243 323 243 329 250 c 2,29,-1
 570 614 l 1,0,1
199 506 m 256,30,31
 194 484 194 484 206.5 468 c 128,-1,32
 219 452 219 452 241 452 c 256,33,34
 264 452 264 452 283.5 468 c 128,-1,35
 303 484 303 484 308 506 c 256,36,37
 312 529 312 529 300 545 c 128,-1,38
 288 561 288 561 265 561 c 256,39,40
 243 561 243 561 223 545 c 128,-1,41
 203 529 203 529 199 506 c 256,30,31
EndSplineSet
EndChar
StartChar: uni0E18
Encoding: 3608 3608 235
Width: 569
VWidth: 1507
Flags: W
HStem: 0 90<223 345.375> 479 79<485.267 553.305> 531 83<302.288 413.562>
Fore
526 558 m 0,0,1
 561 558 561 558 598.5 588 c 128,-1,2
 636 618 636 618 671 653 c 1,3,-1
 671 574 l 1,4,5
 657 558 657 558 637 541.5 c 128,-1,6
 617 525 617 525 594 511 c 128,-1,7
 571 497 571 497 548.5 488 c 128,-1,8
 526 479 526 479 506 479 c 0,9,10
 476 479 476 479 456.5 489 c 128,-1,11
 437 499 437 499 418 510 c 0,12,13
 380 531 380 531 344 531 c 0,14,15
 315 531 315 531 281 515 c 128,-1,16
 247 499 247 499 238 469 c 1,17,18
 323 457 323 457 406.5 428 c 128,-1,19
 490 399 490 399 565 356 c 1,20,-1
 523 163 l 2,21,22
 517 131 517 131 496 101.5 c 128,-1,23
 475 72 475 72 445.5 49.5 c 128,-1,24
 416 27 416 27 380.5 13.5 c 128,-1,25
 345 0 345 0 311 0 c 2,26,-1
 185 0 l 2,27,28
 151 0 151 0 127 22.5 c 128,-1,29
 103 45 103 45 110 80 c 2,30,-1
 167 351 l 1,31,-1
 274 329 l 1,32,-1
 223 90 l 1,33,-1
 332 90 l 2,34,35
 357 90 357 90 382 116.5 c 128,-1,36
 407 143 407 143 415 172 c 2,37,-1
 445 317 l 1,38,39
 393 347 393 347 310.5 368.5 c 128,-1,40
 228 390 228 390 124 407 c 1,41,42
 133 448 133 448 154 491 c 128,-1,43
 175 534 175 534 214 565 c 0,44,45
 244 589 244 589 284 601.5 c 128,-1,46
 324 614 324 614 363 614 c 0,47,48
 389 614 389 614 411 606 c 128,-1,49
 433 598 433 598 454 588 c 0,50,51
 470 580 470 580 486 569 c 128,-1,52
 502 558 502 558 526 558 c 0,0,1
EndSplineSet
EndChar
StartChar: uni0E19
Encoding: 3609 3609 236
Width: 663
VWidth: 1507
Flags: W
HStem: 0 60<502.304 565.328> 402 50<208.378 240> 561 49<238.569 302.694>
Fore
240 402 m 1,0,1
 194 402 194 402 164 433 c 128,-1,2
 134 464 134 464 143 508 c 0,3,4
 148 528 148 528 161.5 546.5 c 128,-1,5
 175 565 175 565 194.5 579.5 c 128,-1,6
 214 594 214 594 236.5 602 c 128,-1,7
 259 610 259 610 282 610 c 0,8,9
 326 610 326 610 354.5 580 c 128,-1,10
 383 550 383 550 374 510 c 2,11,-1
 292 127 l 1,12,13
 308 142 308 142 336.5 160 c 128,-1,14
 365 178 365 178 396.5 195.5 c 128,-1,15
 428 213 428 213 459.5 226.5 c 128,-1,16
 491 240 491 240 516 246 c 1,17,-1
 594 614 l 1,18,-1
 707 614 l 1,19,-1
 624 222 l 1,20,21
 654 208 654 208 667.5 180 c 128,-1,22
 681 152 681 152 674 118 c 0,23,24
 669 93 669 93 654 72 c 128,-1,25
 639 51 639 51 618 35.5 c 128,-1,26
 597 20 597 20 571.5 10 c 128,-1,27
 546 0 546 0 522 0 c 0,28,29
 469 0 469 0 445 34.5 c 128,-1,30
 421 69 421 69 430 112 c 0,31,32
 433 124 433 124 442 133 c 1,33,34
 399 112 399 112 348.5 73.5 c 128,-1,35
 298 35 298 35 259 0 c 1,36,-1
 155 0 l 1,37,-1
 240 402 l 1,0,1
200 506 m 256,38,39
 196 484 196 484 208 468 c 128,-1,40
 220 452 220 452 243 452 c 256,41,42
 265 452 265 452 284.5 468 c 128,-1,43
 304 484 304 484 309 506 c 256,44,45
 314 529 314 529 301.5 545 c 128,-1,46
 289 561 289 561 267 561 c 256,47,48
 244 561 244 561 224.5 545 c 128,-1,49
 205 529 205 529 200 506 c 256,38,39
497 115 m 0,50,51
 491 92 491 92 504 76 c 128,-1,52
 517 60 517 60 540 60 c 256,53,54
 562 60 562 60 581 76 c 128,-1,55
 600 92 600 92 606 115 c 0,56,57
 610 137 610 137 597.5 153 c 128,-1,58
 585 169 585 169 562 169 c 256,59,60
 540 169 540 169 521 153 c 128,-1,61
 502 137 502 137 497 115 c 0,50,51
EndSplineSet
EndChar
StartChar: uni0E1A
Encoding: 3610 3610 237
Width: 706
VWidth: 1507
Flags: W
HStem: 0 98<289 479.905> 402 50<211.378 243> 561 49<241.569 305.694>
Fore
243 402 m 1,0,1
 197 402 197 402 167 433 c 128,-1,2
 137 464 137 464 146 508 c 0,3,4
 151 528 151 528 164.5 546.5 c 128,-1,5
 178 565 178 565 197.5 579.5 c 128,-1,6
 217 594 217 594 239.5 602 c 128,-1,7
 262 610 262 610 285 610 c 0,8,9
 329 610 329 610 357.5 580 c 128,-1,10
 386 550 386 550 377 510 c 2,11,-1
 289 98 l 1,12,-1
 463 98 l 2,13,14
 488 98 488 98 513 121.5 c 128,-1,15
 538 145 538 145 544 175 c 2,16,-1
 638 614 l 1,17,-1
 748 614 l 1,18,-1
 650 155 l 2,19,20
 642 124 642 124 622.5 96 c 128,-1,21
 603 68 603 68 574.5 46 c 128,-1,22
 546 24 546 24 512 12 c 128,-1,23
 478 0 478 0 443 0 c 2,24,-1
 244 0 l 2,25,26
 210 0 210 0 188.5 23.5 c 128,-1,27
 167 47 167 47 173 77 c 2,28,-1
 243 402 l 1,0,1
203 506 m 256,29,30
 199 484 199 484 211 468 c 128,-1,31
 223 452 223 452 246 452 c 256,32,33
 268 452 268 452 288 468 c 128,-1,34
 308 484 308 484 312 506 c 256,35,36
 317 529 317 529 304.5 545 c 128,-1,37
 292 561 292 561 270 561 c 256,38,39
 247 561 247 561 227.5 545 c 128,-1,40
 208 529 208 529 203 506 c 256,29,30
EndSplineSet
EndChar
StartChar: uni0E1B
Encoding: 3611 3611 238
Width: 706
VWidth: 1507
Flags: W
HStem: 0 98<289 479.905> 402 50<211.378 243> 561 49<241.569 305.694>
Fore
243 402 m 1,0,1
 197 402 197 402 167 433 c 128,-1,2
 137 464 137 464 146 508 c 0,3,4
 151 528 151 528 164.5 546.5 c 128,-1,5
 178 565 178 565 197.5 579.5 c 128,-1,6
 217 594 217 594 239.5 602 c 128,-1,7
 262 610 262 610 285 610 c 0,8,9
 329 610 329 610 357.5 580 c 128,-1,10
 386 550 386 550 377 510 c 2,11,-1
 289 98 l 1,12,-1
 463 98 l 2,13,14
 488 98 488 98 513 121.5 c 128,-1,15
 538 145 538 145 544 175 c 2,16,-1
 699 907 l 1,17,-1
 809 907 l 1,18,-1
 650 155 l 2,19,20
 642 124 642 124 622.5 96 c 128,-1,21
 603 68 603 68 574.5 46 c 128,-1,22
 546 24 546 24 512 12 c 128,-1,23
 478 0 478 0 443 0 c 2,24,-1
 244 0 l 2,25,26
 210 0 210 0 188.5 23.5 c 128,-1,27
 167 47 167 47 173 77 c 2,28,-1
 243 402 l 1,0,1
203 506 m 256,29,30
 199 484 199 484 211 468 c 128,-1,31
 223 452 223 452 246 452 c 256,32,33
 268 452 268 452 288 468 c 128,-1,34
 308 484 308 484 312 506 c 256,35,36
 317 529 317 529 304.5 545 c 128,-1,37
 292 561 292 561 270 561 c 256,38,39
 247 561 247 561 227.5 545 c 128,-1,40
 208 529 208 529 203 506 c 256,29,30
EndSplineSet
EndChar
StartChar: uni0E1C
Encoding: 3612 3612 239
Width: 688
VWidth: 1507
Flags: W
HStem: -2 21G<156 200.474 477.062 508> 401 53<273 309.674> 562 52<286.218 354.793>
Fore
630 122 m 2,0,1
 627 106 627 106 618.5 85.5 c 128,-1,2
 610 65 610 65 594.5 47 c 128,-1,3
 579 29 579 29 553.5 15.5 c 128,-1,4
 528 2 528 2 488 -2 c 1,5,-1
 383 190 l 1,6,-1
 179 0 l 1,7,8
 133 0 133 0 110 28 c 128,-1,9
 87 56 87 56 95 87 c 2,10,-1
 184 510 l 2,11,12
 188 529 188 529 202.5 548 c 128,-1,13
 217 567 217 567 236.5 582 c 128,-1,14
 256 597 256 597 279.5 605.5 c 128,-1,15
 303 614 303 614 326 614 c 256,16,17
 348 614 348 614 367.5 604.5 c 128,-1,18
 387 595 387 595 401 581 c 128,-1,19
 415 567 415 567 421 547.5 c 128,-1,20
 427 528 427 528 422 506 c 256,21,22
 418 485 418 485 403.5 466.5 c 128,-1,23
 389 448 389 448 369.5 433 c 128,-1,24
 350 418 350 418 326.5 409.5 c 128,-1,25
 303 401 303 401 280 401 c 2,26,-1
 273 401 l 1,27,-1
 219 146 l 1,28,-1
 405 324 l 1,29,30
 421 324 421 324 429 309 c 128,-1,31
 437 294 437 294 446 277 c 2,32,-1
 523 143 l 1,33,-1
 623 614 l 1,34,-1
 734 614 l 1,35,-1
 630 122 l 2,0,1
252 508 m 256,36,37
 247 485 247 485 259 469.5 c 128,-1,38
 271 454 271 454 294 454 c 256,39,40
 317 454 317 454 336.5 469.5 c 128,-1,41
 356 485 356 485 360 508 c 256,42,43
 365 531 365 531 353 546.5 c 128,-1,44
 341 562 341 562 318 562 c 256,45,46
 295 562 295 562 275.5 546.5 c 128,-1,47
 256 531 256 531 252 508 c 256,36,37
EndSplineSet
EndChar
StartChar: uni0E1D
Encoding: 3613 3613 240
Width: 691
VWidth: 1507
Flags: W
HStem: -2 21G<156 200.474 477.062 508> 401 53<273 309.674> 562 52<286.218 354.793>
Fore
630 122 m 2,0,1
 627 106 627 106 618.5 85.5 c 128,-1,2
 610 65 610 65 594.5 47 c 128,-1,3
 579 29 579 29 553.5 15.5 c 128,-1,4
 528 2 528 2 488 -2 c 1,5,-1
 383 190 l 1,6,-1
 179 0 l 1,7,8
 133 0 133 0 110 28 c 128,-1,9
 87 56 87 56 95 87 c 2,10,-1
 184 510 l 2,11,12
 188 529 188 529 202.5 548 c 128,-1,13
 217 567 217 567 236.5 582 c 128,-1,14
 256 597 256 597 279.5 605.5 c 128,-1,15
 303 614 303 614 326 614 c 256,16,17
 348 614 348 614 367.5 604.5 c 128,-1,18
 387 595 387 595 401 581 c 128,-1,19
 415 567 415 567 421 547.5 c 128,-1,20
 427 528 427 528 422 506 c 256,21,22
 418 485 418 485 403.5 466.5 c 128,-1,23
 389 448 389 448 369.5 433 c 128,-1,24
 350 418 350 418 326.5 409.5 c 128,-1,25
 303 401 303 401 280 401 c 2,26,-1
 273 401 l 1,27,-1
 219 146 l 1,28,-1
 405 324 l 1,29,30
 421 324 421 324 429 309 c 128,-1,31
 437 294 437 294 446 277 c 2,32,-1
 523 143 l 1,33,-1
 684 907 l 1,34,-1
 796 907 l 1,35,-1
 630 122 l 2,0,1
252 508 m 256,36,37
 247 485 247 485 259 469.5 c 128,-1,38
 271 454 271 454 294 454 c 256,39,40
 317 454 317 454 336.5 469.5 c 128,-1,41
 356 485 356 485 360 508 c 256,42,43
 365 531 365 531 353 546.5 c 128,-1,44
 341 562 341 562 318 562 c 256,45,46
 295 562 295 562 275.5 546.5 c 128,-1,47
 256 531 256 531 252 508 c 256,36,37
EndSplineSet
EndChar
StartChar: uni0E1E
Encoding: 3614 3614 241
Width: 762
VWidth: 1507
Flags: W
HStem: -6 21G<264.5 292 535.365 553.5> 405 50<201.409 242.453> 564 50<232.101 296.675>
Fore
234 405 m 1,0,1
 188 405 188 405 157.5 436 c 128,-1,2
 127 467 127 467 137 511 c 0,3,4
 142 531 142 531 154.5 549.5 c 128,-1,5
 167 568 167 568 187 582.5 c 128,-1,6
 207 597 207 597 229.5 605.5 c 128,-1,7
 252 614 252 614 274 614 c 0,8,9
 318 614 318 614 346.5 583.5 c 128,-1,10
 375 553 375 553 368 513 c 2,11,-1
 288 136 l 1,12,13
 292 157 292 157 300 178 c 128,-1,14
 308 199 308 199 314 207 c 1,15,-1
 531 612 l 1,16,17
 561 609 561 609 573.5 592.5 c 128,-1,18
 586 576 586 576 586 562 c 2,19,-1
 614 207 l 2,20,21
 615 199 615 199 613.5 178 c 128,-1,22
 612 157 612 157 609 136 c 1,23,-1
 710 614 l 1,24,-1
 808 614 l 1,25,-1
 711 161 l 2,26,27
 705 134 705 134 690 107 c 128,-1,28
 675 80 675 80 652.5 56.5 c 128,-1,29
 630 33 630 33 600 16.5 c 128,-1,30
 570 0 570 0 537 -6 c 1,31,-1
 503 410 l 1,32,33
 461 329 461 329 421 253 c 0,34,35
 386 187 386 187 347 117 c 128,-1,36
 308 47 308 47 276 -6 c 1,37,38
 253 -6 253 -6 233 0 c 128,-1,39
 213 6 213 6 197.5 16.5 c 128,-1,40
 182 27 182 27 174.5 42 c 128,-1,41
 167 57 167 57 172 77 c 2,42,-1
 243 407 l 1,43,-1
 234 405 l 1,0,1
193 510 m 0,44,45
 188 487 188 487 201 471 c 128,-1,46
 214 455 214 455 237 455 c 256,47,48
 259 455 259 455 278 471 c 128,-1,49
 297 487 297 487 301 510 c 0,50,51
 308 532 308 532 295 548 c 128,-1,52
 282 564 282 564 259 564 c 256,53,54
 237 564 237 564 218 548 c 128,-1,55
 199 532 199 532 193 510 c 0,44,45
EndSplineSet
EndChar
